<?xml version="1.0" encoding="UTF-8" standalone="no"?>
<svg
   direction="ltr"
   width="800"
   height="504"
   viewBox="8448 21480.76 800 504"
   stroke-linecap="round"
   stroke-linejoin="round"
   data-color-mode="light"
   class="tl-container tl-theme__force-sRGB tl-theme__light"
   version="1.1"
   id="svg810"
   sodipodi:docname="SVG 5.svg"
   inkscape:version="1.4.4 (dcaf3e7, 2026-05-05)"
   xmlns:inkscape="http://www.inkscape.org/namespaces/inkscape"
   xmlns:sodipodi="http://sodipodi.sourceforge.net/DTD/sodipodi-0.dtd"
   xmlns="http://www.w3.org/2000/svg"
   xmlns:svg="http://www.w3.org/2000/svg">
  <sodipodi:namedview
     id="namedview810"
     pagecolor="#ffffff"
     bordercolor="#000000"
     borderopacity="0.25"
     inkscape:showpageshadow="2"
     inkscape:pageopacity="0.0"
     inkscape:pagecheckerboard="0"
     inkscape:deskcolor="#d1d1d1"
     inkscape:zoom="0.64171098"
     inkscape:cx="473.73351"
     inkscape:cy="289.85011"
     inkscape:window-width="1470"
     inkscape:window-height="923"
     inkscape:window-x="0"
     inkscape:window-y="33"
     inkscape:window-maximized="0"
     inkscape:current-layer="svg810" />
  <defs
     id="defs1" />
  <g
     id="g813"
     transform="translate(-95.189428,-262.90414)">
    <path
       fill="#ecd2a3"
       d="m 9166.6653,21937.192 14.8409,2.729 a 0.92943025,0.92943025 0 0 1 0,1.828 l -14.8709,2.609 a 0.92943025,0.92943025 0 0 0 -0.7496,0.749 l -2.7283,14.841 a 0.92943025,0.92943025 0 0 1 -1.8289,0 l -2.6084,-14.871 a 0.92943025,0.92943025 0 0 0 -0.7495,-0.749 l -14.8409,-2.728 a 0.92943025,0.92943025 0 0 1 0,-1.829 l 14.8709,-2.609 a 0.92943025,0.92943025 0 0 0 0.7495,-0.749 l 2.7283,-14.841 a 0.92943025,0.92943025 0 0 1 1.8289,0 l 2.6084,14.871 a 0.92943025,0.92943025 0 0 0 0.7496,0.749 z"
       id="path672"
       style="stroke-width:2.99816" />
    <circle
       fill="#ecd2a3"
       cx="8706.5078"
       cy="21959.381"
       r="3.3579416"
       id="circle672"
       style="stroke-width:2.99816" />
    <path
       fill="#ecd2a3"
       d="m 8553.0014,21991.159 q -0.5696,1.049 -1.6789,1.229 -0.9595,0.18 -1.9488,-0.779 a 2.608401,2.848254 60.9 0 1 1.499,-4.497 q 1.3192,-0.36 2.1287,0.749 1.0794,1.469 0,3.298 z"
       id="path674"
       style="stroke-width:2.99816" />
    <path
       fill="#ecd2a3"
       d="m 8645.3148,21987.022 q 0.7496,0 1.2593,4.287 0.6596,5.547 8.9345,6.446 a 0.62961404,0.62961404 0 0 1 -0.03,1.229 q -10.2537,0.72 -9.0844,11.723 0.09,0.99 -1.0794,0.99 -1.1992,0 -1.0793,-1.02 1.1693,-10.973 -9.0844,-11.693 a 0.62961404,0.62961404 0 0 1 -0.03,-1.229 q 8.2749,-0.899 8.9345,-6.446 0.5097,-4.287 1.2592,-4.287 z"
       id="path675"
       style="stroke-width:2.99816" />
    <circle
       fill="#ecd2a3"
       cx="9329.3467"
       cy="21989.6"
       r="2.848254"
       id="circle675"
       style="stroke-width:2.99816" />
    <path
       fill="#ecd2a3"
       d="m 9235.1433,22005.52 7.1656,1.29 a 1.0193751,1.0193751 0 0 1 0.03,2.008 l -7.1956,1.349 a 1.0193751,1.0193751 0 0 0 -0.8095,0.84 l -1.2892,7.166 a 1.0193751,1.0193751 0 0 1 -2.0088,0.03 l -1.3492,-7.196 a 1.0193751,1.0193751 0 0 0 -0.8395,-0.81 l -7.1656,-1.289 a 1.0193751,1.0193751 0 0 1 -0.03,-2.009 l 7.1956,-1.349 a 1.0193751,1.0193751 0 0 0 0.8095,-0.839 l 1.2892,-7.166 a 1.0193751,1.0193751 0 0 1 2.0088,-0.03 l 1.3492,7.196 a 1.0193751,1.0193751 0 0 0 0.8395,0.809 z"
       id="path677"
       style="stroke-width:2.99816" />
    <path
       fill="#ecd2a3"
       d="m 8750.9701,22029.206 q 0.1199,0 0.2098,0.06 a 0.5696508,0.17988973 84.2 0 1 0.1799,0.42 l 1.739,10.193 a 3.2979783,3.3879232 1.1 0 0 2.5484,2.699 l 6.8358,1.559 a 0.80950377,0.77952215 3.1 0 1 0.6296,0.689 v 0.03 a 0.77952215,0.77952215 0 0 1 -0.7495,0.72 q -3.4479,0.06 -7.8252,2.009 a 2.8782356,2.848254 81.6 0 0 -1.679,2.308 q -0.9894,8.425 -1.8588,8.425 -0.8695,0 -1.8889,-8.425 a 2.848254,2.8782356 8.2 0 0 -1.679,-2.308 q -4.3773,-1.919 -7.8252,-1.979 a 0.77952215,0.77952215 0 0 1 -0.7495,-0.72 v -0.03 a 0.77952215,0.80950377 86.8 0 1 0.6296,-0.689 l 6.8058,-1.589 a 3.3879232,3.2979783 88.8 0 0 2.5485,-2.699 l 1.7089,-10.193 a 0.17988973,0.5696508 5.6 0 1 0.1799,-0.42 q 0.1199,-0.06 0.2399,-0.06 z"
       id="path678"
       style="stroke-width:2.99816" />
    <circle
       fill="#ecd2a3"
       cx="9124.4824"
       cy="22041.768"
       r="3.1180885"
       id="circle678"
       style="stroke-width:2.99816" />
    <path
       fill="#ecd2a3"
       d="m 9139.43,21919.48 q 0.02,0.12 0.04,0.24 l -93,38.91 a 0.51,0.52 70.2 0 0 -0.3,0.63 l 4.34,14.28 a 0.44,0.44 0 0 0 0.5,0.31 l 66.62,-11.8 a 0.23,0.19 76 0 1 0.23,0.17 q 0.01,0.03 0.01,0.06 a 0.08,0.11 88.8 0 1 -0.09,0.07 l -66.27,13.93 a 0.27,0.26 82.1 0 0 -0.2,0.27 l 1.07,14.62 a 0.63,0.62 85.1 0 0 0.68,0.58 c 10.82,-0.89 23.71,0.09 35.28,0.08 q 27.7,-0.04 55.36,0.51 l 0.68,0.22 a 0.26,0.27 47 0 1 -0.02,0.51 l -1.59,0.4 -89.96,0.39 a 0.56,0.56 0 0 0 -0.56,0.56 q 0.09,7.74 -1.32,14.38 a 0.3,0.31 12 0 0 0.23,0.37 l 62.88,13.3 a 0.2,0.19 11.6 0 1 0.16,0.23 l -0.05,0.31 a 0.19,0.19 0 0 1 -0.22,0.16 l -62.96,-11.63 a 0.25,0.24 12.3 0 0 -0.27,0.17 l -4.23,14.29 a 0.53,0.52 20.4 0 0 0.3,0.64 l 94.28,40.2 a 0.11,0.12 20.1 0 1 0.06,0.14 0.14,0.14 0 0 1 -0.19,0.16 l -95.44,-38.35 a 0.36,0.36 0 0 0 -0.45,0.17 l -6.99,13.34 a 0.15,0.14 32.6 0 0 0.05,0.19 l 55.83,38.77 a 0.2,0.21 38.4 0 1 0.03,0.31 v 0.01 a 0.08,0.08 0 0 1 -0.11,0.1 l -56.82,-37.21 a 0.43,0.43 0 0 0 -0.56,0.09 l -9.16,11.2 a 0.7,0.71 42.4 0 0 0.04,0.94 l 80.34,81.37 a 0.11,0.12 82.5 0 1 -0.14,0.18 l -0.07,-0.04 a 0.05,0.06 49.7 0 1 -0.07,0 l -81.95,-79.95 a 0.36,0.37 48.1 0 0 -0.49,-0.02 l -11.4,9.45 a 0.34,0.34 0 0 0 -0.07,0.44 l 36.92,57.13 a 0.11,0.1 88.8 0 1 -0.14,0.15 l -0.1,-0.06 a 0.25,0.24 66.6 0 1 -0.23,-0.1 l -38.41,-56 a 0.37,0.37 0 0 0 -0.51,-0.09 q -6.39,4.34 -13.37,7.41 a 0.5,0.49 67.4 0 0 -0.26,0.64 l 38.76,95.97 a 0.17,0.17 0 0 1 -0.11,0.23 0.14,0.14 0 0 1 -0.17,-0.08 l -40.61,-94.82 a 0.65,0.64 69.8 0 0 -0.78,-0.37 l -14.28,4.34 a 0.49,0.5 76.4 0 0 -0.34,0.55 l 10.73,62.15 a 0.2,0.2 0 0 1 -0.16,0.24 h -0.01 a 0.25,0.24 78.9 0 1 -0.28,-0.19 q -1.49,-7.11 -12.48,-60.88 -0.25,-1.22 -1.2,-1.76 a 0.95,0.95 0 0 1 0.29,-1.76 q 21.33,-3.91 38.05,-16.77 11.94,-9.19 20.12,-21.13 c 14.6,-21.31 18.76,-47.83 12.35,-73.2 -6.06,-24.03 -23.53,-44.85 -44.95,-56.44 -30.97,-16.76 -69.67,-13.04 -97.39,8.45 -7.8,6.05 -17.05,15.46 -22.16,24.58 q -8.86,15.83 -11.4,29.98 c -8.81,49.19 23.1,95.19 72.01,104.58 a 0.98,0.98 0 0 1 0.57,1.59 l -1.16,1.42 a 0.61,0.5 76.2 0 0 -0.1,0.21 l -13.71,65.44 a 0.05,0.08 3.6 0 1 -0.04,0.06 q -0.01,0.01 -0.02,0.01 a 0.02,0.02 0 0 1 -0.02,-0.02 l 11.3,-66.67 a 0.54,0.54 0 0 0 -0.38,-0.6 l -14.43,-4.28 a 0.18,0.18 0 0 0 -0.21,0.1 l -40.56,94.4 a 0.22,0.21 22.3 0 1 -0.28,0.11 h -0.01 a 0.14,0.14 0 0 1 -0.09,-0.19 l 38.73,-95.2 a 0.49,0.48 25.7 0 0 -0.22,-0.61 l -13.65,-7.14 a 0.44,0.43 31.1 0 0 -0.57,0.14 l -38.63,56.12 a 0.14,0.14 0 0 1 -0.25,-0.12 q 0.02,-0.07 0.77,-1.24 20.32,-31.94 36.38,-55.96 a 0.46,0.47 36.6 0 0 -0.09,-0.63 l -11.71,-9.58 a 0.21,0.21 0 0 0 -0.28,0.01 l -82.31,80.2 a 0.09,0.09 0 0 1 -0.13,0 l -0.12,-0.12 a 0.07,0.07 0 0 1 0,-0.1 l 80.78,-81.46 a 0.59,0.59 0 0 0 0.03,-0.79 l -9.22,-11.13 a 0.58,0.58 0 0 0 -0.77,-0.12 l -56.6,36.79 a 0.04,0.04 0 0 1 -0.05,-0.01 l -0.19,-0.28 a 0.06,0.06 0 0 1 0.02,-0.08 l 56.06,-38.63 a 0.41,0.41 0 0 0 0.12,-0.55 l -7.48,-12.96 a 0.46,0.46 0 0 0 -0.57,-0.2 l -95.04,37.83 a 0.05,0.05 0 0 1 -0.07,-0.05 l -0.01,-0.14 a 0.04,0.04 0 0 1 0.01,-0.05 l 94.01,-39.81 a 0.83,0.84 69.6 0 0 0.47,-1.01 l -4.09,-13.46 a 0.92,0.91 76.3 0 0 -1.03,-0.63 l -65.95,11.99 a 0.15,0.15 0 0 1 -0.18,-0.15 q 0.01,-0.14 0.24,-0.19 37.91,-8.44 65.77,-13.8 a 0.42,0.43 82.5 0 0 0.35,-0.45 l -1.06,-14.46 a 0.61,0.61 0 0 0 -0.6,-0.57 l -88.81,-0.38 q -0.63,-0.44 -0.32,-0.75 0.47,-0.48 1.31,-0.57 l 88.01,-0.62 a 0.61,0.61 0 0 0 0.6,-0.62 q -0.18,-7.31 1.06,-14 a 0.59,0.6 11.3 0 0 -0.46,-0.7 l -65.88,-13.93 a 0.19,0.19 0 0 1 -0.15,-0.24 v -0.01 a 0.14,0.15 9.1 0 1 0.17,-0.13 l 66.41,11.81 a 0.51,0.51 0 0 0 0.58,-0.36 l 4.16,-14.03 a 0.37,0.37 0 0 0 -0.21,-0.44 l -94.69,-40.31 a 0.02,0.02 0 0 1 -0.01,-0.03 l 0.12,-0.19 a 0.1,0.09 24.9 0 1 0.12,-0.04 l 95.38,38.26 a 0.6,0.6 0 0 0 0.75,-0.28 l 6.87,-13.12 a 0.63,0.64 28.4 0 0 -0.25,-0.85 q -1.08,-0.63 -12.15,-7.88 -6.18,-4.05 -12.06,-8.28 -14.71,-10.57 -31.62,-21.9 a 0.2,0.19 33.7 0 1 -0.06,-0.27 h 0.01 a 0.12,0.12 0 0 1 0.16,-0.04 q 24.26,15.64 41.76,26.68 8.96,5.66 14.87,10.25 a 0.75,0.75 0 0 0 1.04,-0.12 l 8.97,-10.97 a 0.91,0.91 0 0 0 -0.06,-1.22 l -77.83,-78.44 a 0.16,0.16 0 0 1 0,-0.23 l 0.14,-0.12 a 0.06,0.07 42.1 0 1 0.1,-0.01 l 79.42,77.16 a 0.67,0.66 47.4 0 0 0.89,0.04 l 11.29,-9.36 a 0.45,0.45 0 0 0 0.09,-0.61 q -10.53,-15.57 -22.79,-35.08 c -5.15,-8.21 -9.79,-14.65 -14.14,-21.74 q -0.16,-0.26 -0.07,-0.44 a 0.14,0.14 0 0 1 0.24,-0.02 l 38.72,56.2 a 0.42,0.41 57.5 0 0 0.54,0.13 l 13.03,-7.53 a 0.84,0.83 65.1 0 0 0.37,-1.02 q -1.51,-3.98 -5.28,-13.25 -15.81,-38.88 -31.05,-77.6 0.03,0.03 0.04,0.05 5.65,12.11 10.86,24.64 c 9.89,23.81 16.39,38.43 27.63,65.47 a 0.56,0.56 0 0 0 0.68,0.32 l 14.4,-4.38 a 0.64,0.65 76.6 0 0 0.45,-0.72 l -11.58,-65.35 a 0.12,0.12 0 0 1 0.15,-0.13 l 0.51,0.16 a 0.07,0.07 0 0 1 0.05,0.05 l 13.31,64.96 a 0.64,0.64 0 0 0 0.75,0.51 q 6.93,-1.32 14.42,-1.23 a 0.79,0.79 0 0 0 0.8,-0.79 l 0.68,-105.81 a 0.01,0.03 67.5 0 1 0.02,-0.02 l 0.75,-0.43 a 0.12,0.11 73.5 0 1 0.17,0.1 l 0.85,106.07 a 0.49,0.5 2.5 0 0 0.45,0.5 l 14.96,1.59 a 0.56,0.55 8.6 0 0 0.6,-0.44 q 8.38,-40.3 8.67,-41.52 1.05,-4.37 5.09,-23.03 0.08,-0.37 0.06,-0.39 -0.31,-0.5 0.19,-0.29 a 0.26,0.26 0 0 1 0.16,0.29 l -11.73,64.96 a 0.94,0.93 13.5 0 0 0.66,1.06 l 14.4,4.27 a 0.1,0.11 21.3 0 0 0.13,-0.06 l 38.41,-88.93 a 0.14,0.15 28 0 1 0.21,-0.07 l 0.08,0.05 a 0.1,0.1 0 0 1 0.03,0.12 l -36.36,89.4 a 1,1 0 0 0 0.46,1.26 l 13.18,6.9 a 0.4,0.4 0 0 0 0.51,-0.13 l 38.39,-55.77 a 0.06,0.06 0 0 1 0.09,-0.01 l 0.2,0.16 a 0.06,0.06 0 0 1 0.01,0.08 l -36.56,56.76 a 0.83,0.83 0 0 0 0.17,1.09 l 10.99,8.98 a 0.62,0.63 42.5 0 0 0.83,-0.04 l 79.31,-77.37 a 0.17,0.18 48.1 0 1 0.26,0.01 l 0.01,0.01 a 0.18,0.18 0 0 1 -0.01,0.25 l -78.1,78.92 a 0.57,0.57 0 0 0 -0.03,0.77 l 9.23,11.15 a 0.49,0.48 53.4 0 0 0.64,0.1 l 57.21,-37.05 a 0.01,0.01 0 0 1 0.02,0 l 0.17,0.21 a 0.11,0.1 54.1 0 1 -0.02,0.15 l -56.29,38.79 a 0.57,0.57 0 0 0 -0.17,0.75 l 7.19,12.45 a 0.7,0.7 0 0 0 0.86,0.3 z"
       id="path690" />
    <ellipse
       fill="#211d12"
       cx="-15463.047"
       cy="17846.719"
       transform="rotate(-63.4)"
       rx="0.44999999"
       ry="0.2"
       id="ellipse690" />
    <path
       fill="#ecd2a3"
       d="m 9335.45,21917.88 q 0,0.02 -13.06,2.26 -5.4,0.92 -6.46,7.15 -1.7,9.97 -1.79,12 a 0.25,0.25 0 0 1 -0.25,0.24 h -0.01 a 0.28,0.28 0 0 1 -0.28,-0.27 c -0.41,-5.5 -0.96,-11.94 -3.29,-16.31 -1.22,-2.29 -5.47,-3.19 -7.77,-3.49 q -9.67,-1.25 -9.67,-1.57 0,-0.33 9.67,-1.58 c 2.3,-0.3 6.55,-1.2 7.77,-3.49 2.33,-4.37 2.88,-10.81 3.28,-16.31 a 0.28,0.28 0 0 1 0.28,-0.27 h 0.01 a 0.25,0.25 0 0 1 0.25,0.24 q 0.09,2.03 1.8,12 1.06,6.23 6.46,7.15 13.06,2.22 13.06,2.25 z"
       id="path691" />
    <path
       fill="#ecd2a3"
       d="m 8714.42,21909.33 6.67,1.24 a 0.31,0.31 0 0 1 0,0.61 l -6.66,1.27 a 0.31,0.31 0 0 0 -0.25,0.24 l -1.24,6.67 a 0.31,0.31 0 0 1 -0.61,0 l -1.27,-6.66 a 0.31,0.31 0 0 0 -0.24,-0.25 l -6.67,-1.24 a 0.31,0.31 0 0 1 0,-0.61 l 6.66,-1.27 a 0.31,0.31 0 0 0 0.25,-0.24 l 1.24,-6.67 a 0.31,0.31 0 0 1 0.61,0 l 1.27,6.66 a 0.31,0.31 0 0 0 0.24,0.25 z"
       id="path692" />
    <path
       fill="#211d12"
       d="m 9139.47,21919.72 q -0.02,-0.12 -0.04,-0.24 l 1.71,-0.93 a 0.15,0.15 0 0 1 0.18,0.24 q -0.61,0.64 -1.85,0.93 z"
       id="path693" />
    <path
       fill="#ecd2a3"
       d="m 8960.01,22117.05 q -4.06,0 -7.68,-0.04 a 0.58,0.58 0 0 1 -0.57,-0.58 v -126.52 a 0.61,0.61 0 0 0 -0.61,-0.61 h -50.52 a 0.48,0.48 0 0 1 -0.48,-0.48 v -15.52 a 0.61,0.6 0 0 1 0.61,-0.6 h 50.39 a 0.56,0.57 0 0 0 0.56,-0.57 v -48.33 a 0.38,0.38 0 0 1 0.38,-0.38 q 5.64,0.06 7.91,0.06 2.27,0 7.91,-0.06 a 0.38,0.38 0 0 1 0.39,0.38 v 48.33 a 0.56,0.57 0 0 0 0.56,0.57 h 50.39 a 0.61,0.6 0 0 1 0.61,0.6 v 15.52 a 0.48,0.48 0 0 1 -0.48,0.48 h -50.52 a 0.61,0.61 0 0 0 -0.61,0.61 v 126.52 a 0.58,0.58 0 0 1 -0.57,0.58 q -3.61,0.04 -7.67,0.04 z"
       id="path694" />
    <path
       fill="#211d12"
       d="m 9142.77,21993.47 1.59,-0.4 a 0.26,0.27 47 0 0 0.02,-0.51 l -0.68,-0.22 q 9.03,-0.23 18.06,0.04 c 1.58,0.05 3.19,-0.51 4.94,0.07 a 0.28,0.28 0 0 1 -0.08,0.54 z"
       id="path696" />
    <path
       fill="#ecd2a3"
       d="m 8566.45,22044.92 10.74,2.08 a 0.35,0.35 0 0 1 0,0.68 l -10.74,2.08 a 0.35,0.35 0 0 0 -0.28,0.28 l -2.08,10.74 a 0.35,0.35 0 0 1 -0.68,0 l -2.08,-10.74 a 0.35,0.35 0 0 0 -0.28,-0.28 l -10.74,-2.08 a 0.35,0.35 0 0 1 0,-0.68 l 10.74,-2.08 a 0.35,0.35 0 0 0 0.28,-0.28 l 2.08,-10.74 a 0.35,0.35 0 0 1 0.68,0 l 2.08,10.74 a 0.35,0.35 0 0 0 0.28,0.28 z"
       id="path697" />
    <path
       fill="#ecd2a3"
       d="m 9224.28,22067.97 7.03,1.25 a 0.32,0.32 0 0 1 0,0.63 l -7.02,1.31 a 0.32,0.32 0 0 0 -0.26,0.26 l -1.25,7.03 a 0.32,0.32 0 0 1 -0.63,0 l -1.31,-7.02 a 0.32,0.32 0 0 0 -0.26,-0.26 l -7.03,-1.25 a 0.32,0.32 0 0 1 0,-0.63 l 7.02,-1.31 a 0.32,0.32 0 0 0 0.26,-0.26 l 1.25,-7.03 a 0.32,0.32 0 0 1 0.63,0 l 1.31,7.02 a 0.32,0.32 0 0 0 0.26,0.26 z"
       id="path698" />
    <path
       fill="#ecd2a3"
       d="m 8960.05,22125.65 q 0.83,0 0.83,0.9 -0.27,73.82 -0.83,73.82 -0.56,0 -0.83,-73.82 0,-0.9 0.83,-0.9 z"
       id="path699" />
    <path
       fill="#ecd2a3"
       d="m 8990.52,22146.39 q -0.13,-0.15 -0.15,-0.32 a 0.16023827,0.15022338 39.4 0 1 0.31,-0.02 q 0.02,0.14 0,0.29 a 0.09,0.09 0 0 1 -0.16,0.05 z"
       id="path700" />
    <path
       fill="#ecd2a3"
       d="m 8990.9,22147.98 q -0.13,-0.13 -0.13,-0.27 a 0.08014972,0.070131 45.8 0 1 0.15,0.01 q 0.02,0.12 0.01,0.25 a 0.02,0.02 0 0 1 -0.03,0.01 z"
       id="path701" />
    <path
       fill="#211d12"
       d="m 8779.29,21992.16 q -0.84,0.09 -1.31,0.57 -0.31,0.31 0.32,0.75 l -24.39,-0.12 a 0.48,0.48 0 0 1 -0.47,-0.48 v -0.26 a 0.25,0.25 0 0 1 0.25,-0.24 z"
       id="path695"
       style="fill:#ecd2a3;fill-opacity:1" />
    <path
       fill="#ecd2a3"
       d="m 9139.43,21919.48 q 0.02,0.12 0.04,0.24 l -93,38.91 a 0.51,0.52 70.2 0 0 -0.3,0.63 l 4.34,14.28 a 0.44,0.44 0 0 0 0.5,0.31 l 66.62,-11.8 a 0.23,0.19 76 0 1 0.23,0.17 q 0.01,0.03 0.01,0.06 a 0.08,0.11 88.8 0 1 -0.09,0.07 l -66.27,13.93 a 0.27,0.26 82.1 0 0 -0.2,0.27 l 1.07,14.62 a 0.63,0.62 85.1 0 0 0.68,0.58 c 10.82,-0.89 23.71,0.09 35.28,0.08 q 27.7,-0.04 55.36,0.51 l 0.68,0.22 a 0.26,0.27 47 0 1 -0.02,0.51 l -1.59,0.4 -89.96,0.39 a 0.56,0.56 0 0 0 -0.56,0.56 q 0.09,7.74 -1.32,14.38 a 0.3,0.31 12 0 0 0.23,0.37 l 62.88,13.3 a 0.2,0.19 11.6 0 1 0.16,0.23 l -0.05,0.31 a 0.19,0.19 0 0 1 -0.22,0.16 l -62.96,-11.63 a 0.25,0.24 12.3 0 0 -0.27,0.17 l -4.23,14.29 a 0.53,0.52 20.4 0 0 0.3,0.64 l 94.28,40.2 a 0.11,0.12 20.1 0 1 0.06,0.14 0.14,0.14 0 0 1 -0.19,0.16 l -95.44,-38.35 a 0.36,0.36 0 0 0 -0.45,0.17 l -6.99,13.34 a 0.15,0.14 32.6 0 0 0.05,0.19 l 55.83,38.77 a 0.2,0.21 38.4 0 1 0.03,0.31 v 0.01 a 0.08,0.08 0 0 1 -0.11,0.1 l -56.82,-37.21 a 0.43,0.43 0 0 0 -0.56,0.09 l -9.16,11.2 a 0.7,0.71 42.4 0 0 0.04,0.94 l 80.34,81.37 a 0.11,0.12 82.5 0 1 -0.14,0.18 l -0.07,-0.04 a 0.05,0.06 49.7 0 1 -0.07,0 l -81.95,-79.95 a 0.36,0.37 48.1 0 0 -0.49,-0.02 l -11.4,9.45 a 0.34,0.34 0 0 0 -0.07,0.44 l 36.92,57.13 a 0.11,0.1 88.8 0 1 -0.14,0.15 l -0.1,-0.06 a 0.25,0.24 66.6 0 1 -0.23,-0.1 l -38.41,-56 a 0.37,0.37 0 0 0 -0.51,-0.09 q -6.39,4.34 -13.37,7.41 a 0.5,0.49 67.4 0 0 -0.26,0.64 l 38.76,95.97 a 0.17,0.17 0 0 1 -0.11,0.23 0.14,0.14 0 0 1 -0.17,-0.08 l -40.61,-94.82 a 0.65,0.64 69.8 0 0 -0.78,-0.37 l -14.28,4.34 a 0.49,0.5 76.4 0 0 -0.34,0.55 l 10.73,62.15 a 0.2,0.2 0 0 1 -0.16,0.24 h -0.01 a 0.25,0.24 78.9 0 1 -0.28,-0.19 q -1.49,-7.11 -12.48,-60.88 -0.25,-1.22 -1.2,-1.76 a 0.95,0.95 0 0 1 0.29,-1.76 q 21.33,-3.91 38.05,-16.77 11.94,-9.19 20.12,-21.13 c 14.6,-21.31 18.76,-47.83 12.35,-73.2 -6.06,-24.03 -23.53,-44.85 -44.95,-56.44 -30.97,-16.76 -69.67,-13.04 -97.39,8.45 -7.8,6.05 -17.05,15.46 -22.16,24.58 q -8.86,15.83 -11.4,29.98 c -8.81,49.19 23.1,95.19 72.01,104.58 a 0.98,0.98 0 0 1 0.57,1.59 l -1.16,1.42 a 0.61,0.5 76.2 0 0 -0.1,0.21 l -13.71,65.44 a 0.05,0.08 3.6 0 1 -0.04,0.06 q -0.01,0.01 -0.02,0.01 a 0.02,0.02 0 0 1 -0.02,-0.02 l 11.3,-66.67 a 0.54,0.54 0 0 0 -0.38,-0.6 l -14.43,-4.28 a 0.18,0.18 0 0 0 -0.21,0.1 l -40.56,94.4 a 0.22,0.21 22.3 0 1 -0.28,0.11 h -0.01 a 0.14,0.14 0 0 1 -0.09,-0.19 l 38.73,-95.2 a 0.49,0.48 25.7 0 0 -0.22,-0.61 l -13.65,-7.14 a 0.44,0.43 31.1 0 0 -0.57,0.14 l -38.63,56.12 a 0.14,0.14 0 0 1 -0.25,-0.12 q 0.02,-0.07 0.77,-1.24 20.32,-31.94 36.38,-55.96 a 0.46,0.47 36.6 0 0 -0.09,-0.63 l -11.71,-9.58 a 0.21,0.21 0 0 0 -0.28,0.01 l -82.31,80.2 a 0.09,0.09 0 0 1 -0.13,0 l -0.12,-0.12 a 0.07,0.07 0 0 1 0,-0.1 l 80.78,-81.46 a 0.59,0.59 0 0 0 0.03,-0.79 l -9.22,-11.13 a 0.58,0.58 0 0 0 -0.77,-0.12 l -56.6,36.79 a 0.04,0.04 0 0 1 -0.05,-0.01 l -0.19,-0.28 a 0.06,0.06 0 0 1 0.02,-0.08 l 56.06,-38.63 a 0.41,0.41 0 0 0 0.12,-0.55 l -7.48,-12.96 a 0.46,0.46 0 0 0 -0.57,-0.2 l -95.04,37.83 a 0.05,0.05 0 0 1 -0.07,-0.05 l -0.01,-0.14 a 0.04,0.04 0 0 1 0.01,-0.05 l 94.01,-39.81 a 0.83,0.84 69.6 0 0 0.47,-1.01 l -4.09,-13.46 a 0.92,0.91 76.3 0 0 -1.03,-0.63 l -65.95,11.99 a 0.15,0.15 0 0 1 -0.18,-0.15 q 0.01,-0.14 0.24,-0.19 37.91,-8.44 65.77,-13.8 a 0.42,0.43 82.5 0 0 0.35,-0.45 l -1.06,-14.46 a 0.61,0.61 0 0 0 -0.6,-0.57 l -88.81,-0.38 q -0.63,-0.44 -0.32,-0.75 0.47,-0.48 1.31,-0.57 l 88.01,-0.62 a 0.61,0.61 0 0 0 0.6,-0.62 q -0.18,-7.31 1.06,-14 a 0.59,0.6 11.3 0 0 -0.46,-0.7 l -65.88,-13.93 a 0.19,0.19 0 0 1 -0.15,-0.24 v -0.01 a 0.14,0.15 9.1 0 1 0.17,-0.13 l 66.41,11.81 a 0.51,0.51 0 0 0 0.58,-0.36 l 4.16,-14.03 a 0.37,0.37 0 0 0 -0.21,-0.44 l -94.69,-40.31 a 0.02,0.02 0 0 1 -0.01,-0.03 l 0.12,-0.19 a 0.1,0.09 24.9 0 1 0.12,-0.04 l 95.38,38.26 a 0.6,0.6 0 0 0 0.75,-0.28 l 6.87,-13.12 a 0.63,0.64 28.4 0 0 -0.25,-0.85 q -1.08,-0.63 -12.15,-7.88 -6.18,-4.05 -12.06,-8.28 -14.71,-10.57 -31.62,-21.9 a 0.2,0.19 33.7 0 1 -0.06,-0.27 h 0.01 a 0.12,0.12 0 0 1 0.16,-0.04 q 24.26,15.64 41.76,26.68 8.96,5.66 14.87,10.25 a 0.75,0.75 0 0 0 1.04,-0.12 l 8.97,-10.97 a 0.91,0.91 0 0 0 -0.06,-1.22 l -77.83,-78.44 a 0.16,0.16 0 0 1 0,-0.23 l 0.14,-0.12 a 0.06,0.07 42.1 0 1 0.1,-0.01 l 79.42,77.16 a 0.67,0.66 47.4 0 0 0.89,0.04 l 11.29,-9.36 a 0.45,0.45 0 0 0 0.09,-0.61 q -10.53,-15.57 -22.79,-35.08 c -5.15,-8.21 -9.79,-14.65 -14.14,-21.74 q -0.16,-0.26 -0.07,-0.44 a 0.14,0.14 0 0 1 0.24,-0.02 l 38.72,56.2 a 0.42,0.41 57.5 0 0 0.54,0.13 l 13.03,-7.53 a 0.84,0.83 65.1 0 0 0.37,-1.02 q -1.51,-3.98 -5.28,-13.25 -15.81,-38.88 -31.05,-77.6 0.03,0.03 0.04,0.05 5.65,12.11 10.86,24.64 c 9.89,23.81 16.39,38.43 27.63,65.47 a 0.56,0.56 0 0 0 0.68,0.32 l 14.4,-4.38 a 0.64,0.65 76.6 0 0 0.45,-0.72 l -11.58,-65.35 a 0.12,0.12 0 0 1 0.15,-0.13 l 0.51,0.16 a 0.07,0.07 0 0 1 0.05,0.05 l 13.31,64.96 a 0.64,0.64 0 0 0 0.75,0.51 q 6.93,-1.32 14.42,-1.23 a 0.79,0.79 0 0 0 0.8,-0.79 l 0.68,-105.81 a 0.01,0.03 67.5 0 1 0.02,-0.02 l 0.75,-0.43 a 0.12,0.11 73.5 0 1 0.17,0.1 l 0.85,106.07 a 0.49,0.5 2.5 0 0 0.45,0.5 l 14.96,1.59 a 0.56,0.55 8.6 0 0 0.6,-0.44 q 8.38,-40.3 8.67,-41.52 1.05,-4.37 5.09,-23.03 0.08,-0.37 0.06,-0.39 -0.31,-0.5 0.19,-0.29 a 0.26,0.26 0 0 1 0.16,0.29 l -11.73,64.96 a 0.94,0.93 13.5 0 0 0.66,1.06 l 14.4,4.27 a 0.1,0.11 21.3 0 0 0.13,-0.06 l 38.41,-88.93 a 0.14,0.15 28 0 1 0.21,-0.07 l 0.08,0.05 a 0.1,0.1 0 0 1 0.03,0.12 l -36.36,89.4 a 1,1 0 0 0 0.46,1.26 l 13.18,6.9 a 0.4,0.4 0 0 0 0.51,-0.13 l 38.39,-55.77 a 0.06,0.06 0 0 1 0.09,-0.01 l 0.2,0.16 a 0.06,0.06 0 0 1 0.01,0.08 l -36.56,56.76 a 0.83,0.83 0 0 0 0.17,1.09 l 10.99,8.98 a 0.62,0.63 42.5 0 0 0.83,-0.04 l 79.31,-77.37 a 0.17,0.18 48.1 0 1 0.26,0.01 l 0.01,0.01 a 0.18,0.18 0 0 1 -0.01,0.25 l -78.1,78.92 a 0.57,0.57 0 0 0 -0.03,0.77 l 9.23,11.15 a 0.49,0.48 53.4 0 0 0.64,0.1 l 57.21,-37.05 a 0.01,0.01 0 0 1 0.02,0 l 0.17,0.21 a 0.11,0.1 54.1 0 1 -0.02,0.15 l -56.29,38.79 a 0.57,0.57 0 0 0 -0.17,0.75 l 7.19,12.45 a 0.7,0.7 0 0 0 0.86,0.3 z"
       id="path810"
       style="fill:#ecd2a3;fill-opacity:1" />
    <path
       fill="#211d12"
       d="m 9142.77,21993.47 1.59,-0.4 a 0.26,0.27 47 0 0 0.02,-0.51 l -0.68,-0.22 q 9.03,-0.23 18.06,0.04 c 1.58,0.05 3.19,-0.51 4.94,0.07 a 0.28,0.28 0 0 1 -0.08,0.54 z"
       id="path811"
       style="fill:#ecd2a3;fill-opacity:1" />
  </g>
</svg>
