<svg xmlns="http://www.w3.org/2000/svg" direction="ltr" width="1024" height="1024" viewBox="9504 11043 1024 1024" stroke-linecap="round" stroke-linejoin="round" data-color-mode="light" class="tl-container tl-theme__force-sRGB tl-theme__light" style="background-color: transparent;"><defs/><g transform="matrix(1, 0, 0, 1, 9504, 11043)" opacity="1"><g data-lovart-layer-name="SVG 2"><g transform="scale(1, 1)"><g>
<g xmlns="http://www.w3.org/2000/svg" stroke-width="2.00" fill="none" stroke-linecap="butt">
<path stroke="#766a53" d="M 558.45 365.46   Q 555.59 355.96 549.02 345.27   A 1.00 1.00 0.0 0 0 547.17 345.85   C 547.85 357.04 551.61 368.05 558.02 377.31   A 2.19 2.17 44.8 0 1 558.04 379.77   Q 551.16 389.97 542.26 400.10   A 0.22 0.22 0.0 0 1 541.87 399.95   Q 541.97 390.62 541.87 298.36   C 541.87 292.20 542.20 285.03 543.49 279.05   C 545.33 270.48 550.74 267.80 558.76 267.28   A 0.68 0.68 0.0 0 0 559.40 266.60   L 559.40 263.66   A 0.66 0.65 -0.0 0 0 558.74 263.01   Q 540.19 262.95 511.24 262.96   Q 493.70 262.96 486.24 264.59   C 449.40 272.68 420.47 306.25 432.24 345.35   C 438.88 367.44 459.73 379.10 482.52 378.25   A 0.16 0.16 0.0 0 0 482.67 378.09   L 482.67 375.45   A 0.40 0.39 -87.7 0 0 482.31 375.05   C 471.42 373.97 460.47 365.46 455.35 355.90   C 447.90 341.95 447.70 325.33 451.52 310.24   C 457.32 287.36 477.21 268.49 501.74 268.14   C 511.66 268.00 515.83 273.33 516.88 283.07   Q 517.72 290.90 517.73 294.25   Q 517.76 316.88 517.71 425.42   A 2.47 2.47 0.0 0 1 517.13 427.01   L 500.10 447.14   A 0.22 0.22 0.0 0 1 499.72 446.94   C 503.29 433.54 503.20 420.55 502.23 406.82   A 5.40 5.39 -35.0 0 1 502.68 404.27   C 508.36 391.68 511.30 380.50 509.66 366.97   A 0.92 0.91 56.9 0 0 507.97 366.61   Q 502.61 375.58 501.10 385.05   A 0.29 0.29 0.0 0 1 500.54 385.11   Q 500.19 384.13 500.12 382.62   Q 499.47 369.34 499.55 356.53   A 0.74 0.74 0.0 0 0 498.69 355.79   L 498.58 355.81   A 1.07 1.06 -3.7 0 0 497.68 356.82   Q 496.97 379.04 499.03 401.51   C 499.65 408.31 499.98 416.19 500.12 420.52   A 0.20 0.20 0.0 0 1 499.73 420.58   C 496.85 409.74 492.34 399.36 485.53 390.80   Q 484.80 389.88 483.94 389.62   A 0.69 0.69 0.0 0 0 483.05 390.32   C 483.95 404.05 489.40 416.70 497.11 428.06   C 498.15 429.60 498.96 431.34 498.86 433.03   Q 498.25 442.52 494.04 452.63   C 492.22 456.99 490.24 459.75 487.53 463.52   Q 475.75 479.88 467.14 497.38   C 463.91 503.93 460.86 510.27 459.41 516.12   A 0.91 0.90 17.1 0 0 459.98 517.19   L 461.43 517.73   A 0.93 0.93 0.0 0 0 462.62 517.18   Q 470.83 495.15 484.31 475.24   C 485.17 473.98 486.33 472.19 487.77 472.08   Q 502.93 470.92 517.14 466.29   A 0.45 0.45 0.0 0 1 517.73 466.75   C 516.29 486.80 508.84 507.27 491.98 518.91   C 475.41 530.34 451.32 530.23 433.11 522.68   Q 410.36 513.26 400.84 490.73   C 393.03 472.24 395.25 450.09 408.21 434.78   C 418.04 423.19 433.49 416.98 448.59 420.39   Q 465.46 424.20 472.23 440.00   Q 475.77 448.28 474.25 456.74   A 0.35 0.35 0.0 0 0 474.79 457.09   C 481.41 452.62 483.06 442.95 482.28 435.47   C 481.03 423.37 472.30 413.21 461.28 408.44   C 434.46 396.82 406.66 413.09 395.72 438.06   C 387.54 456.75 388.46 480.01 398.19 498.24   Q 412.29 524.63 443.25 531.78   C 465.59 536.93 492.84 533.35 511.51 519.48   Q 526.17 508.59 533.47 492.68   Q 541.83 474.46 541.89 454.50   Q 541.95 432.94 541.91 422.36   A 0.86 0.86 0.0 0 1 542.58 421.52   L 549.04 419.97   A 1.21 1.21 0.0 0 1 550.24 420.36   C 557.35 428.77 565.17 435.89 575.57 439.42   Q 576.38 439.70 577.06 439.74   A 0.77 0.77 0.0 0 0 577.81 438.64   C 574.12 430.68 564.38 423.75 556.46 420.06   A 0.34 0.34 0.0 0 1 556.61 419.41   Q 565.14 419.47 573.00 419.98   C 580.57 420.46 589.11 421.01 594.74 418.44   A 1.17 0.99 -24.8 0 0 595.39 417.04   Q 595.17 416.57 594.76 416.64   Q 586.04 418.16 577.25 417.57   C 565.83 416.80 557.86 415.72 548.76 417.00   C 538.76 418.42 529.71 423.66 522.96 431.10   C 519.69 434.70 517.81 436.59 517.85 441.12   Q 517.93 449.79 517.75 455.31   A 0.86 0.85 85.7 0 1 517.07 456.11   Q 503.04 458.86 491.34 465.58   A 0.14 0.14 0.0 0 1 491.15 465.38   C 506.99 443.23 522.54 427.06 544.69 402.96   Q 558.67 387.75 581.36 382.15   A 1.28 1.24 -32.4 0 1 582.42 382.37   Q 598.95 395.03 619.77 398.17   Q 622.28 398.55 624.07 398.34   A 0.83 0.83 0.0 0 0 624.52 396.89   Q 608.75 383.20 588.90 380.24   A 0.28 0.28 0.0 0 1 588.86 379.69   L 602.47 375.44   A 1.85 1.77 -50.9 0 1 603.12 375.36   Q 619.79 376.42 633.48 366.13   A 0.73 0.73 0.0 0 0 633.13 364.82   C 621.54 363.37 612.08 365.90 602.65 372.22   A 12.27 12.18 -70.2 0 1 599.52 373.71   L 592.14 376.01   A 0.13 0.13 0.0 0 1 592.03 375.78   C 600.71 369.54 610.38 360.49 614.36 350.74   A 0.80 0.80 0.0 0 0 613.46 349.66   Q 613.06 349.74 613.03 349.75   Q 599.68 356.74 589.37 368.72   C 587.03 371.45 584.89 375.35 583.23 377.97   A 2.58 2.58 0.0 0 1 581.69 379.08   C 572.54 381.38 563.02 384.99 554.92 390.29   A 0.07 0.07 0.0 0 1 554.83 390.19   Q 556.50 387.59 557.74 385.98   Q 574.30 364.60 585.73 342.54   C 587.50 339.13 589.02 335.03 590.77 332.78   A 1.64 1.61 10.2 0 1 591.56 332.24   Q 601.88 328.91 609.05 326.29   Q 623.33 321.08 633.97 310.65   A 0.78 0.78 0.0 0 0 633.43 309.31   Q 629.38 309.27 625.42 310.41   Q 609.54 315.00 596.45 324.46   Q 595.70 325.00 593.90 326.81   A 0.22 0.22 0.0 0 1 593.53 326.58   L 598.73 312.48   A 3.24 3.24 0.0 0 1 600.15 310.81   C 610.98 304.65 619.54 295.98 625.06 284.59   Q 626.16 282.32 626.65 279.89   A 0.24 0.19 39.0 0 0 626.62 279.75   L 626.49 279.53   A 0.57 0.56 60.5 0 0 625.72 279.31   Q 615.95 284.65 608.72 293.47   Q 606.33 296.39 601.87 302.46   A 0.07 0.07 0.0 0 1 601.75 302.40   L 606.85 282.79   A 2.64 2.57 68.1 0 1 607.12 282.13   C 608.90 278.83 611.29 275.52 612.55 272.06   Q 616.70 260.62 615.54 248.35   A 0.49 0.49 0.0 0 0 614.74 248.02   Q 613.01 249.46 611.65 251.67   Q 605.24 262.06 604.91 274.55   Q 604.69 282.72 603.95 285.95   Q 603.65 287.25 599.89 301.21   A 0.18 0.18 0.0 0 1 599.54 301.16   Q 600.13 287.62 597.26 274.49   Q 596.23 269.77 594.07 265.05   A 0.87 0.87 0.0 0 0 592.47 265.07   Q 592.16 265.82 591.92 267.19   Q 587.94 289.50 596.06 310.53   A 1.75 1.73 43.2 0 1 596.10 311.62   Q 593.23 321.16 588.04 331.23   A 0.20 0.19 -33.6 0 1 587.67 331.16   C 586.66 314.48 582.85 299.31 574.11 285.00   A 0.98 0.97 39.6 0 0 572.37 285.16   Q 572.26 285.44 572.29 286.50   Q 572.88 308.73 582.46 328.91   C 583.38 330.87 584.51 333.76 585.18 335.63   A 1.74 1.72 -43.5 0 1 585.14 336.90   Q 582.34 343.39 578.43 349.94   Q 570.48 363.28 561.54 375.52   A 0.29 0.29 0.0 0 1 561.01 375.32   Q 562.05 365.91 560.30 355.93   Q 557.59 340.51 556.35 325.70   Q 556.28 324.79 554.94 324.86   A 0.53 0.53 0.0 0 0 554.44 325.43   C 555.18 336.71 556.77 346.70 558.60 358.35   Q 559.31 362.90 559.17 365.38   A 0.37 0.37 0.0 0 1 558.45 365.46"/>
<path stroke="#766a53" d="M 580.85 338.43   A 9.10 9.10 0.0 0 0 571.75 329.33   A 9.10 9.10 0.0 0 0 562.65 338.43   A 9.10 9.10 0.0 0 0 571.75 347.53   A 9.10 9.10 0.0 0 0 580.85 338.43"/>
<path stroke="#766a53" d="M 606.3477 339.1494   A 8.88 8.73 -26.2 0 0 594.5257 335.2369   A 8.88 8.73 -26.2 0 0 590.4123 346.9906   A 8.88 8.73 -26.2 0 0 602.2343 350.9031   A 8.88 8.73 -26.2 0 0 606.3477 339.1494"/>
<path stroke="#766a53" d="M 581.82 399.66   A 10.80 10.80 0.0 0 0 571.02 388.86   A 10.80 10.80 0.0 0 0 560.22 399.66   A 10.80 10.80 0.0 0 0 571.02 410.46   A 10.80 10.80 0.0 0 0 581.82 399.66"/>
<path stroke="#766a53" d="M 488.84 580.31   L 476.63 580.31   A 0.27 0.27 0.0 0 0 476.51 580.82   Q 481.02 583.18 481.49 588.47   Q 481.84 592.31 481.85 603.84   Q 481.86 624.35 481.85 641.00   A 0.35 0.34 -63.6 0 1 481.23 641.21   Q 454.08 605.68 435.87 581.39   C 427.80 570.63 417.80 563.82 403.76 563.72   Q 399.11 563.69 394.70 565.75   A 0.42 0.42 0.0 0 0 394.98 566.53   Q 406.43 563.74 416.21 569.72   Q 421.02 572.66 427.92 581.55   A 5.34 5.32 -66.2 0 1 429.03 584.43   Q 429.41 589.41 429.41 591.50   Q 429.36 632.26 429.31 637.00   C 429.25 642.90 428.99 647.36 423.82 650.88   A 0.16 0.16 0.0 0 0 423.91 651.17   L 436.18 651.17   A 0.22 0.22 0.0 0 0 436.30 650.76   Q 431.08 647.33 431.04 640.48   Q 430.98 632.15 431.08 586.57   A 0.20 0.20 0.0 0 1 431.44 586.45   Q 442.54 601.12 473.35 641.89   Q 478.08 648.16 482.27 653.20   C 491.78 664.66 505.88 670.97 520.66 667.48   A 0.25 0.25 0.0 0 0 520.61 666.98   C 517.99 666.92 513.63 667.11 510.49 666.49   C 499.25 664.26 489.67 654.28 483.90 644.96   A 2.52 2.51 -61.0 0 1 483.52 643.63   Q 483.51 599.74 483.58 592.01   C 483.61 588.47 484.17 583.77 487.14 581.73   C 487.84 581.25 488.35 581.25 488.99 580.72   A 0.23 0.23 0.0 0 0 488.84 580.31"/>
<path stroke="#766a53" d="M 732.82 664.32   Q 718.93 666.04 708.56 656.37   C 696.62 645.24 690.68 630.48 678.53 620.62   A 0.29 0.29 0.0 0 1 678.64 620.11   Q 685.25 618.27 687.30 617.32   Q 698.92 611.89 699.39 599.92   C 699.92 586.44 687.72 579.65 675.99 579.64   Q 663.48 579.63 649.23 579.87   A 0.20 0.20 0.0 0 0 649.14 580.25   Q 653.37 582.21 653.45 586.78   Q 653.87 612.65 653.47 640.94   C 653.42 644.98 652.97 647.99 649.62 650.14   A 0.26 0.25 -61.0 0 0 649.75 650.61   L 664.18 650.61   A 0.30 0.30 0.0 0 0 664.32 650.05   C 660.97 648.16 660.42 645.39 660.42 641.49   Q 660.40 588.89 660.40 588.83   C 660.49 584.35 660.97 581.34 665.75 581.14   C 670.24 580.96 676.81 580.57 681.02 582.06   Q 691.91 585.90 692.54 598.52   C 693.14 610.70 685.30 618.00 673.64 618.99   Q 669.94 619.30 665.52 619.24   A 0.17 0.17 0.0 0 0 665.35 619.41   L 665.35 619.66   A 0.35 0.35 0.0 0 0 665.72 620.01   Q 670.77 619.78 674.28 622.69   Q 678.95 626.56 682.58 632.16   C 688.88 641.89 694.47 651.87 701.93 658.01   Q 712.63 666.80 727.44 666.13   Q 730.36 666.00 732.96 664.83   A 0.27 0.27 0.0 0 0 732.82 664.32"/>
<path stroke="#766a53" d="M 338.70 580.27   A 0.26 0.26 0.0 0 0 338.62 579.76   L 322.60 579.76   A 0.27 0.26 55.4 0 0 322.51 580.27   C 326.61 581.88 327.07 585.75 327.13 590.03   Q 327.27 601.04 327.12 632.76   Q 327.10 636.68 325.52 645.17   Q 322.46 661.56 307.14 666.44   A 0.25 0.25 0.0 0 0 307.18 666.92   Q 308.57 667.11 310.08 666.75   C 328.12 662.47 333.88 646.07 333.86 629.24   Q 333.82 601.79 333.96 587.26   Q 334.02 581.77 338.70 580.27"/>
<path stroke="#766a53" d="M 402.35 580.90   C 405.74 581.59 407.46 586.54 407.59 589.02   Q 407.91 595.69 407.79 617.79   C 407.72 630.89 406.32 644.64 393.11 649.37   Q 383.34 652.86 373.98 648.69   C 364.15 644.30 360.84 632.23 360.67 622.00   Q 360.49 611.44 360.62 595.26   C 360.65 591.44 360.36 587.03 361.45 583.71   Q 362.20 581.46 365.12 580.24   A 0.25 0.25 0.0 0 0 365.03 579.76   L 349.52 579.76   A 0.29 0.29 0.0 0 0 349.42 580.33   Q 353.55 581.84 353.66 586.58   Q 353.87 594.91 353.74 615.29   C 353.63 632.65 356.81 648.20 376.81 651.99   C 392.24 654.90 405.08 647.77 408.39 632.09   Q 409.47 626.99 409.45 619.25   Q 409.37 594.35 409.47 591.25   C 409.61 586.71 410.21 582.78 414.35 580.78   A 0.30 0.29 32.1 0 0 414.22 580.22   L 402.42 580.22   A 0.34 0.34 0.0 0 0 402.35 580.90"/>
<path stroke="#766a53" d="M 600.76 613.51   L 600.76 582.16   A 0.72 0.72 0.0 0 1 601.47 581.44   Q 619.00 581.33 621.76 581.57   C 627.93 582.10 633.75 584.98 636.00 591.25   A 0.33 0.33 0.0 0 0 636.38 591.46   L 636.65 591.39   A 0.10 0.09 78.1 0 0 636.72 591.27   L 634.24 580.90   A 1.10 1.09 -6.6 0 0 633.17 580.06   L 590.14 580.06   A 0.31 0.30 55.8 0 0 590.03 580.65   Q 593.70 582.14 593.92 586.33   Q 594.35 594.47 594.11 616.10   A 0.89 0.87 77.1 0 1 593.64 616.87   C 586.03 620.97 581.24 627.68 581.15 636.49   A 0.43 0.43 0.0 0 0 581.56 636.93   L 581.58 636.93   A 0.49 0.49 0.0 0 0 582.09 636.49   C 582.86 628.19 586.97 624.01 593.60 619.04   A 0.35 0.35 0.0 0 1 594.16 619.32   Q 594.15 631.76 594.02 643.50   Q 593.97 648.35 590.02 650.50   A 0.19 0.19 0.0 0 0 590.11 650.86   L 636.55 650.86   A 0.99 0.99 0.0 0 0 637.51 650.11   L 640.68 637.95   A 0.23 0.23 0.0 0 0 640.29 637.73   C 639.42 638.63 638.88 640.21 638.03 641.30   C 633.44 647.20 625.80 649.55 618.01 649.59   Q 609.55 649.63 603.04 649.68   Q 600.75 649.70 600.77 647.03   Q 600.83 639.50 600.74 616.77   A 1.35 1.35 0.0 0 1 601.77 615.46   Q 610.06 613.47 616.48 614.49   C 620.74 615.17 623.22 616.64 624.48 620.81   A 0.39 0.39 0.0 0 0 625.24 620.70   L 625.24 605.17   A 0.33 0.33 0.0 0 0 624.59 605.07   Q 622.45 611.82 615.17 612.22   Q 606.60 612.70 601.47 614.06   A 0.57 0.56 82.6 0 1 600.76 613.51"/>
<path stroke="#766a53" d="M 505.77 615.85   Q 505.77 640.75 505.79 643.00   Q 505.84 648.41 501.33 650.91   A 0.21 0.21 0.0 0 0 501.43 651.30   Q 505.95 651.32 509.20 651.32   Q 512.46 651.32 516.98 651.30   A 0.21 0.21 0.0 0 0 517.08 650.91   Q 512.57 648.41 512.61 642.99   Q 512.63 640.75 512.63 615.85   Q 512.63 590.96 512.61 588.71   Q 512.56 583.29 517.07 580.79   A 0.21 0.21 0.0 0 0 516.97 580.40   Q 512.45 580.38 509.19 580.38   Q 505.94 580.38 501.42 580.41   A 0.21 0.21 0.0 0 0 501.32 580.79   Q 505.83 583.29 505.79 588.71   Q 505.76 590.96 505.77 615.85"/>
<path stroke="#766a53" d="M 530.46 580.77   C 534.47 583.10 534.90 586.55 534.92 591.26   Q 535.00 616.83 534.78 642.75   Q 534.73 648.47 530.70 650.86   A 0.23 0.23 0.0 0 0 530.82 651.28   L 545.13 651.28   A 0.43 0.43 0.0 0 0 545.33 650.47   C 542.92 649.25 541.95 647.63 541.63 644.81   Q 540.87 638.27 542.16 632.04   A 4.47 4.44 -24.6 0 1 542.63 630.79   Q 546.80 623.30 555.06 621.69   Q 564.67 619.81 569.09 618.35   C 580.25 614.66 585.56 603.28 580.92 592.38   C 576.55 582.10 564.60 580.01 554.25 580.20   Q 540.99 580.45 530.56 580.39   A 0.20 0.20 0.0 0 0 530.46 580.77"/>
<path stroke="#766a53" d="M 621.40 712.18   L 593.28 712.18   A 0.75 0.75 0.0 0 0 592.53 712.93   L 592.53 713.20   A 0.48 0.47 90.0 0 0 593.00 713.68   L 610.62 713.68   A 0.36 0.35 0.8 0 1 610.98 714.04   C 610.91 723.83 611.05 732.59 603.87 739.64   Q 598.25 745.17 591.37 746.60   Q 573.57 750.32 562.62 735.56   C 548.74 716.83 555.40 676.31 584.38 676.59   C 595.30 676.70 603.30 682.31 607.78 692.09   A 0.13 0.13 0.0 0 0 608.00 692.13   L 613.82 686.32   A 0.24 0.24 0.0 0 0 613.83 685.99   Q 611.57 683.50 608.58 681.70   C 588.85 669.80 561.54 673.84 551.45 696.41   C 546.69 707.07 546.99 722.05 552.84 732.24   Q 560.55 745.66 577.32 748.21   Q 597.87 751.34 611.80 736.10   A 0.79 0.78 -36.1 0 1 613.09 736.30   Q 615.26 741.04 615.71 747.19   A 0.28 0.27 -2.2 0 0 615.99 747.44   L 616.29 747.44   A 0.53 0.53 0.0 0 0 616.82 746.93   Q 617.37 732.23 617.45 719.98   Q 617.49 714.71 621.52 712.72   A 0.28 0.28 0.0 0 0 621.40 712.18"/>
<path stroke="#766a53" d="M 432.33 677.11   A 0.26 0.26 0.0 0 0 432.25 676.60   L 416.19 676.60   A 0.27 0.26 55.4 0 0 416.10 677.11   C 420.21 678.72 420.67 682.60 420.73 686.89   Q 420.87 697.92 420.72 729.70   Q 420.70 733.63 419.12 742.14   Q 416.05 758.56 400.70 763.45   A 0.25 0.25 0.0 0 0 400.74 763.93   Q 402.13 764.12 403.65 763.76   C 421.72 759.47 427.49 743.04 427.47 726.18   Q 427.44 698.67 427.58 684.12   Q 427.64 678.61 432.33 677.11"/>
<path stroke="#766a53" d="M 453.00 747.74   Q 456.60 747.75 460.50 747.78   A 0.24 0.23 -32.2 0 0 460.60 747.33   C 456.98 745.68 456.42 741.64 456.42 737.75   Q 456.38 713.70 456.48 689.25   C 456.50 684.77 456.09 678.41 461.10 677.26   A 0.30 0.30 0.0 0 0 461.05 676.66   Q 460.52 676.63 453.10 676.62   Q 445.68 676.61 445.15 676.64   A 0.30 0.30 0.0 0 0 445.09 677.24   C 450.10 678.40 449.67 684.76 449.68 689.24   Q 449.71 713.69 449.61 737.74   C 449.60 741.63 449.03 745.67 445.40 747.31   A 0.24 0.23 32.3 0 0 445.51 747.76   Q 449.40 747.74 453.00 747.74"/>
<path stroke="#766a53" d="M 485.87 747.39   Q 480.95 743.97 480.92 736.25   Q 480.91 734.50 480.92 683.45   A 0.20 0.20 0.0 0 1 481.28 683.33   Q 517.33 731.77 519.43 734.61   Q 529.12 747.77 533.03 752.01   Q 547.70 767.92 569.68 763.87   A 0.14 0.13 85.2 0 0 569.79 763.73   L 569.79 763.48   A 0.43 0.43 0.0 0 0 569.30 763.05   Q 554.48 765.11 543.79 754.98   Q 537.00 748.55 532.78 741.50   A 1.78 1.74 -60.7 0 1 532.54 740.61   Q 532.46 710.83 532.95 686.76   C 533.03 682.95 534.26 678.28 538.36 677.17   A 0.29 0.29 0.0 0 0 538.28 676.60   L 525.89 676.60   A 0.26 0.25 -33.5 0 0 525.79 677.09   C 530.92 679.27 531.05 685.05 530.97 690.00   Q 530.91 694.14 530.92 738.10   A 0.26 0.26 0.0 0 1 530.45 738.25   L 485.20 677.11   A 1.25 1.23 -18.0 0 0 484.20 676.61   L 474.30 676.61   A 0.24 0.24 0.0 0 0 474.20 677.07   Q 479.24 679.31 479.24 685.50   Q 479.25 707.55 478.92 737.77   Q 478.84 744.23 474.07 747.40   A 0.31 0.31 0.0 0 0 474.24 747.97   L 485.69 747.97   A 0.32 0.32 0.0 0 0 485.87 747.39"/>
<path stroke="#766a53" d="M 608.26 265.15   Q 606.88 270.46 606.68 276.00   Q 606.60 277.98 606.91 278.06   Q 607.21 278.13 608.11 276.37   Q 610.64 271.44 612.02 266.13   Q 613.40 260.82 613.60 255.28   Q 613.67 253.30 613.37 253.22   Q 613.07 253.14 612.16 254.91   Q 609.64 259.84 608.26 265.15"/>
<path stroke="#766a53" d="M 597.17 288.04   Q 596.36 278.62 593.94 270.40   A 0.20 0.20 0.0 0 0 593.55 270.43   Q 592.41 279.45 593.18 288.38   Q 593.95 297.31 596.61 306.00   A 0.20 0.20 0.0 0 0 597.00 305.97   Q 597.98 297.45 597.17 288.04"/>
<path stroke="#766a53" d="M 611.06 294.37   Q 605.12 300.96 601.68 306.67   A 0.26 0.26 0.0 0 0 602.04 307.03   Q 609.04 302.69 614.08 297.09   Q 619.12 291.49 622.72 284.09   A 0.26 0.26 0.0 0 0 622.32 283.77   Q 617.00 287.78 611.06 294.37"/>
<path stroke="#766a53" d="M 577.99 311.05   Q 580.78 321.36 585.11 330.03   A 0.23 0.23 0.0 0 0 585.53 329.92   Q 585.00 319.65 582.36 309.87   Q 579.72 300.08 575.02 290.95   A 0.23 0.23 0.0 0 0 574.59 291.06   Q 575.21 300.73 577.99 311.05"/>
<path stroke="#766a53" d="M 610.89 318.23   Q 605.62 320.76 600.72 324.00   Q 595.13 327.69 595.34 328.13   Q 595.60 328.67 601.98 326.62   Q 607.57 324.83 612.84 322.30   Q 618.11 319.77 623.01 316.53   Q 628.60 312.84 628.39 312.40   Q 628.13 311.86 621.76 313.91   Q 616.16 315.70 610.89 318.23"/>
<path stroke="#766a53" d="M 549.7701 350.9676   A 11.29 1.18 -110.1 0 0 552.5419 361.9755   A 11.29 1.18 -110.1 0 0 557.5299 372.1724   A 11.29 1.18 -110.1 0 0 554.7581 361.1645   A 11.29 1.18 -110.1 0 0 549.7701 350.9676"/>
<path stroke="#766a53" d="M 597.17 363.90   Q 592.36 368.50 588.28 373.83   Q 586.50 376.17 586.72 376.40   Q 586.97 376.67 589.39 374.98   Q 594.89 371.15 599.70 366.55   Q 604.51 361.94 608.59 356.61   Q 610.38 354.27 610.15 354.04   Q 609.90 353.78 607.48 355.46   Q 601.98 359.30 597.17 363.90"/>
<path stroke="#766a53" d="M 627.1265 367.0985   A 10.82 1.72 -15.5 0 0 616.2403 368.3326   A 10.82 1.72 -15.5 0 0 606.2735 372.8815   A 10.82 1.72 -15.5 0 0 617.1597 371.6474   A 10.82 1.72 -15.5 0 0 627.1265 367.0985"/>
<path stroke="#766a53" d="M 507.6016 372.6980   A 13.35 1.62 -78.5 0 0 503.3525 385.4570   A 13.35 1.62 -78.5 0 0 502.2784 398.8620   A 13.35 1.62 -78.5 0 0 506.5275 386.1030   A 13.35 1.62 -78.5 0 0 507.6016 372.6980"/>
<path stroke="#766a53" d="M 601.99 390.88   Q 607.21 392.97 612.70 394.33   Q 618.96 395.88 619.17 395.35   Q 619.35 394.91 613.74 391.73   Q 608.82 388.93 603.60 386.85   Q 598.37 384.76 592.88 383.40   Q 586.62 381.84 586.41 382.38   Q 586.24 382.81 591.84 386.00   Q 596.76 388.79 601.99 390.88"/>
<path stroke="#766a53" d="M 490.35 411.06   Q 492.85 417.20 496.29 422.93   Q 497.80 425.44 498.10 425.32   Q 498.44 425.18 497.76 422.33   Q 496.23 415.83 493.73 409.69   Q 491.23 403.54 487.79 397.82   Q 486.28 395.31 485.99 395.43   Q 485.65 395.56 486.32 398.42   Q 487.86 404.92 490.35 411.06"/>
<path stroke="#766a53" d="M 554.5133 421.7792   A 11.91 1.50 -142.8 0 0 563.0931 430.1748   A 11.91 1.50 -142.8 0 0 573.4867 436.1808   A 11.91 1.50 -142.8 0 0 564.9069 427.7852   A 11.91 1.50 -142.8 0 0 554.5133 421.7792"/>
<path stroke="#766a53" d="M 510.02 460.60   Q 503.67 462.55 497.61 465.35   Q 490.70 468.55 490.86 469.08   Q 491.06 469.73 498.57 468.52   Q 505.17 467.45 511.52 465.51   Q 517.87 463.56 523.93 460.76   Q 530.84 457.56 530.68 457.03   Q 530.48 456.38 522.96 457.59   Q 516.37 458.66 510.02 460.60"/>
<path stroke="#766a53" d="M 572.7324 332.9974   A 2.72 1.76 -12.8 0 0 569.6901 331.8837   A 2.72 1.76 -12.8 0 0 567.4276 334.2026   A 2.72 1.76 -12.8 0 0 570.4699 335.3163   A 2.72 1.76 -12.8 0 0 572.7324 332.9974"/>
<path stroke="#766a53" d="M 600.9809 341.2495   A 2.11 1.92 -126.3 0 0 600.6826 344.0867   A 2.11 1.92 -126.3 0 0 603.4791 344.6505   A 2.11 1.92 -126.3 0 0 603.7774 341.8133   A 2.11 1.92 -126.3 0 0 600.9809 341.2495"/>
<path stroke="#766a53" d="M 577.2606 399.6344   A 3.36 2.18 -58.2 0 0 573.6372 401.3412   A 3.36 2.18 -58.2 0 0 573.7194 405.3456   A 3.36 2.18 -58.2 0 0 577.3428 403.6388   A 3.36 2.18 -58.2 0 0 577.2606 399.6344"/>
<path stroke="#766a53" d="M 541.94 629.50   C 545.81 621.41 552.91 620.59 561.23 618.42   Q 572.36 615.52 574.71 605.56   C 577.51 593.74 571.73 583.58 559.16 581.86   C 554.54 581.22 548.24 580.99 543.64 582.56   C 541.90 583.15 541.74 584.72 541.73 586.50   Q 541.63 597.94 541.69 629.45   A 0.13 0.13 0.0 0 0 541.94 629.50"/>
</g>
<path xmlns="http://www.w3.org/2000/svg" fill="#0b0b0b" d="M 1024.00 0.00   L 1024.00 1024.00   L 0.00 1024.00   L 0.00 0.00   L 1024.00 0.00   Z   M 558.45 365.46   Q 555.59 355.96 549.02 345.27   A 1.00 1.00 0.0 0 0 547.17 345.85   C 547.85 357.04 551.61 368.05 558.02 377.31   A 2.19 2.17 44.8 0 1 558.04 379.77   Q 551.16 389.97 542.26 400.10   A 0.22 0.22 0.0 0 1 541.87 399.95   Q 541.97 390.62 541.87 298.36   C 541.87 292.20 542.20 285.03 543.49 279.05   C 545.33 270.48 550.74 267.80 558.76 267.28   A 0.68 0.68 0.0 0 0 559.40 266.60   L 559.40 263.66   A 0.66 0.65 -0.0 0 0 558.74 263.01   Q 540.19 262.95 511.24 262.96   Q 493.70 262.96 486.24 264.59   C 449.40 272.68 420.47 306.25 432.24 345.35   C 438.88 367.44 459.73 379.10 482.52 378.25   A 0.16 0.16 0.0 0 0 482.67 378.09   L 482.67 375.45   A 0.40 0.39 -87.7 0 0 482.31 375.05   C 471.42 373.97 460.47 365.46 455.35 355.90   C 447.90 341.95 447.70 325.33 451.52 310.24   C 457.32 287.36 477.21 268.49 501.74 268.14   C 511.66 268.00 515.83 273.33 516.88 283.07   Q 517.72 290.90 517.73 294.25   Q 517.76 316.88 517.71 425.42   A 2.47 2.47 0.0 0 1 517.13 427.01   L 500.10 447.14   A 0.22 0.22 0.0 0 1 499.72 446.94   C 503.29 433.54 503.20 420.55 502.23 406.82   A 5.40 5.39 -35.0 0 1 502.68 404.27   C 508.36 391.68 511.30 380.50 509.66 366.97   A 0.92 0.91 56.9 0 0 507.97 366.61   Q 502.61 375.58 501.10 385.05   A 0.29 0.29 0.0 0 1 500.54 385.11   Q 500.19 384.13 500.12 382.62   Q 499.47 369.34 499.55 356.53   A 0.74 0.74 0.0 0 0 498.69 355.79   L 498.58 355.81   A 1.07 1.06 -3.7 0 0 497.68 356.82   Q 496.97 379.04 499.03 401.51   C 499.65 408.31 499.98 416.19 500.12 420.52   A 0.20 0.20 0.0 0 1 499.73 420.58   C 496.85 409.74 492.34 399.36 485.53 390.80   Q 484.80 389.88 483.94 389.62   A 0.69 0.69 0.0 0 0 483.05 390.32   C 483.95 404.05 489.40 416.70 497.11 428.06   C 498.15 429.60 498.96 431.34 498.86 433.03   Q 498.25 442.52 494.04 452.63   C 492.22 456.99 490.24 459.75 487.53 463.52   Q 475.75 479.88 467.14 497.38   C 463.91 503.93 460.86 510.27 459.41 516.12   A 0.91 0.90 17.1 0 0 459.98 517.19   L 461.43 517.73   A 0.93 0.93 0.0 0 0 462.62 517.18   Q 470.83 495.15 484.31 475.24   C 485.17 473.98 486.33 472.19 487.77 472.08   Q 502.93 470.92 517.14 466.29   A 0.45 0.45 0.0 0 1 517.73 466.75   C 516.29 486.80 508.84 507.27 491.98 518.91   C 475.41 530.34 451.32 530.23 433.11 522.68   Q 410.36 513.26 400.84 490.73   C 393.03 472.24 395.25 450.09 408.21 434.78   C 418.04 423.19 433.49 416.98 448.59 420.39   Q 465.46 424.20 472.23 440.00   Q 475.77 448.28 474.25 456.74   A 0.35 0.35 0.0 0 0 474.79 457.09   C 481.41 452.62 483.06 442.95 482.28 435.47   C 481.03 423.37 472.30 413.21 461.28 408.44   C 434.46 396.82 406.66 413.09 395.72 438.06   C 387.54 456.75 388.46 480.01 398.19 498.24   Q 412.29 524.63 443.25 531.78   C 465.59 536.93 492.84 533.35 511.51 519.48   Q 526.17 508.59 533.47 492.68   Q 541.83 474.46 541.89 454.50   Q 541.95 432.94 541.91 422.36   A 0.86 0.86 0.0 0 1 542.58 421.52   L 549.04 419.97   A 1.21 1.21 0.0 0 1 550.24 420.36   C 557.35 428.77 565.17 435.89 575.57 439.42   Q 576.38 439.70 577.06 439.74   A 0.77 0.77 0.0 0 0 577.81 438.64   C 574.12 430.68 564.38 423.75 556.46 420.06   A 0.34 0.34 0.0 0 1 556.61 419.41   Q 565.14 419.47 573.00 419.98   C 580.57 420.46 589.11 421.01 594.74 418.44   A 1.17 0.99 -24.8 0 0 595.39 417.04   Q 595.17 416.57 594.76 416.64   Q 586.04 418.16 577.25 417.57   C 565.83 416.80 557.86 415.72 548.76 417.00   C 538.76 418.42 529.71 423.66 522.96 431.10   C 519.69 434.70 517.81 436.59 517.85 441.12   Q 517.93 449.79 517.75 455.31   A 0.86 0.85 85.7 0 1 517.07 456.11   Q 503.04 458.86 491.34 465.58   A 0.14 0.14 0.0 0 1 491.15 465.38   C 506.99 443.23 522.54 427.06 544.69 402.96   Q 558.67 387.75 581.36 382.15   A 1.28 1.24 -32.4 0 1 582.42 382.37   Q 598.95 395.03 619.77 398.17   Q 622.28 398.55 624.07 398.34   A 0.83 0.83 0.0 0 0 624.52 396.89   Q 608.75 383.20 588.90 380.24   A 0.28 0.28 0.0 0 1 588.86 379.69   L 602.47 375.44   A 1.85 1.77 -50.9 0 1 603.12 375.36   Q 619.79 376.42 633.48 366.13   A 0.73 0.73 0.0 0 0 633.13 364.82   C 621.54 363.37 612.08 365.90 602.65 372.22   A 12.27 12.18 -70.2 0 1 599.52 373.71   L 592.14 376.01   A 0.13 0.13 0.0 0 1 592.03 375.78   C 600.71 369.54 610.38 360.49 614.36 350.74   A 0.80 0.80 0.0 0 0 613.46 349.66   Q 613.06 349.74 613.03 349.75   Q 599.68 356.74 589.37 368.72   C 587.03 371.45 584.89 375.35 583.23 377.97   A 2.58 2.58 0.0 0 1 581.69 379.08   C 572.54 381.38 563.02 384.99 554.92 390.29   A 0.07 0.07 0.0 0 1 554.83 390.19   Q 556.50 387.59 557.74 385.98   Q 574.30 364.60 585.73 342.54   C 587.50 339.13 589.02 335.03 590.77 332.78   A 1.64 1.61 10.2 0 1 591.56 332.24   Q 601.88 328.91 609.05 326.29   Q 623.33 321.08 633.97 310.65   A 0.78 0.78 0.0 0 0 633.43 309.31   Q 629.38 309.27 625.42 310.41   Q 609.54 315.00 596.45 324.46   Q 595.70 325.00 593.90 326.81   A 0.22 0.22 0.0 0 1 593.53 326.58   L 598.73 312.48   A 3.24 3.24 0.0 0 1 600.15 310.81   C 610.98 304.65 619.54 295.98 625.06 284.59   Q 626.16 282.32 626.65 279.89   A 0.24 0.19 39.0 0 0 626.62 279.75   L 626.49 279.53   A 0.57 0.56 60.5 0 0 625.72 279.31   Q 615.95 284.65 608.72 293.47   Q 606.33 296.39 601.87 302.46   A 0.07 0.07 0.0 0 1 601.75 302.40   L 606.85 282.79   A 2.64 2.57 68.1 0 1 607.12 282.13   C 608.90 278.83 611.29 275.52 612.55 272.06   Q 616.70 260.62 615.54 248.35   A 0.49 0.49 0.0 0 0 614.74 248.02   Q 613.01 249.46 611.65 251.67   Q 605.24 262.06 604.91 274.55   Q 604.69 282.72 603.95 285.95   Q 603.65 287.25 599.89 301.21   A 0.18 0.18 0.0 0 1 599.54 301.16   Q 600.13 287.62 597.26 274.49   Q 596.23 269.77 594.07 265.05   A 0.87 0.87 0.0 0 0 592.47 265.07   Q 592.16 265.82 591.92 267.19   Q 587.94 289.50 596.06 310.53   A 1.75 1.73 43.2 0 1 596.10 311.62   Q 593.23 321.16 588.04 331.23   A 0.20 0.19 -33.6 0 1 587.67 331.16   C 586.66 314.48 582.85 299.31 574.11 285.00   A 0.98 0.97 39.6 0 0 572.37 285.16   Q 572.26 285.44 572.29 286.50   Q 572.88 308.73 582.46 328.91   C 583.38 330.87 584.51 333.76 585.18 335.63   A 1.74 1.72 -43.5 0 1 585.14 336.90   Q 582.34 343.39 578.43 349.94   Q 570.48 363.28 561.54 375.52   A 0.29 0.29 0.0 0 1 561.01 375.32   Q 562.05 365.91 560.30 355.93   Q 557.59 340.51 556.35 325.70   Q 556.28 324.79 554.94 324.86   A 0.53 0.53 0.0 0 0 554.44 325.43   C 555.18 336.71 556.77 346.70 558.60 358.35   Q 559.31 362.90 559.17 365.38   A 0.37 0.37 0.0 0 1 558.45 365.46   Z   M 580.85 338.43   A 9.10 9.10 0.0 0 0 571.75 329.33   A 9.10 9.10 0.0 0 0 562.65 338.43   A 9.10 9.10 0.0 0 0 571.75 347.53   A 9.10 9.10 0.0 0 0 580.85 338.43   Z   M 606.3477 339.1494   A 8.88 8.73 -26.2 0 0 594.5257 335.2369   A 8.88 8.73 -26.2 0 0 590.4123 346.9906   A 8.88 8.73 -26.2 0 0 602.2343 350.9031   A 8.88 8.73 -26.2 0 0 606.3477 339.1494   Z   M 581.82 399.66   A 10.80 10.80 0.0 0 0 571.02 388.86   A 10.80 10.80 0.0 0 0 560.22 399.66   A 10.80 10.80 0.0 0 0 571.02 410.46   A 10.80 10.80 0.0 0 0 581.82 399.66   Z   M 488.84 580.31   L 476.63 580.31   A 0.27 0.27 0.0 0 0 476.51 580.82   Q 481.02 583.18 481.49 588.47   Q 481.84 592.31 481.85 603.84   Q 481.86 624.35 481.85 641.00   A 0.35 0.34 -63.6 0 1 481.23 641.21   Q 454.08 605.68 435.87 581.39   C 427.80 570.63 417.80 563.82 403.76 563.72   Q 399.11 563.69 394.70 565.75   A 0.42 0.42 0.0 0 0 394.98 566.53   Q 406.43 563.74 416.21 569.72   Q 421.02 572.66 427.92 581.55   A 5.34 5.32 -66.2 0 1 429.03 584.43   Q 429.41 589.41 429.41 591.50   Q 429.36 632.26 429.31 637.00   C 429.25 642.90 428.99 647.36 423.82 650.88   A 0.16 0.16 0.0 0 0 423.91 651.17   L 436.18 651.17   A 0.22 0.22 0.0 0 0 436.30 650.76   Q 431.08 647.33 431.04 640.48   Q 430.98 632.15 431.08 586.57   A 0.20 0.20 0.0 0 1 431.44 586.45   Q 442.54 601.12 473.35 641.89   Q 478.08 648.16 482.27 653.20   C 491.78 664.66 505.88 670.97 520.66 667.48   A 0.25 0.25 0.0 0 0 520.61 666.98   C 517.99 666.92 513.63 667.11 510.49 666.49   C 499.25 664.26 489.67 654.28 483.90 644.96   A 2.52 2.51 -61.0 0 1 483.52 643.63   Q 483.51 599.74 483.58 592.01   C 483.61 588.47 484.17 583.77 487.14 581.73   C 487.84 581.25 488.35 581.25 488.99 580.72   A 0.23 0.23 0.0 0 0 488.84 580.31   Z   M 732.82 664.32   Q 718.93 666.04 708.56 656.37   C 696.62 645.24 690.68 630.48 678.53 620.62   A 0.29 0.29 0.0 0 1 678.64 620.11   Q 685.25 618.27 687.30 617.32   Q 698.92 611.89 699.39 599.92   C 699.92 586.44 687.72 579.65 675.99 579.64   Q 663.48 579.63 649.23 579.87   A 0.20 0.20 0.0 0 0 649.14 580.25   Q 653.37 582.21 653.45 586.78   Q 653.87 612.65 653.47 640.94   C 653.42 644.98 652.97 647.99 649.62 650.14   A 0.26 0.25 -61.0 0 0 649.75 650.61   L 664.18 650.61   A 0.30 0.30 0.0 0 0 664.32 650.05   C 660.97 648.16 660.42 645.39 660.42 641.49   Q 660.40 588.89 660.40 588.83   C 660.49 584.35 660.97 581.34 665.75 581.14   C 670.24 580.96 676.81 580.57 681.02 582.06   Q 691.91 585.90 692.54 598.52   C 693.14 610.70 685.30 618.00 673.64 618.99   Q 669.94 619.30 665.52 619.24   A 0.17 0.17 0.0 0 0 665.35 619.41   L 665.35 619.66   A 0.35 0.35 0.0 0 0 665.72 620.01   Q 670.77 619.78 674.28 622.69   Q 678.95 626.56 682.58 632.16   C 688.88 641.89 694.47 651.87 701.93 658.01   Q 712.63 666.80 727.44 666.13   Q 730.36 666.00 732.96 664.83   A 0.27 0.27 0.0 0 0 732.82 664.32   Z   M 338.70 580.27   A 0.26 0.26 0.0 0 0 338.62 579.76   L 322.60 579.76   A 0.27 0.26 55.4 0 0 322.51 580.27   C 326.61 581.88 327.07 585.75 327.13 590.03   Q 327.27 601.04 327.12 632.76   Q 327.10 636.68 325.52 645.17   Q 322.46 661.56 307.14 666.44   A 0.25 0.25 0.0 0 0 307.18 666.92   Q 308.57 667.11 310.08 666.75   C 328.12 662.47 333.88 646.07 333.86 629.24   Q 333.82 601.79 333.96 587.26   Q 334.02 581.77 338.70 580.27   Z   M 402.35 580.90   C 405.74 581.59 407.46 586.54 407.59 589.02   Q 407.91 595.69 407.79 617.79   C 407.72 630.89 406.32 644.64 393.11 649.37   Q 383.34 652.86 373.98 648.69   C 364.15 644.30 360.84 632.23 360.67 622.00   Q 360.49 611.44 360.62 595.26   C 360.65 591.44 360.36 587.03 361.45 583.71   Q 362.20 581.46 365.12 580.24   A 0.25 0.25 0.0 0 0 365.03 579.76   L 349.52 579.76   A 0.29 0.29 0.0 0 0 349.42 580.33   Q 353.55 581.84 353.66 586.58   Q 353.87 594.91 353.74 615.29   C 353.63 632.65 356.81 648.20 376.81 651.99   C 392.24 654.90 405.08 647.77 408.39 632.09   Q 409.47 626.99 409.45 619.25   Q 409.37 594.35 409.47 591.25   C 409.61 586.71 410.21 582.78 414.35 580.78   A 0.30 0.29 32.1 0 0 414.22 580.22   L 402.42 580.22   A 0.34 0.34 0.0 0 0 402.35 580.90   Z   M 600.76 613.51   L 600.76 582.16   A 0.72 0.72 0.0 0 1 601.47 581.44   Q 619.00 581.33 621.76 581.57   C 627.93 582.10 633.75 584.98 636.00 591.25   A 0.33 0.33 0.0 0 0 636.38 591.46   L 636.65 591.39   A 0.10 0.09 78.1 0 0 636.72 591.27   L 634.24 580.90   A 1.10 1.09 -6.6 0 0 633.17 580.06   L 590.14 580.06   A 0.31 0.30 55.8 0 0 590.03 580.65   Q 593.70 582.14 593.92 586.33   Q 594.35 594.47 594.11 616.10   A 0.89 0.87 77.1 0 1 593.64 616.87   C 586.03 620.97 581.24 627.68 581.15 636.49   A 0.43 0.43 0.0 0 0 581.56 636.93   L 581.58 636.93   A 0.49 0.49 0.0 0 0 582.09 636.49   C 582.86 628.19 586.97 624.01 593.60 619.04   A 0.35 0.35 0.0 0 1 594.16 619.32   Q 594.15 631.76 594.02 643.50   Q 593.97 648.35 590.02 650.50   A 0.19 0.19 0.0 0 0 590.11 650.86   L 636.55 650.86   A 0.99 0.99 0.0 0 0 637.51 650.11   L 640.68 637.95   A 0.23 0.23 0.0 0 0 640.29 637.73   C 639.42 638.63 638.88 640.21 638.03 641.30   C 633.44 647.20 625.80 649.55 618.01 649.59   Q 609.55 649.63 603.04 649.68   Q 600.75 649.70 600.77 647.03   Q 600.83 639.50 600.74 616.77   A 1.35 1.35 0.0 0 1 601.77 615.46   Q 610.06 613.47 616.48 614.49   C 620.74 615.17 623.22 616.64 624.48 620.81   A 0.39 0.39 0.0 0 0 625.24 620.70   L 625.24 605.17   A 0.33 0.33 0.0 0 0 624.59 605.07   Q 622.45 611.82 615.17 612.22   Q 606.60 612.70 601.47 614.06   A 0.57 0.56 82.6 0 1 600.76 613.51   Z   M 505.77 615.85   Q 505.77 640.75 505.79 643.00   Q 505.84 648.41 501.33 650.91   A 0.21 0.21 0.0 0 0 501.43 651.30   Q 505.95 651.32 509.20 651.32   Q 512.46 651.32 516.98 651.30   A 0.21 0.21 0.0 0 0 517.08 650.91   Q 512.57 648.41 512.61 642.99   Q 512.63 640.75 512.63 615.85   Q 512.63 590.96 512.61 588.71   Q 512.56 583.29 517.07 580.79   A 0.21 0.21 0.0 0 0 516.97 580.40   Q 512.45 580.38 509.19 580.38   Q 505.94 580.38 501.42 580.41   A 0.21 0.21 0.0 0 0 501.32 580.79   Q 505.83 583.29 505.79 588.71   Q 505.76 590.96 505.77 615.85   Z   M 530.46 580.77   C 534.47 583.10 534.90 586.55 534.92 591.26   Q 535.00 616.83 534.78 642.75   Q 534.73 648.47 530.70 650.86   A 0.23 0.23 0.0 0 0 530.82 651.28   L 545.13 651.28   A 0.43 0.43 0.0 0 0 545.33 650.47   C 542.92 649.25 541.95 647.63 541.63 644.81   Q 540.87 638.27 542.16 632.04   A 4.47 4.44 -24.6 0 1 542.63 630.79   Q 546.80 623.30 555.06 621.69   Q 564.67 619.81 569.09 618.35   C 580.25 614.66 585.56 603.28 580.92 592.38   C 576.55 582.10 564.60 580.01 554.25 580.20   Q 540.99 580.45 530.56 580.39   A 0.20 0.20 0.0 0 0 530.46 580.77   Z   M 621.40 712.18   L 593.28 712.18   A 0.75 0.75 0.0 0 0 592.53 712.93   L 592.53 713.20   A 0.48 0.47 90.0 0 0 593.00 713.68   L 610.62 713.68   A 0.36 0.35 0.8 0 1 610.98 714.04   C 610.91 723.83 611.05 732.59 603.87 739.64   Q 598.25 745.17 591.37 746.60   Q 573.57 750.32 562.62 735.56   C 548.74 716.83 555.40 676.31 584.38 676.59   C 595.30 676.70 603.30 682.31 607.78 692.09   A 0.13 0.13 0.0 0 0 608.00 692.13   L 613.82 686.32   A 0.24 0.24 0.0 0 0 613.83 685.99   Q 611.57 683.50 608.58 681.70   C 588.85 669.80 561.54 673.84 551.45 696.41   C 546.69 707.07 546.99 722.05 552.84 732.24   Q 560.55 745.66 577.32 748.21   Q 597.87 751.34 611.80 736.10   A 0.79 0.78 -36.1 0 1 613.09 736.30   Q 615.26 741.04 615.71 747.19   A 0.28 0.27 -2.2 0 0 615.99 747.44   L 616.29 747.44   A 0.53 0.53 0.0 0 0 616.82 746.93   Q 617.37 732.23 617.45 719.98   Q 617.49 714.71 621.52 712.72   A 0.28 0.28 0.0 0 0 621.40 712.18   Z   M 432.33 677.11   A 0.26 0.26 0.0 0 0 432.25 676.60   L 416.19 676.60   A 0.27 0.26 55.4 0 0 416.10 677.11   C 420.21 678.72 420.67 682.60 420.73 686.89   Q 420.87 697.92 420.72 729.70   Q 420.70 733.63 419.12 742.14   Q 416.05 758.56 400.70 763.45   A 0.25 0.25 0.0 0 0 400.74 763.93   Q 402.13 764.12 403.65 763.76   C 421.72 759.47 427.49 743.04 427.47 726.18   Q 427.44 698.67 427.58 684.12   Q 427.64 678.61 432.33 677.11   Z   M 453.00 747.74   Q 456.60 747.75 460.50 747.78   A 0.24 0.23 -32.2 0 0 460.60 747.33   C 456.98 745.68 456.42 741.64 456.42 737.75   Q 456.38 713.70 456.48 689.25   C 456.50 684.77 456.09 678.41 461.10 677.26   A 0.30 0.30 0.0 0 0 461.05 676.66   Q 460.52 676.63 453.10 676.62   Q 445.68 676.61 445.15 676.64   A 0.30 0.30 0.0 0 0 445.09 677.24   C 450.10 678.40 449.67 684.76 449.68 689.24   Q 449.71 713.69 449.61 737.74   C 449.60 741.63 449.03 745.67 445.40 747.31   A 0.24 0.23 32.3 0 0 445.51 747.76   Q 449.40 747.74 453.00 747.74   Z   M 485.87 747.39   Q 480.95 743.97 480.92 736.25   Q 480.91 734.50 480.92 683.45   A 0.20 0.20 0.0 0 1 481.28 683.33   Q 517.33 731.77 519.43 734.61   Q 529.12 747.77 533.03 752.01   Q 547.70 767.92 569.68 763.87   A 0.14 0.13 85.2 0 0 569.79 763.73   L 569.79 763.48   A 0.43 0.43 0.0 0 0 569.30 763.05   Q 554.48 765.11 543.79 754.98   Q 537.00 748.55 532.78 741.50   A 1.78 1.74 -60.7 0 1 532.54 740.61   Q 532.46 710.83 532.95 686.76   C 533.03 682.95 534.26 678.28 538.36 677.17   A 0.29 0.29 0.0 0 0 538.28 676.60   L 525.89 676.60   A 0.26 0.25 -33.5 0 0 525.79 677.09   C 530.92 679.27 531.05 685.05 530.97 690.00   Q 530.91 694.14 530.92 738.10   A 0.26 0.26 0.0 0 1 530.45 738.25   L 485.20 677.11   A 1.25 1.23 -18.0 0 0 484.20 676.61   L 474.30 676.61   A 0.24 0.24 0.0 0 0 474.20 677.07   Q 479.24 679.31 479.24 685.50   Q 479.25 707.55 478.92 737.77   Q 478.84 744.23 474.07 747.40   A 0.31 0.31 0.0 0 0 474.24 747.97   L 485.69 747.97   A 0.32 0.32 0.0 0 0 485.87 747.39   Z"/>
<path xmlns="http://www.w3.org/2000/svg" fill="#e1c89a" d="M 559.17 365.38   Q 559.31 362.90 558.60 358.35   C 556.77 346.70 555.18 336.71 554.44 325.43   A 0.53 0.53 0.0 0 1 554.94 324.86   Q 556.28 324.79 556.35 325.70   Q 557.59 340.51 560.30 355.93   Q 562.05 365.91 561.01 375.32   A 0.29 0.29 0.0 0 0 561.54 375.52   Q 570.48 363.28 578.43 349.94   Q 582.34 343.39 585.14 336.90   A 1.74 1.72 -43.5 0 0 585.18 335.63   C 584.51 333.76 583.38 330.87 582.46 328.91   Q 572.88 308.73 572.29 286.50   Q 572.26 285.44 572.37 285.16   A 0.98 0.97 39.6 0 1 574.11 285.00   C 582.85 299.31 586.66 314.48 587.67 331.16   A 0.20 0.19 -33.6 0 0 588.04 331.23   Q 593.23 321.16 596.10 311.62   A 1.75 1.73 43.2 0 0 596.06 310.53   Q 587.94 289.50 591.92 267.19   Q 592.16 265.82 592.47 265.07   A 0.87 0.87 0.0 0 1 594.07 265.05   Q 596.23 269.77 597.26 274.49   Q 600.13 287.62 599.54 301.16   A 0.18 0.18 0.0 0 0 599.89 301.21   Q 603.65 287.25 603.95 285.95   Q 604.69 282.72 604.91 274.55   Q 605.24 262.06 611.65 251.67   Q 613.01 249.46 614.74 248.02   A 0.49 0.49 0.0 0 1 615.54 248.35   Q 616.70 260.62 612.55 272.06   C 611.29 275.52 608.90 278.83 607.12 282.13   A 2.64 2.57 68.1 0 0 606.85 282.79   L 601.75 302.40   A 0.07 0.07 0.0 0 0 601.87 302.46   Q 606.33 296.39 608.72 293.47   Q 615.95 284.65 625.72 279.31   A 0.57 0.56 60.5 0 1 626.49 279.53   L 626.62 279.75   A 0.24 0.19 39.0 0 1 626.65 279.89   Q 626.16 282.32 625.06 284.59   C 619.54 295.98 610.98 304.65 600.15 310.81   A 3.24 3.24 0.0 0 0 598.73 312.48   L 593.53 326.58   A 0.22 0.22 0.0 0 0 593.90 326.81   Q 595.70 325.00 596.45 324.46   Q 609.54 315.00 625.42 310.41   Q 629.38 309.27 633.43 309.31   A 0.78 0.78 0.0 0 1 633.97 310.65   Q 623.33 321.08 609.05 326.29   Q 601.88 328.91 591.56 332.24   A 1.64 1.61 10.2 0 0 590.77 332.78   C 589.02 335.03 587.50 339.13 585.73 342.54   Q 574.30 364.60 557.74 385.98   Q 556.50 387.59 554.83 390.19   A 0.07 0.07 0.0 0 0 554.92 390.29   C 563.02 384.99 572.54 381.38 581.69 379.08   A 2.58 2.58 0.0 0 0 583.23 377.97   C 584.89 375.35 587.03 371.45 589.37 368.72   Q 599.68 356.74 613.03 349.75   Q 613.06 349.74 613.46 349.66   A 0.80 0.80 0.0 0 1 614.36 350.74   C 610.38 360.49 600.71 369.54 592.03 375.78   A 0.13 0.13 0.0 0 0 592.14 376.01   L 599.52 373.71   A 12.27 12.18 -70.2 0 0 602.65 372.22   C 612.08 365.90 621.54 363.37 633.13 364.82   A 0.73 0.73 0.0 0 1 633.48 366.13   Q 619.79 376.42 603.12 375.36   A 1.85 1.77 -50.9 0 0 602.47 375.44   L 588.86 379.69   A 0.28 0.28 0.0 0 0 588.90 380.24   Q 608.75 383.20 624.52 396.89   A 0.83 0.83 0.0 0 1 624.07 398.34   Q 622.28 398.55 619.77 398.17   Q 598.95 395.03 582.42 382.37   A 1.28 1.24 -32.4 0 0 581.36 382.15   Q 558.67 387.75 544.69 402.96   C 522.54 427.06 506.99 443.23 491.15 465.38   A 0.14 0.14 0.0 0 0 491.34 465.58   Q 503.04 458.86 517.07 456.11   A 0.86 0.85 85.7 0 0 517.75 455.31   Q 517.93 449.79 517.85 441.12   C 517.81 436.59 519.69 434.70 522.96 431.10   C 529.71 423.66 538.76 418.42 548.76 417.00   C 557.86 415.72 565.83 416.80 577.25 417.57   Q 586.04 418.16 594.76 416.64   Q 595.17 416.57 595.39 417.04   A 1.17 0.99 -24.8 0 1 594.74 418.44   C 589.11 421.01 580.57 420.46 573.00 419.98   Q 565.14 419.47 556.61 419.41   A 0.34 0.34 0.0 0 0 556.46 420.06   C 564.38 423.75 574.12 430.68 577.81 438.64   A 0.77 0.77 0.0 0 1 577.06 439.74   Q 576.38 439.70 575.57 439.42   C 565.17 435.89 557.35 428.77 550.24 420.36   A 1.21 1.21 0.0 0 0 549.04 419.97   L 542.58 421.52   A 0.86 0.86 0.0 0 0 541.91 422.36   Q 541.95 432.94 541.89 454.50   Q 541.83 474.46 533.47 492.68   Q 526.17 508.59 511.51 519.48   C 492.84 533.35 465.59 536.93 443.25 531.78   Q 412.29 524.63 398.19 498.24   C 388.46 480.01 387.54 456.75 395.72 438.06   C 406.66 413.09 434.46 396.82 461.28 408.44   C 472.30 413.21 481.03 423.37 482.28 435.47   C 483.06 442.95 481.41 452.62 474.79 457.09   A 0.35 0.35 0.0 0 1 474.25 456.74   Q 475.77 448.28 472.23 440.00   Q 465.46 424.20 448.59 420.39   C 433.49 416.98 418.04 423.19 408.21 434.78   C 395.25 450.09 393.03 472.24 400.84 490.73   Q 410.36 513.26 433.11 522.68   C 451.32 530.23 475.41 530.34 491.98 518.91   C 508.84 507.27 516.29 486.80 517.73 466.75   A 0.45 0.45 0.0 0 0 517.14 466.29   Q 502.93 470.92 487.77 472.08   C 486.33 472.19 485.17 473.98 484.31 475.24   Q 470.83 495.15 462.62 517.18   A 0.93 0.93 0.0 0 1 461.43 517.73   L 459.98 517.19   A 0.91 0.90 17.1 0 1 459.41 516.12   C 460.86 510.27 463.91 503.93 467.14 497.38   Q 475.75 479.88 487.53 463.52   C 490.24 459.75 492.22 456.99 494.04 452.63   Q 498.25 442.52 498.86 433.03   C 498.96 431.34 498.15 429.60 497.11 428.06   C 489.40 416.70 483.95 404.05 483.05 390.32   A 0.69 0.69 0.0 0 1 483.94 389.62   Q 484.80 389.88 485.53 390.80   C 492.34 399.36 496.85 409.74 499.73 420.58   A 0.20 0.20 0.0 0 0 500.12 420.52   C 499.98 416.19 499.65 408.31 499.03 401.51   Q 496.97 379.04 497.68 356.82   A 1.07 1.06 -3.7 0 1 498.58 355.81   L 498.69 355.79   A 0.74 0.74 0.0 0 1 499.55 356.53   Q 499.47 369.34 500.12 382.62   Q 500.19 384.13 500.54 385.11   A 0.29 0.29 0.0 0 0 501.10 385.05   Q 502.61 375.58 507.97 366.61   A 0.92 0.91 56.9 0 1 509.66 366.97   C 511.30 380.50 508.36 391.68 502.68 404.27   A 5.40 5.39 -35.0 0 0 502.23 406.82   C 503.20 420.55 503.29 433.54 499.72 446.94   A 0.22 0.22 0.0 0 0 500.10 447.14   L 517.13 427.01   A 2.47 2.47 0.0 0 0 517.71 425.42   Q 517.76 316.88 517.73 294.25   Q 517.72 290.90 516.88 283.07   C 515.83 273.33 511.66 268.00 501.74 268.14   C 477.21 268.49 457.32 287.36 451.52 310.24   C 447.70 325.33 447.90 341.95 455.35 355.90   C 460.47 365.46 471.42 373.97 482.31 375.05   A 0.40 0.39 -87.7 0 1 482.67 375.45   L 482.67 378.09   A 0.16 0.16 0.0 0 1 482.52 378.25   C 459.73 379.10 438.88 367.44 432.24 345.35   C 420.47 306.25 449.40 272.68 486.24 264.59   Q 493.70 262.96 511.24 262.96   Q 540.19 262.95 558.74 263.01   A 0.66 0.65 0.0 0 1 559.40 263.66   L 559.40 266.60   A 0.68 0.68 0.0 0 1 558.76 267.28   C 550.74 267.80 545.33 270.48 543.49 279.05   C 542.20 285.03 541.87 292.20 541.87 298.36   Q 541.97 390.62 541.87 399.95   A 0.22 0.22 0.0 0 0 542.26 400.10   Q 551.16 389.97 558.04 379.77   A 2.19 2.17 44.8 0 0 558.02 377.31   C 551.61 368.05 547.85 357.04 547.17 345.85   A 1.00 1.00 0.0 0 1 549.02 345.27   Q 555.59 355.96 558.45 365.46   A 0.37 0.37 0.0 0 0 559.17 365.38   Z   M 608.26 265.15   Q 606.88 270.46 606.68 276.00   Q 606.60 277.98 606.91 278.06   Q 607.21 278.13 608.11 276.37   Q 610.64 271.44 612.02 266.13   Q 613.40 260.82 613.60 255.28   Q 613.67 253.30 613.37 253.22   Q 613.07 253.14 612.16 254.91   Q 609.64 259.84 608.26 265.15   Z   M 597.17 288.04   Q 596.36 278.62 593.94 270.40   A 0.20 0.20 0.0 0 0 593.55 270.43   Q 592.41 279.45 593.18 288.38   Q 593.95 297.31 596.61 306.00   A 0.20 0.20 0.0 0 0 597.00 305.97   Q 597.98 297.45 597.17 288.04   Z   M 611.06 294.37   Q 605.12 300.96 601.68 306.67   A 0.26 0.26 0.0 0 0 602.04 307.03   Q 609.04 302.69 614.08 297.09   Q 619.12 291.49 622.72 284.09   A 0.26 0.26 0.0 0 0 622.32 283.77   Q 617.00 287.78 611.06 294.37   Z   M 577.99 311.05   Q 580.78 321.36 585.11 330.03   A 0.23 0.23 0.0 0 0 585.53 329.92   Q 585.00 319.65 582.36 309.87   Q 579.72 300.08 575.02 290.95   A 0.23 0.23 0.0 0 0 574.59 291.06   Q 575.21 300.73 577.99 311.05   Z   M 610.89 318.23   Q 605.62 320.76 600.72 324.00   Q 595.13 327.69 595.34 328.13   Q 595.60 328.67 601.98 326.62   Q 607.57 324.83 612.84 322.30   Q 618.11 319.77 623.01 316.53   Q 628.60 312.84 628.39 312.40   Q 628.13 311.86 621.76 313.91   Q 616.16 315.70 610.89 318.23   Z   M 549.7701 350.9676   A 11.29 1.18 -110.1 0 0 552.5419 361.9755   A 11.29 1.18 -110.1 0 0 557.5299 372.1724   A 11.29 1.18 -110.1 0 0 554.7581 361.1645   A 11.29 1.18 -110.1 0 0 549.7701 350.9676   Z   M 597.17 363.90   Q 592.36 368.50 588.28 373.83   Q 586.50 376.17 586.72 376.40   Q 586.97 376.67 589.39 374.98   Q 594.89 371.15 599.70 366.55   Q 604.51 361.94 608.59 356.61   Q 610.38 354.27 610.15 354.04   Q 609.90 353.78 607.48 355.46   Q 601.98 359.30 597.17 363.90   Z   M 627.1265 367.0985   A 10.82 1.72 -15.5 0 0 616.2403 368.3326   A 10.82 1.72 -15.5 0 0 606.2735 372.8815   A 10.82 1.72 -15.5 0 0 617.1597 371.6474   A 10.82 1.72 -15.5 0 0 627.1265 367.0985   Z   M 507.6016 372.6980   A 13.35 1.62 -78.5 0 0 503.3525 385.4570   A 13.35 1.62 -78.5 0 0 502.2784 398.8620   A 13.35 1.62 -78.5 0 0 506.5275 386.1030   A 13.35 1.62 -78.5 0 0 507.6016 372.6980   Z   M 601.99 390.88   Q 607.21 392.97 612.70 394.33   Q 618.96 395.88 619.17 395.35   Q 619.35 394.91 613.74 391.73   Q 608.82 388.93 603.60 386.85   Q 598.37 384.76 592.88 383.40   Q 586.62 381.84 586.41 382.38   Q 586.24 382.81 591.84 386.00   Q 596.76 388.79 601.99 390.88   Z   M 490.35 411.06   Q 492.85 417.20 496.29 422.93   Q 497.80 425.44 498.10 425.32   Q 498.44 425.18 497.76 422.33   Q 496.23 415.83 493.73 409.69   Q 491.23 403.54 487.79 397.82   Q 486.28 395.31 485.99 395.43   Q 485.65 395.56 486.32 398.42   Q 487.86 404.92 490.35 411.06   Z   M 554.5133 421.7792   A 11.91 1.50 -142.8 0 0 563.0931 430.1748   A 11.91 1.50 -142.8 0 0 573.4867 436.1808   A 11.91 1.50 -142.8 0 0 564.9069 427.7852   A 11.91 1.50 -142.8 0 0 554.5133 421.7792   Z   M 510.02 460.60   Q 503.67 462.55 497.61 465.35   Q 490.70 468.55 490.86 469.08   Q 491.06 469.73 498.57 468.52   Q 505.17 467.45 511.52 465.51   Q 517.87 463.56 523.93 460.76   Q 530.84 457.56 530.68 457.03   Q 530.48 456.38 522.96 457.59   Q 516.37 458.66 510.02 460.60   Z"/>
<path xmlns="http://www.w3.org/2000/svg" fill="#0b0b0b" d="M 613.37 253.22   Q 613.67 253.30 613.60 255.28   Q 613.40 260.82 612.02 266.13   Q 610.64 271.44 608.11 276.37   Q 607.21 278.13 606.91 278.06   Q 606.60 277.98 606.68 276.00   Q 606.88 270.46 608.26 265.15   Q 609.64 259.84 612.16 254.91   Q 613.07 253.14 613.37 253.22   Z"/>
<path xmlns="http://www.w3.org/2000/svg" fill="#0b0b0b" d="M 597.17 288.04   Q 597.98 297.45 597.00 305.97   A 0.20 0.20 0.0 0 1 596.61 306.00   Q 593.95 297.31 593.18 288.38   Q 592.41 279.45 593.55 270.43   A 0.20 0.20 0.0 0 1 593.94 270.40   Q 596.36 278.62 597.17 288.04   Z"/>
<path xmlns="http://www.w3.org/2000/svg" fill="#0b0b0b" d="M 614.08 297.09   Q 609.04 302.69 602.04 307.03   A 0.26 0.26 0.0 0 1 601.68 306.67   Q 605.12 300.96 611.06 294.37   Q 617.00 287.78 622.32 283.77   A 0.26 0.26 0.0 0 1 622.72 284.09   Q 619.12 291.49 614.08 297.09   Z"/>
<path xmlns="http://www.w3.org/2000/svg" fill="#0b0b0b" d="M 582.36 309.87   Q 585.00 319.65 585.53 329.92   A 0.23 0.23 0.0 0 1 585.11 330.03   Q 580.78 321.36 577.99 311.05   Q 575.21 300.73 574.59 291.06   A 0.23 0.23 0.0 0 1 575.02 290.95   Q 579.72 300.08 582.36 309.87   Z"/>
<path xmlns="http://www.w3.org/2000/svg" fill="#0b0b0b" d="M 610.89 318.23   Q 616.16 315.70 621.76 313.91   Q 628.13 311.86 628.39 312.40   Q 628.60 312.84 623.01 316.53   Q 618.11 319.77 612.84 322.30   Q 607.57 324.83 601.98 326.62   Q 595.60 328.67 595.34 328.13   Q 595.13 327.69 600.72 324.00   Q 605.62 320.76 610.89 318.23   Z"/>
<path xmlns="http://www.w3.org/2000/svg" fill="#e1c89a" d="M 580.85 338.43   A 9.10 9.10 0.0 0 1 571.75 347.53   A 9.10 9.10 0.0 0 1 562.65 338.43   A 9.10 9.10 0.0 0 1 571.75 329.33   A 9.10 9.10 0.0 0 1 580.85 338.43   Z   M 572.7324 332.9974   A 2.72 1.76 -12.8 0 0 569.6901 331.8837   A 2.72 1.76 -12.8 0 0 567.4276 334.2026   A 2.72 1.76 -12.8 0 0 570.4699 335.3163   A 2.72 1.76 -12.8 0 0 572.7324 332.9974   Z"/>
<ellipse xmlns="http://www.w3.org/2000/svg" fill="#0b0b0b" cx="0.00" cy="0.00" transform="translate(570.08,333.60) rotate(-12.8)" rx="2.72" ry="1.76"/>
<path xmlns="http://www.w3.org/2000/svg" fill="#e1c89a" d="M 606.3477 339.1494   A 8.88 8.73 -26.2 0 1 602.2343 350.9031   A 8.88 8.73 -26.2 0 1 590.4123 346.9906   A 8.88 8.73 -26.2 0 1 594.5257 335.2369   A 8.88 8.73 -26.2 0 1 606.3477 339.1494   Z   M 600.9809 341.2495   A 2.11 1.92 -126.3 0 0 600.6826 344.0867   A 2.11 1.92 -126.3 0 0 603.4791 344.6505   A 2.11 1.92 -126.3 0 0 603.7774 341.8133   A 2.11 1.92 -126.3 0 0 600.9809 341.2495   Z"/>
<ellipse xmlns="http://www.w3.org/2000/svg" fill="#0b0b0b" cx="0.00" cy="0.00" transform="translate(602.23,342.95) rotate(-126.3)" rx="2.11" ry="1.92"/>
<ellipse xmlns="http://www.w3.org/2000/svg" fill="#0b0b0b" cx="0.00" cy="0.00" transform="translate(553.65,361.57) rotate(-110.1)" rx="11.29" ry="1.18"/>
<path xmlns="http://www.w3.org/2000/svg" fill="#0b0b0b" d="M 610.15 354.04   Q 610.38 354.27 608.59 356.61   Q 604.51 361.94 599.70 366.55   Q 594.89 371.15 589.39 374.98   Q 586.97 376.67 586.72 376.40   Q 586.50 376.17 588.28 373.83   Q 592.36 368.50 597.17 363.90   Q 601.98 359.30 607.48 355.46   Q 609.90 353.78 610.15 354.04   Z"/>
<ellipse xmlns="http://www.w3.org/2000/svg" fill="#0b0b0b" cx="0.00" cy="0.00" transform="translate(616.70,369.99) rotate(-15.5)" rx="10.82" ry="1.72"/>
<ellipse xmlns="http://www.w3.org/2000/svg" fill="#0b0b0b" cx="0.00" cy="0.00" transform="translate(504.94,385.78) rotate(-78.5)" rx="13.35" ry="1.62"/>
<path xmlns="http://www.w3.org/2000/svg" fill="#0b0b0b" d="M 601.99 390.88   Q 596.76 388.79 591.84 386.00   Q 586.24 382.81 586.41 382.38   Q 586.62 381.84 592.88 383.40   Q 598.37 384.76 603.60 386.85   Q 608.82 388.93 613.74 391.73   Q 619.35 394.91 619.17 395.35   Q 618.96 395.88 612.70 394.33   Q 607.21 392.97 601.99 390.88   Z"/>
<path xmlns="http://www.w3.org/2000/svg" fill="#e1c89a" d="M 581.82 399.66   A 10.80 10.80 0.0 0 1 571.02 410.46   A 10.80 10.80 0.0 0 1 560.22 399.66   A 10.80 10.80 0.0 0 1 571.02 388.86   A 10.80 10.80 0.0 0 1 581.82 399.66   Z   M 577.2606 399.6344   A 3.36 2.18 -58.2 0 0 573.6372 401.3412   A 3.36 2.18 -58.2 0 0 573.7194 405.3456   A 3.36 2.18 -58.2 0 0 577.3428 403.6388   A 3.36 2.18 -58.2 0 0 577.2606 399.6344   Z"/>
<path xmlns="http://www.w3.org/2000/svg" fill="#0b0b0b" d="M 490.35 411.06   Q 487.86 404.92 486.32 398.42   Q 485.65 395.56 485.99 395.43   Q 486.28 395.31 487.79 397.82   Q 491.23 403.54 493.73 409.69   Q 496.23 415.83 497.76 422.33   Q 498.44 425.18 498.10 425.32   Q 497.80 425.44 496.29 422.93   Q 492.85 417.20 490.35 411.06   Z"/>
<ellipse xmlns="http://www.w3.org/2000/svg" fill="#0b0b0b" cx="0.00" cy="0.00" transform="translate(575.49,402.49) rotate(-58.2)" rx="3.36" ry="2.18"/>
<ellipse xmlns="http://www.w3.org/2000/svg" fill="#0b0b0b" cx="0.00" cy="0.00" transform="translate(564.00,428.98) rotate(-142.8)" rx="11.91" ry="1.50"/>
<path xmlns="http://www.w3.org/2000/svg" fill="#0b0b0b" d="M 530.68 457.03   Q 530.84 457.56 523.93 460.76   Q 517.87 463.56 511.52 465.51   Q 505.17 467.45 498.57 468.52   Q 491.06 469.73 490.86 469.08   Q 490.70 468.55 497.61 465.35   Q 503.67 462.55 510.02 460.60   Q 516.37 458.66 522.96 457.59   Q 530.48 456.38 530.68 457.03   Z"/>
<path xmlns="http://www.w3.org/2000/svg" fill="#e1c89a" d="M 488.99 580.72   C 488.35 581.25 487.84 581.25 487.14 581.73   C 484.17 583.77 483.61 588.47 483.58 592.01   Q 483.51 599.74 483.52 643.63   A 2.52 2.51 -61.0 0 0 483.90 644.96   C 489.67 654.28 499.25 664.26 510.49 666.49   C 513.63 667.11 517.99 666.92 520.61 666.98   A 0.25 0.25 0.0 0 1 520.66 667.48   C 505.88 670.97 491.78 664.66 482.27 653.20   Q 478.08 648.16 473.35 641.89   Q 442.54 601.12 431.44 586.45   A 0.20 0.20 0.0 0 0 431.08 586.57   Q 430.98 632.15 431.04 640.48   Q 431.08 647.33 436.30 650.76   A 0.22 0.22 0.0 0 1 436.18 651.17   L 423.91 651.17   A 0.16 0.16 0.0 0 1 423.82 650.88   C 428.99 647.36 429.25 642.90 429.31 637.00   Q 429.36 632.26 429.41 591.50   Q 429.41 589.41 429.03 584.43   A 5.34 5.32 -66.2 0 0 427.92 581.55   Q 421.02 572.66 416.21 569.72   Q 406.43 563.74 394.98 566.53   A 0.42 0.42 0.0 0 1 394.70 565.75   Q 399.11 563.69 403.76 563.72   C 417.80 563.82 427.80 570.63 435.87 581.39   Q 454.08 605.68 481.23 641.21   A 0.35 0.34 -63.6 0 0 481.85 641.00   Q 481.86 624.35 481.85 603.84   Q 481.84 592.31 481.49 588.47   Q 481.02 583.18 476.51 580.82   A 0.27 0.27 0.0 0 1 476.63 580.31   L 488.84 580.31   A 0.23 0.23 0.0 0 1 488.99 580.72   Z"/>
<path xmlns="http://www.w3.org/2000/svg" fill="#e1c89a" d="M 732.82 664.32   A 0.27 0.27 0.0 0 1 732.96 664.83   Q 730.36 666.00 727.44 666.13   Q 712.63 666.80 701.93 658.01   C 694.47 651.87 688.88 641.89 682.58 632.16   Q 678.95 626.56 674.28 622.69   Q 670.77 619.78 665.72 620.01   A 0.35 0.35 0.0 0 1 665.35 619.66   L 665.35 619.41   A 0.17 0.17 0.0 0 1 665.52 619.24   Q 669.94 619.30 673.64 618.99   C 685.30 618.00 693.14 610.70 692.54 598.52   Q 691.91 585.90 681.02 582.06   C 676.81 580.57 670.24 580.96 665.75 581.14   C 660.97 581.34 660.49 584.35 660.40 588.83   Q 660.40 588.89 660.42 641.49   C 660.42 645.39 660.97 648.16 664.32 650.05   A 0.30 0.30 0.0 0 1 664.18 650.61   L 649.75 650.61   A 0.26 0.25 -61.0 0 1 649.62 650.14   C 652.97 647.99 653.42 644.98 653.47 640.94   Q 653.87 612.65 653.45 586.78   Q 653.37 582.21 649.14 580.25   A 0.20 0.20 0.0 0 1 649.23 579.87   Q 663.48 579.63 675.99 579.64   C 687.72 579.65 699.92 586.44 699.39 599.92   Q 698.92 611.89 687.30 617.32   Q 685.25 618.27 678.64 620.11   A 0.29 0.29 0.0 0 0 678.53 620.62   C 690.68 630.48 696.62 645.24 708.56 656.37   Q 718.93 666.04 732.82 664.32   Z"/>
<path xmlns="http://www.w3.org/2000/svg" fill="#e1c89a" d="M 338.70 580.27   Q 334.02 581.77 333.96 587.26   Q 333.82 601.79 333.86 629.24   C 333.88 646.07 328.12 662.47 310.08 666.75   Q 308.57 667.11 307.18 666.92   A 0.25 0.25 0.0 0 1 307.14 666.44   Q 322.46 661.56 325.52 645.17   Q 327.10 636.68 327.12 632.76   Q 327.27 601.04 327.13 590.03   C 327.07 585.75 326.61 581.88 322.51 580.27   A 0.27 0.26 55.4 0 1 322.60 579.76   L 338.62 579.76   A 0.26 0.26 0.0 0 1 338.70 580.27   Z"/>
<path xmlns="http://www.w3.org/2000/svg" fill="#e1c89a" d="M 402.35 580.90   A 0.34 0.34 0.0 0 1 402.42 580.22   L 414.22 580.22   A 0.30 0.29 32.1 0 1 414.35 580.78   C 410.21 582.78 409.61 586.71 409.47 591.25   Q 409.37 594.35 409.45 619.25   Q 409.47 626.99 408.39 632.09   C 405.08 647.77 392.24 654.90 376.81 651.99   C 356.81 648.20 353.63 632.65 353.74 615.29   Q 353.87 594.91 353.66 586.58   Q 353.55 581.84 349.42 580.33   A 0.29 0.29 0.0 0 1 349.52 579.76   L 365.03 579.76   A 0.25 0.25 0.0 0 1 365.12 580.24   Q 362.20 581.46 361.45 583.71   C 360.36 587.03 360.65 591.44 360.62 595.26   Q 360.49 611.44 360.67 622.00   C 360.84 632.23 364.15 644.30 373.98 648.69   Q 383.34 652.86 393.11 649.37   C 406.32 644.64 407.72 630.89 407.79 617.79   Q 407.91 595.69 407.59 589.02   C 407.46 586.54 405.74 581.59 402.35 580.90   Z"/>
<path xmlns="http://www.w3.org/2000/svg" fill="#e1c89a" d="M 601.47 614.06   Q 606.60 612.70 615.17 612.22   Q 622.45 611.82 624.59 605.07   A 0.33 0.33 0.0 0 1 625.24 605.17   L 625.24 620.70   A 0.39 0.39 0.0 0 1 624.48 620.81   C 623.22 616.64 620.74 615.17 616.48 614.49   Q 610.06 613.47 601.77 615.46   A 1.35 1.35 0.0 0 0 600.74 616.77   Q 600.83 639.50 600.77 647.03   Q 600.75 649.70 603.04 649.68   Q 609.55 649.63 618.01 649.59   C 625.80 649.55 633.44 647.20 638.03 641.30   C 638.88 640.21 639.42 638.63 640.29 637.73   A 0.23 0.23 0.0 0 1 640.68 637.95   L 637.51 650.11   A 0.99 0.99 0.0 0 1 636.55 650.86   L 590.11 650.86   A 0.19 0.19 0.0 0 1 590.02 650.50   Q 593.97 648.35 594.02 643.50   Q 594.15 631.76 594.16 619.32   A 0.35 0.35 0.0 0 0 593.60 619.04   C 586.97 624.01 582.86 628.19 582.09 636.49   A 0.49 0.49 0.0 0 1 581.58 636.93   L 581.56 636.93   A 0.43 0.43 0.0 0 1 581.15 636.49   C 581.24 627.68 586.03 620.97 593.64 616.87   A 0.89 0.87 77.1 0 0 594.11 616.10   Q 594.35 594.47 593.92 586.33   Q 593.70 582.14 590.03 580.65   A 0.31 0.30 55.8 0 1 590.14 580.06   L 633.17 580.06   A 1.10 1.09 -6.6 0 1 634.24 580.90   L 636.72 591.27   A 0.10 0.09 78.1 0 1 636.65 591.39   L 636.38 591.46   A 0.33 0.33 0.0 0 1 636.00 591.25   C 633.75 584.98 627.93 582.10 621.76 581.57   Q 619.00 581.33 601.47 581.44   A 0.72 0.72 0.0 0 0 600.76 582.16   L 600.76 613.51   A 0.57 0.56 82.6 0 0 601.47 614.06   Z"/>
<path xmlns="http://www.w3.org/2000/svg" fill="#e1c89a" d="M 509.19 580.38   Q 512.45 580.38 516.97 580.40   A 0.21 0.21 0.0 0 1 517.07 580.79   Q 512.56 583.29 512.61 588.71   Q 512.63 590.96 512.63 615.85   Q 512.63 640.75 512.61 642.99   Q 512.57 648.41 517.08 650.91   A 0.21 0.21 0.0 0 1 516.98 651.30   Q 512.46 651.32 509.20 651.32   Q 505.95 651.32 501.43 651.30   A 0.21 0.21 0.0 0 1 501.33 650.91   Q 505.84 648.41 505.79 643.00   Q 505.77 640.75 505.77 615.85   Q 505.76 590.96 505.79 588.71   Q 505.83 583.29 501.32 580.79   A 0.21 0.21 0.0 0 1 501.42 580.41   Q 505.94 580.38 509.19 580.38   Z"/>
<path xmlns="http://www.w3.org/2000/svg" fill="#e1c89a" d="M 530.46 580.77   A 0.20 0.20 0.0 0 1 530.56 580.39   Q 540.99 580.45 554.25 580.20   C 564.60 580.01 576.55 582.10 580.92 592.38   C 585.56 603.28 580.25 614.66 569.09 618.35   Q 564.67 619.81 555.06 621.69   Q 546.80 623.30 542.63 630.79   A 4.47 4.44 -24.6 0 0 542.16 632.04   Q 540.87 638.27 541.63 644.81   C 541.95 647.63 542.92 649.25 545.33 650.47   A 0.43 0.43 0.0 0 1 545.13 651.28   L 530.82 651.28   A 0.23 0.23 0.0 0 1 530.70 650.86   Q 534.73 648.47 534.78 642.75   Q 535.00 616.83 534.92 591.26   C 534.90 586.55 534.47 583.10 530.46 580.77   Z   M 541.94 629.50   C 545.81 621.41 552.91 620.59 561.23 618.42   Q 572.36 615.52 574.71 605.56   C 577.51 593.74 571.73 583.58 559.16 581.86   C 554.54 581.22 548.24 580.99 543.64 582.56   C 541.90 583.15 541.74 584.72 541.73 586.50   Q 541.63 597.94 541.69 629.45   A 0.13 0.13 0.0 0 0 541.94 629.50   Z"/>
<path xmlns="http://www.w3.org/2000/svg" fill="#0b0b0b" d="M 541.94 629.50   A 0.13 0.13 0.0 0 1 541.69 629.45   Q 541.63 597.94 541.73 586.50   C 541.74 584.72 541.90 583.15 543.64 582.56   C 548.24 580.99 554.54 581.22 559.16 581.86   C 571.73 583.58 577.51 593.74 574.71 605.56   Q 572.36 615.52 561.23 618.42   C 552.91 620.59 545.81 621.41 541.94 629.50   Z"/>
<path xmlns="http://www.w3.org/2000/svg" fill="#e1c89a" d="M 621.40 712.18   A 0.28 0.28 0.0 0 1 621.52 712.72   Q 617.49 714.71 617.45 719.98   Q 617.37 732.23 616.82 746.93   A 0.53 0.53 0.0 0 1 616.29 747.44   L 615.99 747.44   A 0.28 0.27 -2.2 0 1 615.71 747.19   Q 615.26 741.04 613.09 736.30   A 0.79 0.78 -36.1 0 0 611.80 736.10   Q 597.87 751.34 577.32 748.21   Q 560.55 745.66 552.84 732.24   C 546.99 722.05 546.69 707.07 551.45 696.41   C 561.54 673.84 588.85 669.80 608.58 681.70   Q 611.57 683.50 613.83 685.99   A 0.24 0.24 0.0 0 1 613.82 686.32   L 608.00 692.13   A 0.13 0.13 0.0 0 1 607.78 692.09   C 603.30 682.31 595.30 676.70 584.38 676.59   C 555.40 676.31 548.74 716.83 562.62 735.56   Q 573.57 750.32 591.37 746.60   Q 598.25 745.17 603.87 739.64   C 611.05 732.59 610.91 723.83 610.98 714.04   A 0.36 0.35 0.8 0 0 610.62 713.68   L 593.00 713.68   A 0.48 0.47 90.0 0 1 592.53 713.20   L 592.53 712.93   A 0.75 0.75 0.0 0 1 593.28 712.18   L 621.40 712.18   Z"/>
<path xmlns="http://www.w3.org/2000/svg" fill="#e1c89a" d="M 432.33 677.11   Q 427.64 678.61 427.58 684.12   Q 427.44 698.67 427.47 726.18   C 427.49 743.04 421.72 759.47 403.65 763.76   Q 402.13 764.12 400.74 763.93   A 0.25 0.25 0.0 0 1 400.70 763.45   Q 416.05 758.56 419.12 742.14   Q 420.70 733.63 420.72 729.70   Q 420.87 697.92 420.73 686.89   C 420.67 682.60 420.21 678.72 416.10 677.11   A 0.27 0.26 55.4 0 1 416.19 676.60   L 432.25 676.60   A 0.26 0.26 0.0 0 1 432.33 677.11   Z"/>
<path xmlns="http://www.w3.org/2000/svg" fill="#e1c89a" d="M 453.10 676.62   Q 460.52 676.63 461.05 676.66   A 0.30 0.30 0.0 0 1 461.10 677.26   C 456.09 678.41 456.50 684.77 456.48 689.25   Q 456.38 713.70 456.42 737.75   C 456.42 741.64 456.98 745.68 460.60 747.33   A 0.24 0.23 -32.2 0 1 460.50 747.78   Q 456.60 747.75 453.00 747.74   Q 449.40 747.74 445.51 747.76   A 0.24 0.23 32.3 0 1 445.40 747.31   C 449.03 745.67 449.60 741.63 449.61 737.74   Q 449.71 713.69 449.68 689.24   C 449.67 684.76 450.10 678.40 445.09 677.24   A 0.30 0.30 0.0 0 1 445.15 676.64   Q 445.68 676.61 453.10 676.62   Z"/>
<path xmlns="http://www.w3.org/2000/svg" fill="#e1c89a" d="M 485.69 747.97   L 474.24 747.97   A 0.31 0.31 0.0 0 1 474.07 747.40   Q 478.84 744.23 478.92 737.77   Q 479.25 707.55 479.24 685.50   Q 479.24 679.31 474.20 677.07   A 0.24 0.24 0.0 0 1 474.30 676.61   L 484.20 676.61   A 1.25 1.23 -18.0 0 1 485.20 677.11   L 530.45 738.25   A 0.26 0.26 0.0 0 0 530.92 738.10   Q 530.91 694.14 530.97 690.00   C 531.05 685.05 530.92 679.27 525.79 677.09   A 0.26 0.25 -33.5 0 1 525.89 676.60   L 538.28 676.60   A 0.29 0.29 0.0 0 1 538.36 677.17   C 534.26 678.28 533.03 682.95 532.95 686.76   Q 532.46 710.83 532.54 740.61   A 1.78 1.74 -60.7 0 0 532.78 741.50   Q 537.00 748.55 543.79 754.98   Q 554.48 765.11 569.30 763.05   A 0.43 0.43 0.0 0 1 569.79 763.48   L 569.79 763.73   A 0.14 0.13 85.2 0 1 569.68 763.87   Q 547.70 767.92 533.03 752.01   Q 529.12 747.77 519.43 734.61   Q 517.33 731.77 481.28 683.33   A 0.20 0.20 0.0 0 0 480.92 683.45   Q 480.91 734.50 480.92 736.25   Q 480.95 743.97 485.87 747.39   A 0.32 0.32 0.0 0 1 485.69 747.97   Z"/>
</g></g></g></g></svg>