<?xml version="1.0" encoding="UTF-8" standalone="no"?>
<svg
   direction="ltr"
   width="2078"
   height="568"
   viewBox="9856 1888 2077.9999 568"
   stroke-linecap="round"
   stroke-linejoin="round"
   data-color-mode="light"
   class="tl-container tl-theme__force-sRGB tl-theme__light"
   version="1.1"
   id="svg64"
   sodipodi:docname="SVG 1.svg"
   inkscape:version="1.4.4 (dcaf3e7, 2026-05-05)"
   xmlns:inkscape="http://www.inkscape.org/namespaces/inkscape"
   xmlns:sodipodi="http://sodipodi.sourceforge.net/DTD/sodipodi-0.dtd"
   xmlns="http://www.w3.org/2000/svg"
   xmlns:svg="http://www.w3.org/2000/svg">
  <sodipodi:namedview
     id="namedview64"
     pagecolor="#ffffff"
     bordercolor="#000000"
     borderopacity="0.25"
     inkscape:showpageshadow="2"
     inkscape:pageopacity="0.0"
     inkscape:pagecheckerboard="0"
     inkscape:deskcolor="#d1d1d1"
     showguides="true"
     inkscape:zoom="0.30124063"
     inkscape:cx="1175.1403"
     inkscape:cy="507.89962"
     inkscape:window-width="1470"
     inkscape:window-height="923"
     inkscape:window-x="0"
     inkscape:window-y="33"
     inkscape:window-maximized="0"
     inkscape:current-layer="svg64">
    <sodipodi:guide
       position="992.41147,-301.13157"
       orientation="0,-1"
       id="guide66"
       inkscape:locked="false" />
    <sodipodi:guide
       position="775.02181,-476.37771"
       orientation="0,-1"
       id="guide67"
       inkscape:locked="false" />
  </sodipodi:namedview>
  <defs
     id="defs1" />
  <g
     id="g69"
     transform="translate(948.0366,-1663.6513)">
    <rect
       style="fill:#000000;stroke-width:1.71044"
       id="rect64"
       width="2078"
       height="568"
       x="8919.0996"
       y="3552.4282" />
    <g
       id="g68"
       transform="translate(-983.62833,2468.3722)">
      <path
         stroke="#776c56"
         d="m 11090.552,1284.7525 a 0.52,0.52 0 0 0 -0.04,1 q 8.14,2.61 9.05,11.05 0.51,4.71 0.52,5.73 0.1,21.93 0.04,95.09 -0.01,10.76 -0.9,15.66 -1.36,7.52 -8.43,9.78 a 0.64,0.63 36 0 0 0.2,1.24 h 30.8 a 0.61,0.61 0 0 0 0.17,-1.2 q -7.63,-2.15 -8.89,-10.1 -0.7,-4.42 -0.7,-5.72 0,-8.59 0.05,-98.25 c 0,-3.22 -0.46,-11.28 1.37,-14.81 q 3.25,-6.31 10.71,-6.9 10.41,-0.82 20.5,-0.48 c 18.04,0.62 32.09,13.18 34.76,31.2 1.35,9.11 -0.49,19.71 -6.02,27.65 -11.46,16.45 -29.75,17.11 -48.3,16.29 a 1.22,1.22 0 0 0 -1.27,1.1 l -0.01,0.05 a 0.99,0.99 0 0 0 1.04,1.09 q 8.39,-0.49 15.07,3.99 c 11.07,7.42 18.43,19.48 25.85,31.12 10.66,16.74 20.24,30.99 35.25,42.32 q 15.58,11.76 35.14,13.66 13.97,1.35 24.59,-2.87 a 0.64,0.64 0 0 0 0.41,-0.6 v -0.35 a 0.71,0.7 83.3 0 0 -0.87,-0.69 c -32.85,7.84 -53.9,-13.91 -70.79,-38.38 q -11.58,-16.78 -20.27,-27.95 c -5.79,-7.44 -13.65,-15.69 -21.57,-19.17 a 0.35,0.35 0 0 1 0.1,-0.66 q 6.49,-0.82 12.88,-2.77 c 11.98,-3.65 21.75,-8.95 27.61,-19.98 6.1,-11.5 5.92,-25.4 -0.41,-36.77 -6.67,-11.98 -21.69,-19.43 -34.96,-20.22 q -16.3,-0.97 -34.24,-0.27 -12.45,0.48 -26.87,-0.04 -0.71,-0.03 -1.57,0.16"
         id="path4"
         style="fill:none;stroke-width:2;stroke-linecap:butt" />
      <g
         id="g66"
         transform="translate(495.97705,-1674.7122)">
        <path
           stroke="#776c56"
           d="m 10176.085,2970.7547 q 23.26,31.01 27.03,35.89 c 21.54,27.85 47.2,63.29 66.15,88.09 16.03,20.97 39.11,37.04 66.69,34.63 q 5.4,-0.47 10.71,-2.56 a 0.5,0.5 0 0 0 0.3,-0.59 l -0.08,-0.26 a 0.82,0.81 75.4 0 0 -0.98,-0.58 c -24.54,6.12 -44.68,-9.01 -58.93,-27.08 q -3.43,-4.35 -11.39,-14.59 a 3.15,3.1 22.4 0 1 -0.61,-1.43 q -0.28,-2.02 -0.23,-3.04 c 0.67,-12.41 -0.2,-24.42 -0.05,-36 q 0.32,-22.89 0.18,-55.01 c -0.04,-9.63 -0.15,-25.35 11.66,-27.48 a 0.55,0.55 0 0 0 0.45,-0.54 v -0.31 a 0.54,0.54 0 0 0 -0.54,-0.54 h -26.26 a 0.44,0.44 0 0 0 -0.19,0.83 q 0.36,0.17 2.55,1.05 c 7.96,3.2 9.67,12.91 9.69,20.26 q 0.14,35.9 0.27,70.53 c 0.03,7.61 -0.7,17.05 -0.03,25.84 a 0.43,0.44 4 0 1 -0.52,0.46 q -0.26,-0.05 -0.44,-0.34 c -3.05,-4.78 -6.46,-8.88 -9.9,-13.49 q -30.94,-41.42 -70.42,-93.71 c -11.07,-14.66 -22.46,-27.79 -39.48,-35.64 q -21.95,-10.11 -45.26,-3.37 a 1.76,1.77 88.2 0 0 -1.23,1.3 l -0.04,0.22 a 0.69,0.69 0 0 0 0.83,0.83 q 7.2,-1.61 12,-1.93 c 11.61,-0.79 23.87,3.88 33.16,11.17 7.45,5.86 15.57,14.77 21.55,23.37 a 2.68,2.68 0 0 1 0.48,1.53 q 0,18.96 -0.01,105.58 c 0,8.85 -1.27,20.95 -11.47,23.89 a 0.63,0.63 0 0 0 0.17,1.23 h 26.77 a 0.41,0.41 0 0 0 0.1,-0.8 c -11.52,-2.84 -13.02,-16.24 -12.95,-25.85 q 0.05,-7.27 0.03,-76.92 c 0,-8.48 0.33,-16.45 -0.15,-24.5 a 0.22,0.21 24.9 0 1 0.39,-0.14"
           id="path2"
           style="fill:none;stroke-width:2;stroke-linecap:butt" />
        <path
           stroke="#776c56"
           d="m 10386.965,3099.0747 a 0.51,0.51 0 0 0 0.13,-1 q -7.16,-1.92 -8.56,-9.21 -1.61,-8.39 -0.62,-21.29 0.7,-9.16 5.31,-14.78 c 5.34,-6.52 15.14,-11.26 23.43,-12.65 14.46,-2.43 28.85,-4.44 39.3,-12.92 11.69,-9.5 15.97,-25.33 11.84,-39.63 -5.19,-17.98 -23.33,-27.51 -40.99,-28.16 -20.24,-0.75 -40.35,0.27 -60.76,0.01 a 0.52,0.52 0 0 0 -0.14,1.02 c 8.68,2.3 9.39,11.85 9.42,19.8 q 0.14,31.17 0.06,90.73 -0.01,3.59 -0.33,9.33 c -0.47,8.57 -0.55,14.8 -9,17.94 a 0.42,0.42 0 0 0 0.14,0.81 h 30.77"
           id="path3"
           style="fill:none;stroke-width:2;stroke-linecap:butt" />
        <path
           stroke="#776c56"
           d="m 9972.6754,2959.2447 a 0.59,0.59 0 0 0 -0.18,1.15 q 6.27,2.01 7.8,7.76 1.59,5.97 1.59,14.59 0.02,43.47 -0.08,73.5 -0.04,13.84 -1.6,23.99 c -1.6,10.35 -5.48,22.79 -11.78,31.22 q -9.61,12.88 -25.84,17.15 a 0.59,0.59 0 0 0 -0.44,0.61 l 0.01,0.32 a 0.78,0.78 0 0 0 0.89,0.73 q 18.92,-2.73 31.8,-15.55 c 14.91,-14.85 19.01,-35.64 19.3,-56.22 q 0.15,-10.8 0.11,-77 c -0.01,-8.17 -0.02,-18.11 9.0696,-21.11 a 0.54,0.54 0 0 0 0.02,-1.01 q -0.56,-0.21 -0.83,-0.19 -2.14,0.14 -29.8396,0.06"
           id="path5"
           style="fill:none;stroke-width:2;stroke-linecap:butt" />
        <path
           stroke="#776c56"
           d="m 10148.705,2959.3947 q -14.02,-0.14 -26.71,-0.04 -0.26,0.01 -0.37,0.36 a 0.39,0.39 0 0 0 0.27,0.5 c 11.61,3.16 12.5,15.09 12.63,25.53 q 0.36,31.04 0.22,51.76 c -0.11,16.57 -2.54,36.55 -15.6,48.36 q -6.57,5.95 -12.57,8.52 -12.55,5.39 -27.6,3.09 -9.49,-1.46 -17.35,-7.82 c -7.41,-5.99 -12.01,-12.06 -15.17,-21.5 q -4.21,-12.58 -4.27,-25.92 -0.25,-49.99 0.09,-66.74 0.09,-4.6 1.73,-8.75 c 1.48,-3.78 3.82,-4.88 7.28,-6.45 a 0.49,0.49 0 0 0 -0.1,-0.92 q -0.97,-0.2 -2.42,-0.17 -10.78,0.27 -26.74,-0.01 -1.06,-0.02 -1.37,0.12 a 0.68,0.68 0 0 0 0.09,1.29 q 6.44,1.64 7.97,7.96 1.16,4.8 1.15,10.68 -0.08,42.55 0.07,59.48 0.15,15.86 4.2,27.85 c 6.7,19.78 22.15,30.99 42.96,33.82 18.08,2.46 37.62,-2.78 48.46,-18.11 q 7.87,-11.13 9.96,-24.8 1.48,-9.67 1.5,-16.74 0.21,-55.98 0.3,-61.49 c 0.08,-5.09 2.17,-13.84 7.11,-16.92 q 1.51,-0.95 4.44,-1.93 a 0.52,0.52 0 0 0 -0.16,-1.01"
           id="path6"
           style="fill:none;stroke-width:2;stroke-linecap:butt" />
        <path
           stroke="#776c56"
           d="m 10313.865,3029.2347 q -0.02,46.19 0.01,47.51 c 0.14,7.23 0.02,18.19 -8.24,20.69 q -1.05,0.32 -1.6,0.9 a 0.46,0.46 0 0 0 0.34,0.78 q 9.16,-0.07 15.77,-0.06 6.6,0 15.76,0.06 a 0.46,0.46 0 0 0 0.34,-0.77 q -0.55,-0.58 -1.6,-0.9 c -8.25,-2.51 -8.37,-13.47 -8.22,-20.7 q 0.02,-1.31 0.03,-47.51 0.02,-46.19 -0.01,-47.5 c -0.14,-7.23 -0.02,-18.19 8.24,-20.69 q 1.05,-0.32 1.6,-0.9 a 0.46,0.46 0 0 0 -0.34,-0.78 q -9.16,0.06 -15.77,0.06 -6.6,0 -15.76,-0.07 a 0.46,0.46 0 0 0 -0.34,0.78 q 0.55,0.58 1.6,0.9 c 8.26,2.5 8.37,13.46 8.22,20.69 q -0.02,1.32 -0.03,47.51"
           id="path7"
           style="fill:none;stroke-width:2;stroke-linecap:butt" />
        <path
           stroke="#776c56"
           d="m 10481.885,3035.5547 a 0.24,0.24 0 0 1 0.31,0.23 q -0.02,30.89 -0.08,39.97 c -0.05,8.33 -0.18,19.67 -9.56,22.18 q -0.31,0.09 -0.34,0.48 -0.04,0.54 0.5,0.54 48.3,0.15 97.72,0.07 a 0.21,0.2 7.2 0 0 0.2,-0.15 l 7.15,-25.5 a 0.66,0.69 34.1 0 0 -0.1,-0.58 l -0.06,-0.08 a 0.52,0.52 0 0 0 -0.8,0.16 c -7.39,14.2 -21.78,23.25 -37.8,23.59 q -23.93,0.51 -43.46,0.43 a 1.07,1.07 0 0 1 -1.07,-1.07 v -65.06 a 1.1,1.08 82.8 0 1 0.81,-1.06 q 15.86,-4.22 32.11,-2.53 c 7.04,0.73 14.69,5.19 16.18,12.62 a 1.21,1.21 0 0 0 1.11,0.97 h 0.04 a 0.81,0.82 0.3 0 0 0.86,-0.86 q -0.82,-14.93 -0.2,-29.95 a 0.68,0.68 0 0 0 -0.49,-0.68 l -0.38,-0.1 a 0.83,0.83 0 0 0 -1.05,0.68 c -1.26,8.19 -9.66,12.56 -17.21,13.21 -13.49,1.15 -21.19,1.39 -31.16,4.41 a 0.5,0.5 0 0 1 -0.65,-0.48 v -65.26 a 0.37,0.37 0 0 1 0.37,-0.37 q 22.3,-0.05 37.17,0.04 c 11.76,0.08 22.84,3.55 31.59,11.69 2.45,2.27 3.65,5.03 5.41,7.69 a 0.6,0.6 0 0 0 1.04,0.1 l 0.07,-0.1 a 0.12,0.06 73.2 0 0 0.01,-0.05 l -5.57,-20.39 a 1.41,1.42 82.6 0 0 -1.37,-1.05 h -90.62 a 0.44,0.45 82.5 0 0 -0.43,0.56 q 0.13,0.47 0.74,0.6 c 8.48,1.83 9.12,11.23 9.18,19.05 q 0.21,24.87 0.14,51.99 a 0.82,0.82 0 0 1 -0.47,0.74 q -4.87,2.31 -9.51,6.19 -15.32,12.81 -15.27,32.74 a 0.78,0.78 0 0 0 0.78,0.78 h 0.3 a 1.11,1.11 0 0 0 1.11,-1.07 c 0.52,-15.04 9.21,-26.09 21.12,-34.4 q 1.1,-0.77 1.63,-0.92"
           id="path8"
           style="fill:none;stroke-width:2;stroke-linecap:butt" />
        <path
           stroke="#776c56"
           d="m 10378.025,3056.4647 q 3.61,-6.74 10,-11.63 c 4.5,-3.45 12.85,-5.94 17.74,-7.1 13.83,-3.3 22.54,-4.32 31.35,-13.83 7.83,-8.46 9.93,-17.24 9.3,-28.12 q -0.86,-14.81 -11.12,-24.56 c -9.86,-9.38 -22.51,-10.35 -35.28,-9.82 q -11.12,0.47 -14.25,0.78 c -7.04,0.69 -8.06,6.45 -8.1,12.31 q -0.05,6.3 -0.05,81.87 a 0.22,0.22 0 0 0 0.41,0.1"
           id="path29"
           style="fill:none;stroke-width:2;stroke-linecap:butt" />
        <path
           fill="#e2cca0"
           d="m 10176.085,2970.7547 a 0.22,0.21 24.9 0 0 -0.39,0.14 c 0.48,8.05 0.15,16.02 0.15,24.5 q 0.02,69.65 -0.03,76.92 c -0.07,9.61 1.43,23.01 12.95,25.85 a 0.41,0.41 0 0 1 -0.1,0.8 h -26.77 a 0.63,0.63 0 0 1 -0.17,-1.23 c 10.2,-2.94 11.47,-15.04 11.47,-23.89 q 0.01,-86.62 0.01,-105.58 a 2.68,2.68 0 0 0 -0.48,-1.53 c -5.98,-8.6 -14.1,-17.51 -21.55,-23.37 -9.29,-7.29 -21.55,-11.96 -33.16,-11.17 q -4.8,0.32 -12,1.93 a 0.69,0.69 0 0 1 -0.83,-0.83 l 0.04,-0.22 a 1.76,1.77 88.2 0 1 1.23,-1.3 q 23.31,-6.74 45.26,3.37 c 17.02,7.85 28.41,20.98 39.48,35.64 q 39.48,52.29 70.42,93.71 c 3.44,4.61 6.85,8.71 9.9,13.49 q 0.18,0.29 0.44,0.34 a 0.43,0.44 4 0 0 0.52,-0.46 c -0.67,-8.79 0.06,-18.23 0.03,-25.84 q -0.13,-34.63 -0.27,-70.53 c -0.02,-7.35 -1.73,-17.06 -9.69,-20.26 q -2.19,-0.88 -2.55,-1.05 a 0.44,0.44 0 0 1 0.19,-0.83 h 26.26 a 0.54,0.54 0 0 1 0.54,0.54 v 0.31 a 0.55,0.55 0 0 1 -0.45,0.54 c -11.81,2.13 -11.7,17.85 -11.66,27.48 q 0.14,32.12 -0.18,55.01 c -0.15,11.58 0.72,23.59 0.05,36 q -0.05,1.02 0.23,3.04 a 3.15,3.1 22.4 0 0 0.61,1.43 q 7.96,10.24 11.39,14.59 c 14.25,18.07 34.39,33.2 58.93,27.08 a 0.82,0.81 75.4 0 1 0.98,0.58 l 0.08,0.26 a 0.5,0.5 0 0 1 -0.3,0.59 q -5.31,2.09 -10.71,2.56 c -27.58,2.41 -50.66,-13.66 -66.69,-34.63 -18.95,-24.8 -44.61,-60.24 -66.15,-88.09 q -3.77,-4.88 -27.03,-35.89 z"
           id="path35" />
        <path
           fill="#e2cca0"
           d="m 10386.965,3099.0747 h -30.77 a 0.42,0.42 0 0 1 -0.14,-0.81 c 8.45,-3.14 8.53,-9.37 9,-17.94 q 0.32,-5.74 0.33,-9.33 0.08,-59.56 -0.06,-90.73 c -0.03,-7.95 -0.74,-17.5 -9.42,-19.8 a 0.52,0.52 0 0 1 0.14,-1.02 c 20.41,0.26 40.52,-0.76 60.76,-0.01 17.66,0.65 35.8,10.18 40.99,28.16 4.13,14.3 -0.15,30.13 -11.84,39.63 -10.45,8.48 -24.84,10.49 -39.3,12.92 -8.29,1.39 -18.09,6.13 -23.43,12.65 q -4.61,5.62 -5.31,14.78 -0.99,12.9 0.62,21.29 1.4,7.29 8.56,9.21 a 0.51,0.51 0 0 1 -0.13,1 z m -8.94,-42.61 q 3.61,-6.74 10,-11.63 c 4.5,-3.45 12.85,-5.94 17.74,-7.1 13.83,-3.3 22.54,-4.32 31.35,-13.83 7.83,-8.46 9.93,-17.24 9.3,-28.12 q -0.86,-14.81 -11.12,-24.56 c -9.86,-9.38 -22.51,-10.35 -35.28,-9.82 q -11.12,0.47 -14.25,0.78 c -7.04,0.69 -8.06,6.45 -8.1,12.31 q -0.05,6.3 -0.05,81.87 a 0.22,0.22 0 0 0 0.41,0.1 z"
           id="path38" />
        <path
           fill="#e2cca0"
           d="m 10594.575,2959.4647 q 0.86,-0.19 1.57,-0.16 14.42,0.52 26.87,0.04 17.94,-0.7 34.24,0.27 c 13.27,0.79 28.29,8.24 34.96,20.22 6.33,11.37 6.51,25.27 0.41,36.77 -5.86,11.03 -15.63,16.33 -27.61,19.98 q -6.39,1.95 -12.88,2.77 a 0.35,0.35 0 0 0 -0.1,0.66 c 7.92,3.48 15.78,11.73 21.57,19.17 q 8.69,11.17 20.27,27.95 c 16.89,24.47 37.94,46.22 70.79,38.38 a 0.71,0.7 83.3 0 1 0.87,0.69 v 0.35 a 0.64,0.64 0 0 1 -0.41,0.6 q -10.62,4.22 -24.59,2.87 -19.56,-1.9 -35.14,-13.66 c -15.01,-11.33 -24.59,-25.58 -35.25,-42.32 -7.42,-11.64 -14.78,-23.7 -25.85,-31.12 q -6.68,-4.48 -15.07,-3.99 a 0.99,0.99 0 0 1 -1.04,-1.09 l 0.01,-0.05 a 1.22,1.22 0 0 1 1.27,-1.1 c 18.55,0.82 36.84,0.16 48.3,-16.29 5.53,-7.94 7.37,-18.54 6.02,-27.65 -2.67,-18.02 -16.72,-30.58 -34.76,-31.2 q -10.09,-0.34 -20.5,0.48 -7.46,0.59 -10.71,6.9 c -1.83,3.53 -1.37,11.59 -1.37,14.81 q -0.05,89.66 -0.05,98.25 0,1.3 0.7,5.72 1.26,7.95 8.89,10.1 a 0.61,0.61 0 0 1 -0.17,1.2 h -30.8 a 0.64,0.63 36 0 1 -0.2,-1.24 q 7.07,-2.26 8.43,-9.78 0.89,-4.9 0.9,-15.66 0.06,-73.16 -0.04,-95.09 -0.01,-1.02 -0.52,-5.73 -0.91,-8.44 -9.05,-11.05 a 0.52,0.52 0 0 1 0.04,-1 z"
           id="path39" />
        <path
           fill="#e2cca0"
           d="m 9972.6754,2959.2447 q 27.6996,0.08 29.8396,-0.06 0.27,-0.02 0.83,0.19 a 0.54,0.54 0 0 1 -0.02,1.01 c -9.0896,3 -9.0796,12.94 -9.0696,21.11 q 0.04,66.2 -0.11,77 c -0.29,20.58 -4.39,41.37 -19.3,56.22 q -12.88,12.82 -31.8,15.55 a 0.78,0.78 0 0 1 -0.89,-0.73 l -0.01,-0.32 a 0.59,0.59 0 0 1 0.44,-0.61 q 16.23,-4.27 25.84,-17.15 c 6.3,-8.43 10.18,-20.87 11.78,-31.22 q 1.56,-10.15 1.6,-23.99 0.1,-30.03 0.08,-73.5 0,-8.62 -1.59,-14.59 -1.53,-5.75 -7.8,-7.76 a 0.59,0.59 0 0 1 0.18,-1.15 z"
           id="path40" />
        <path
           fill="#e2cca0"
           d="m 10148.705,2959.3947 a 0.52,0.52 0 0 1 0.16,1.01 q -2.93,0.98 -4.44,1.93 c -4.94,3.08 -7.03,11.83 -7.11,16.92 q -0.09,5.51 -0.3,61.49 -0.02,7.07 -1.5,16.74 -2.09,13.67 -9.96,24.8 c -10.84,15.33 -30.38,20.57 -48.46,18.11 -20.81,-2.83 -36.26,-14.04 -42.96,-33.82 q -4.05,-11.99 -4.2,-27.85 -0.15,-16.93 -0.07,-59.48 0.01,-5.88 -1.15,-10.68 -1.53,-6.32 -7.97,-7.96 a 0.68,0.68 0 0 1 -0.09,-1.29 q 0.31,-0.14 1.37,-0.12 15.96,0.28 26.74,0.01 1.45,-0.03 2.42,0.17 a 0.49,0.49 0 0 1 0.1,0.92 c -3.46,1.57 -5.8,2.67 -7.28,6.45 q -1.64,4.15 -1.73,8.75 -0.34,16.75 -0.09,66.74 0.06,13.34 4.27,25.92 c 3.16,9.44 7.76,15.51 15.17,21.5 q 7.86,6.36 17.35,7.82 15.05,2.3 27.6,-3.09 6,-2.57 12.57,-8.52 c 13.06,-11.81 15.49,-31.79 15.6,-48.36 q 0.14,-20.72 -0.22,-51.76 c -0.13,-10.44 -1.02,-22.37 -12.63,-25.53 a 0.39,0.39 0 0 1 -0.27,-0.5 q 0.11,-0.35 0.37,-0.36 12.69,-0.1 26.71,0.04 z"
           id="path41" />
        <path
           fill="#e2cca0"
           d="m 10320.175,2959.4247 q 6.61,0 15.77,-0.06 a 0.46,0.46 0 0 1 0.34,0.78 q -0.55,0.58 -1.6,0.9 c -8.26,2.5 -8.38,13.46 -8.24,20.69 q 0.03,1.31 0.01,47.5 -0.01,46.2 -0.03,47.51 c -0.15,7.23 -0.03,18.19 8.22,20.7 q 1.05,0.32 1.6,0.9 a 0.46,0.46 0 0 1 -0.34,0.77 q -9.16,-0.06 -15.76,-0.06 -6.61,-0.01 -15.77,0.06 a 0.46,0.46 0 0 1 -0.34,-0.78 q 0.55,-0.58 1.6,-0.9 c 8.26,-2.5 8.38,-13.46 8.24,-20.69 q -0.03,-1.32 -0.01,-47.51 0.01,-46.19 0.03,-47.51 c 0.15,-7.23 0.04,-18.19 -8.22,-20.69 q -1.05,-0.32 -1.6,-0.9 a 0.46,0.46 0 0 1 0.34,-0.78 q 9.16,0.07 15.76,0.07 z"
           id="path42" />
        <path
           fill="#e2cca0"
           d="m 10481.885,3035.5547 q -0.53,0.15 -1.63,0.92 c -11.91,8.31 -20.6,19.36 -21.12,34.4 a 1.11,1.11 0 0 1 -1.11,1.07 h -0.3 a 0.78,0.78 0 0 1 -0.78,-0.78 q -0.05,-19.93 15.27,-32.74 4.64,-3.88 9.51,-6.19 a 0.82,0.82 0 0 0 0.47,-0.74 q 0.07,-27.12 -0.14,-51.99 c -0.06,-7.82 -0.7,-17.22 -9.18,-19.05 q -0.61,-0.13 -0.74,-0.6 a 0.44,0.45 82.5 0 1 0.43,-0.56 h 90.62 a 1.41,1.42 82.6 0 1 1.37,1.05 l 5.57,20.39 a 0.12,0.06 73.2 0 1 -0.01,0.05 l -0.07,0.1 a 0.6,0.6 0 0 1 -1.04,-0.1 c -1.76,-2.66 -2.96,-5.42 -5.41,-7.69 -8.75,-8.14 -19.83,-11.61 -31.59,-11.69 q -14.87,-0.09 -37.17,-0.04 a 0.37,0.37 0 0 0 -0.37,0.37 v 65.26 a 0.5,0.5 0 0 0 0.65,0.48 c 9.97,-3.02 17.67,-3.26 31.16,-4.41 7.55,-0.65 15.95,-5.02 17.21,-13.21 a 0.83,0.83 0 0 1 1.05,-0.68 l 0.38,0.1 a 0.68,0.68 0 0 1 0.49,0.68 q -0.62,15.02 0.2,29.95 a 0.81,0.82 0.3 0 1 -0.86,0.86 h -0.04 a 1.21,1.21 0 0 1 -1.11,-0.97 c -1.49,-7.43 -9.14,-11.89 -16.18,-12.62 q -16.25,-1.69 -32.11,2.53 a 1.1,1.08 82.8 0 0 -0.81,1.06 v 65.06 a 1.07,1.07 0 0 0 1.07,1.07 q 19.53,0.08 43.46,-0.43 c 16.02,-0.34 30.41,-9.39 37.8,-23.59 a 0.52,0.52 0 0 1 0.8,-0.16 l 0.06,0.08 a 0.66,0.69 34.1 0 1 0.1,0.58 l -7.15,25.5 a 0.21,0.2 7.2 0 1 -0.2,0.15 q -49.42,0.08 -97.72,-0.07 -0.54,0 -0.5,-0.54 0.03,-0.39 0.34,-0.48 c 9.38,-2.51 9.51,-13.85 9.56,-22.18 q 0.06,-9.08 0.08,-39.97 a 0.24,0.24 0 0 0 -0.31,-0.23 z"
           id="path43" />
      </g>
      <g
         id="g67"
         transform="matrix(0.9202042,0,0,0.91134419,1297.8357,-1474.9939)">
        <path
           stroke="#776c56"
           d="m 9713.0154,3101.2447 -1.9,-38.91 a 0.41,0.41 0 0 0 -0.43,-0.39 l -0.26,0.01 a 1.04,1.03 0.9 0 0 -0.98,0.94 q -1.14,13.38 -0.69,20.62 c 0.99,16.19 1.37,27.92 2.33,42.23 q 0.62,9.29 0.27,20.05 0,0.1 0.05,0.37 0.05,0.24 -0.13,0.35 a 0.3,0.3 0 0 1 -0.45,-0.17 q -2.34,-7.98 -5.76,-16.88 -2.42,-6.31 -11.89,-20.2 -0.99,-1.46 -2.5,-2.15 a 0.92,0.91 9.9 0 0 -1.29,0.9 q 2.01,26.17 16.41,47.69 c 2.87,4.28 4.58,6.55 3.65,12.34 q -1.44,8.82 -2.99,13.13 c -3.14,8.71 -5.3,15.32 -10.04,21.81 -5.35,7.32 -9.73,12.6 -13.29,19.11 q -2.29,4.18 -8.13,13.22 c -6.98,10.83 -12.48,23.93 -17.02,34.39 q -2.47,5.7 -3.91,11.51 a 1.2,1.2 0 0 0 0.27,1.1 q 1.27,1.4 3.35,0.81 a 1.33,1.31 7.8 0 0 0.77,-0.58 q 1.49,-2.4 2.6,-5.51 4.58,-12.85 9.79,-22.48 2.89,-5.35 8.86,-16.64 4.88,-9.24 10.83,-16.68 1.41,-1.77 3.45,-2.08 c 14.38,-2.17 27.91,-4.57 41,-9.8 a 0.39,0.38 81.1 0 1 0.53,0.39 q -1.48,19.13 -8.07,37.44 c -5.73,15.93 -18.75,33.23 -34.11,40.86 -10.62,5.27 -21.02,8.64 -32.87,9.1 -13.79,0.54 -26.02,-0.58 -39.27,-5.56 q -25.23,-9.46 -39.82,-31.23 c -15.09,-22.51 -18.75,-50.78 -7.86,-75.89 q 9.64,-22.2 31.2,-32.51 c 24.36,-11.64 58.11,-4.49 69.12,22.3 q 4.6,11.16 1.75,24.11 a 0.84,0.84 0 0 0 1.1,0.97 c 3.45,-1.26 6.86,-8.73 8.25,-12.28 q 2.09,-5.32 2.18,-11.76 0.28,-18.82 -12.93,-32.25 c -11.24,-11.42 -27.61,-16.06 -43.38,-14.99 -42.39,2.87 -69.49,39.17 -71.24,79.63 -1.38,32.01 12.25,61.36 38.67,79.85 22.56,15.8 51.27,19.9 78.07,16.25 q 24.9,-3.38 46.03,-17.47 c 17.26,-11.52 30.47,-29.49 36.99,-49.02 q 7.26,-21.75 7.56,-44.82 0.3,-23.13 0.08,-41.64 a 1.55,1.55 0 0 1 1.1,-1.51 c 3.24,-0.98 10.97,-2.83 13.33,0.03 q 13.72,16.61 33.27,25.13 a 1,1 0 0 0 1.39,-0.81 q 0.1,-0.95 -0.65,-2.25 c -5.93,-10.21 -15.17,-19.26 -26.41,-24.18 a 0.29,0.29 0 0 1 0.12,-0.56 q 10.73,0.27 31.39,1.02 6.07,0.23 16.9,-1.36 a 1.23,1.23 0 0 0 0.9,-1.8 l -0.03,-0.07 a 2.77,2.76 74 0 0 -2.58,-1.43 q -15.86,0.94 -21.18,0.57 c -16.14,-1.13 -28.76,-2.39 -43.47,0.48 q -7.93,1.54 -12.7,4.35 c -8.6,5.06 -14.91,12.03 -20.94,20.46 q -1.18,1.65 -1.21,4.34 -0.08,8.45 -0.22,21.89 a 0.75,0.75 0 0 1 -0.62,0.73 c -13.13,2.42 -24.69,7.44 -36.47,13.65 a 0.36,0.36 0 0 1 -0.45,-0.53 c 8.15,-11.34 17.5,-23.83 27.07,-34.46 4.81,-5.35 12.84,-15.37 20.42,-23.32 q 9.73,-10.22 19.27,-20.84 3.19,-3.56 7.14,-7.24 6.17,-5.76 7.58,-6.74 18.73,-12.94 40.67,-19.35 a 1.66,1.67 55.5 0 1 1.48,0.27 q 5.05,3.86 11.59,8.03 18.29,11.67 40.15,12.84 1.48,0.08 2.53,-0.35 a 0.9,0.9 0 0 0 0.35,-1.41 c -2.94,-3.51 -6.44,-5.76 -11.39,-8.9 q -17.07,-10.82 -36.21,-13.61 a 0.39,0.39 0 0 1 -0.04,-0.76 l 19.37,-4.73 a 5.9,5.88 37.5 0 1 1.32,-0.17 q 13.35,-0.14 20.42,-2.71 8.96,-3.25 16.65,-8.14 a 1.16,1.24 56.5 0 0 0.4,-1.67 q -0.47,-0.7 -1.53,-0.84 -21.47,-2.86 -37.23,10.13 a 2.04,1.95 17.2 0 1 -0.8,0.4 l -13.68,3.34 a 0.3,0.3 0 0 1 -0.25,-0.54 q 5.5,-3.95 12.76,-10.38 c 5.27,-4.67 10.06,-10.65 14,-16.38 q 1.62,-2.35 2.82,-5.01 a 0.97,0.97 0 0 0 -1.06,-1.35 q -1.61,0.3 -3.71,1.37 -17.76,9.02 -29.55,24.24 -4.45,5.73 -8.1,11.31 a 4.03,4.01 10.1 0 1 -2.49,1.73 q -6.92,1.61 -13.62,4.56 -10.61,4.67 -18.33,8.78 a 0.34,0.34 0 0 1 -0.44,-0.49 q 0.78,-1.14 12.62,-16.94 c 7.7,-10.27 16.52,-24.46 21.41,-32.4 3.69,-5.99 7.59,-16.61 12.69,-25.09 a 2.3,2.3 0 0 1 1.38,-1.04 q 10.01,-2.68 15.53,-4.53 c 14.08,-4.7 27.61,-11.71 38.73,-22.25 q 0.92,-0.88 1.06,-1.59 a 1.08,1.08 0 0 0 -1.23,-1.27 q -28.59,4.76 -51.13,22.09 a 0.19,0.19 0 0 1 -0.29,-0.21 q 2.29,-6.61 5.75,-15.9 c 0.89,-2.4 2.2,-3.73 4.26,-5 14.54,-9.02 27.21,-21.79 33.36,-38.08 a 0.76,0.76 0 0 0 -0.83,-1.02 c -1.74,0.27 -3.16,1.53 -4.44,2.36 q -12.71,8.16 -22.21,20.11 c -1.52,1.91 -2.09,3.41 -3.56,4.88 a 0.19,0.18 74.7 0 1 -0.31,-0.18 l 5.47,-22.15 a 9.4,9.45 66.3 0 1 0.91,-2.32 c 2.59,-4.64 5.37,-9.16 6.88,-14.12 q 3.98,-13.08 2.56,-28.5 a 0.96,0.96 0 0 0 -1.29,-0.81 q -0.58,0.22 -0.95,0.72 -9.08,12.19 -10.69,27.64 c -0.47,4.43 0.26,13.14 -0.98,18.89 -1.42,6.57 -3.93,13.94 -5.75,19.13 a 0.11101802,0.11101802 0 0 1 -0.22,-0.03 q -0.09,-15.53 -3.69,-31.76 -1.39,-6.23 -4.12,-12.33 a 1.55,1.38 69.9 0 0 -1.68,-0.9 q -0.2,0.05 -0.51,0.45 -0.83,1.05 -1.37,4.12 -1.14,6.54 -1.07,19.7 c 0.06,11.74 2.34,21.72 5.64,33.28 q 1.06,3.7 0.38,5.74 -3.82,11.46 -10.16,23.83 a 0.27,0.27 0 0 1 -0.51,-0.16 q 0.5,-3.64 0.18,-7.96 -0.56,-7.5 -2.37,-16.22 -3.89,-18.77 -13.31,-34.15 -0.87,-1.41 -2.12,-2.14 a 0.69,0.69 0 0 0 -1.03,0.5 q -0.5,3.55 -0.33,7.96 1.13,28.5 15.13,56.03 1.07,2.09 0.09,4.59 -2.03,5.17 -4.71,9.83 -10.8,18.76 -21.28,33.47 -2.06,2.88 -4,5.24 a 0.47,0.48 66.5 0 1 -0.84,-0.33 q 0.71,-10.9 -0.78,-21.27 c -1.64,-11.39 -3.34,-20.4 -4.33,-31.29 q -0.69,-7.57 -1.61,-13.41 a 0.48,0.48 0 0 0 -0.81,-0.26 l -0.06,0.05 a 2.1,2.08 66.7 0 0 -0.61,1.55 q 0.63,19.56 4.34,42.87 0.56,3.56 0.26,7.06 a 0.31,0.31 0 0 1 -0.6,0.06 q -3.54,-12.4 -11.82,-23.1 -0.85,-1.1 -1.78,-1.23 a 0.85,0.86 1.6 0 0 -0.97,0.92 q 1.71,18.66 11.02,35.48 2.87,5.19 2.94,7.81 0.05,2.01 -1.53,4.17 -8.72,11.92 -18.77,22.33 a 0.44,0.44 0 0 1 -0.75,-0.3 q -0.13,-68.4 -0.07,-140.21 0,-8.03 2.06,-16.57 c 1.51,-6.27 4.91,-11.85 10.77,-13.98 q 4.02,-1.46 9.88,-2.04 a 1.13,1.12 87.2 0 0 1.01,-1.12 v -2.76 a 0.85,0.85 0 0 0 -0.85,-0.85 q -70.48,-0.17 -70.72,-0.17 c -26.47,-0.01 -53.39,9.18 -73.08,26.64 -9.52,8.44 -17.33,19.75 -21.75,30.98 q -9.89,25.08 -0.96,51.63 c 8.23,24.48 30.32,39.42 55.55,41.98 q 4.97,0.5 9.51,0.06 1.66,-0.17 2.16,-1.71 a 1.67,1.81 12.8 0 0 -1.33,-2.32 q -9.98,-1.27 -18.01,-6.57 c -17.33,-11.43 -25.39,-28.99 -26.78,-49.71 -1.28,-19.28 2.37,-37.19 13.56,-53.17 q 12.61,-18.02 32.12,-25.82 c 11.71,-4.68 37.1,-11.99 42.53,5.46 q 1.91,6.15 2.34,10.82 0.78,8.41 0.85,22.5 0.36,72.01 0.13,153.22 c -0.02,5.22 0.57,8.07 -2.75,11.84 -7.07,8.02 -11.14,12.23 -16.04,18.63 q -3.97,5.17 -5.91,7.07 a 0.33,0.33 0 0 1 -0.55,-0.18 q -0.07,-0.45 0.05,-0.94 c 1.58,-6.46 3.11,-12.22 3.8,-18.94 q 1.31,-12.91 0.76,-29.24 -0.2,-5.63 0.48,-7.09 c 6.76,-14.62 10.86,-33.77 8.69,-49.11 a 0.82,0.82 0 0 0 -1.3,-0.54 q -0.91,0.67 -1.5,1.85 -5.14,10.25 -8.18,22.45 a 0.32,0.33 50.5 0 1 -0.64,-0.06"
           id="path1"
           style="fill:none;stroke-width:2;stroke-linecap:butt" />
        <path
           stroke="#776c56"
           d="m 9804.8964,3028.6391 a 12.24,11.89 80.6 0 0 -9.731,14.0175 12.24,11.89 80.6 0 0 13.729,10.1337 12.24,11.89 80.6 0 0 9.731,-14.0175 12.24,11.89 80.6 0 0 -13.729,-10.1337"
           id="path9"
           style="fill:none;stroke-width:2;stroke-linecap:butt" />
        <path
           stroke="#776c56"
           d="m 9848.0314,3035.718 a 11.69,11.93 30.9 0 0 -16.157,4.2334 11.69,11.93 30.9 0 0 3.904,16.24 11.69,11.93 30.9 0 0 16.158,-4.2334 11.69,11.93 30.9 0 0 -3.905,-16.24"
           id="path10"
           style="fill:none;stroke-width:2;stroke-linecap:butt" />
        <path
           stroke="#776c56"
           d="m 9819.9154,3120.3347 a 14.18,14.18 0 0 0 -14.18,-14.18 14.18,14.18 0 0 0 -14.18,14.18 14.18,14.18 0 0 0 14.18,14.18 14.18,14.18 0 0 0 14.18,-14.18"
           id="path11"
           style="fill:none;stroke-width:2;stroke-linecap:butt" />
        <path
           stroke="#776c56"
           d="m 9862.2954,2929.5647 a 0.18,0.18 0 0 0 -0.33,-0.09 q -9.28,13.81 -7.42,30.17 a 0.34,0.34 0 0 0 0.57,0.21 q 1.32,-1.21 2.21,-3.04 c 4.15,-8.59 5.14,-17.94 4.97,-27.25"
           id="path16"
           style="fill:none;stroke-width:2;stroke-linecap:butt" />
        <path
           stroke="#776c56"
           d="m 9835.4954,2975.1347 q 1.11,11.6 4.54,22.86 0.27,0.88 0.61,0.85 0.33,-0.03 0.42,-0.95 1.24,-11.71 0.14,-23.31 -1.11,-11.6 -4.54,-22.86 -0.27,-0.88 -0.6,-0.85 -0.33,0.03 -0.43,0.95 -1.24,11.7 -0.14,23.31"
           id="path17"
           style="fill:none;stroke-width:2;stroke-linecap:butt" />
        <path
           stroke="#776c56"
           d="m 9863.0154,2985.5447 q 6.51,-6.99 11.36,-15.52 a 0.22,0.22 0 0 0 -0.32,-0.28 q -8.2,5.9 -14.46,12.62 -6.26,6.72 -11.55,15.33 a 0.22,0.22 0 0 0 0.3,0.3 q 8.16,-5.45 14.67,-12.45"
           id="path18"
           style="fill:none;stroke-width:2;stroke-linecap:butt" />
        <path
           stroke="#776c56"
           d="m 9825.1454,3030.4647 q -0.61,-19.06 -6.54,-37.05 -2.41,-7.34 -6,-13.22 a 0.4,0.41 28.3 0 0 -0.75,0.23 c 0.29,10.7 2.46,19.14 5.27,30.09 1.8,7.01 4.99,14.26 7.41,20.08 a 0.32,0.32 0 0 0 0.61,-0.13"
           id="path19"
           style="fill:none;stroke-width:2;stroke-linecap:butt" />
        <path
           stroke="#776c56"
           d="m 9858.4754,3014.0647 q -10.69,5.14 -21.27,13.13 a 0.14,0.14 0 0 0 0.12,0.24 q 13.75,-3.84 23.48,-8.52 9.73,-4.69 21.31,-13.03 a 0.14,0.14 0 0 0 -0.11,-0.25 q -12.85,3.29 -23.53,8.43"
           id="path20"
           style="fill:none;stroke-width:2;stroke-linecap:butt" />
        <path
           stroke="#776c56"
           d="m 9778.9014,3058.1374 a 14.05,1.41 69.7 0 0 3.552,13.6665 14.05,1.41 69.7 0 0 6.196,12.6881 14.05,1.41 69.7 0 0 -3.552,-13.6665 14.05,1.41 69.7 0 0 -6.196,-12.6881"
           id="path21"
           style="fill:none;stroke-width:2;stroke-linecap:butt" />
        <path
           stroke="#776c56"
           d="m 9840.6354,3072.3747 q -7.48,6.99 -13.29,15.73 a 0.23,0.23 0 0 0 0.31,0.32 q 9.2,-5.68 16.39,-12.39 7.18,-6.71 13.47,-15.51 a 0.23,0.23 0 0 0 -0.3,-0.33 q -9.11,5.2 -16.58,12.18"
           id="path22"
           style="fill:none;stroke-width:2;stroke-linecap:butt" />
        <path
           stroke="#776c56"
           d="m 9865.8454,3078.7147 q -6.73,1.98 -12.07,5.77 -0.44,0.31 -0.67,0.7 a 0.28,0.28 0 0 0 0.25,0.42 q 7.74,-0.33 13.89,-2.13 6.15,-1.81 12.83,-5.72 a 0.28,0.28 0 0 0 -0.01,-0.49 q -0.41,-0.21 -0.94,-0.23 -6.55,-0.3 -13.28,1.68"
           id="path23"
           style="fill:none;stroke-width:2;stroke-linecap:butt" />
        <path
           stroke="#776c56"
           d="m 9716.6354,3102.4747 q -1.76,8.54 -1.7,17.82 0,0.18 0.09,0.26 a 0.32,0.32 0 0 0 0.52,-0.15 c 1.58,-5.62 3.42,-10.89 4.72,-17.18 1.3,-6.3 1.71,-11.87 2.49,-17.65 a 0.32,0.32 0 0 0 -0.42,-0.34 q -0.12,0.04 -0.19,0.2 -3.74,8.49 -5.51,17.04"
           id="path24"
           style="fill:none;stroke-width:2;stroke-linecap:butt" />
        <path
           stroke="#776c56"
           d="m 9847.1254,3108.8347 c 7.51,3.01 14.05,4.94 21.9,5.58 a 0.25,0.25 0 0 0 0.19,-0.45 c -5.87,-4.77 -12.8,-8.17 -19.76,-10.96 -6.95,-2.79 -14.31,-5.12 -21.85,-5.72 a 0.25,0.25 0 0 0 -0.18,0.45 c 6.12,4.96 12.19,8.09 19.7,11.1"
           id="path25"
           style="fill:none;stroke-width:2;stroke-linecap:butt" />
        <path
           stroke="#776c56"
           d="m 9698.7254,3135.7447 q 3.77,9.55 9.79,18.2 a 0.23,0.23 0 0 0 0.42,-0.17 q -1.92,-10.69 -5.54,-19.87 -3.62,-9.19 -9.51,-18.31 a 0.23,0.23 0 0 0 -0.42,0.16 q 1.5,10.43 5.26,19.99"
           id="path26"
           style="fill:none;stroke-width:2;stroke-linecap:butt" />
        <path
           stroke="#776c56"
           d="m 9796.1954,3159.9247 q 7.02,5.52 13.03,8.33 a 0.2,0.2 0 0 0 0.25,-0.3 q -4.73,-6.47 -10.77,-11.22 -6.04,-4.75 -13.44,-7.81 a 0.2,0.2 0 0 0 -0.23,0.32 q 4.15,5.17 11.16,10.68"
           id="path27"
           style="fill:none;stroke-width:2;stroke-linecap:butt" />
        <path
           stroke="#776c56"
           d="m 9723.5654,3202.3447 q -13.82,4.56 -26.58,11.86 -1.01,0.57 -0.88,0.97 0.14,0.4 1.28,0.26 14.6,-1.73 28.42,-6.29 13.82,-4.56 26.58,-11.86 1,-0.57 0.87,-0.97 -0.13,-0.4 -1.28,-0.26 -14.59,1.73 -28.41,6.29"
           id="path28"
           style="fill:none;stroke-width:2;stroke-linecap:butt" />
        <path
           stroke="#776c56"
           d="m 9808.3564,3032.8838 a 2.48,3.83 64.3 0 0 -4.526,-0.5738 2.48,3.83 64.3 0 0 -2.376,3.8956 2.48,3.83 64.3 0 0 4.527,0.5738 2.48,3.83 64.3 0 0 2.375,-3.8956"
           id="path30"
           style="fill:none;stroke-width:2;stroke-linecap:butt" />
        <path
           stroke="#776c56"
           d="m 9845.7924,3041.9809 a 3.55,2.47 72.4 0 0 -1.281,4.1307 3.55,2.47 72.4 0 0 3.427,2.6369 3.55,2.47 72.4 0 0 1.281,-4.1307 3.55,2.47 72.4 0 0 -3.427,-2.6369"
           id="path31"
           style="fill:none;stroke-width:2;stroke-linecap:butt" />
        <path
           stroke="#776c56"
           d="m 9814.6394,3120.1942 a 2.82,4.44 39 0 0 -4.986,1.6758 2.82,4.44 39 0 0 -0.602,5.2252 2.82,4.44 39 0 0 4.986,-1.6758 2.82,4.44 39 0 0 0.602,-5.2252"
           id="path32"
           style="fill:none;stroke-width:2;stroke-linecap:butt" />
        <path
           fill="#e2cca0"
           d="m 9713.0154,3101.2447 a 0.32,0.33 50.5 0 0 0.64,0.06 q 3.04,-12.2 8.18,-22.45 0.59,-1.18 1.5,-1.85 a 0.82,0.82 0 0 1 1.3,0.54 c 2.17,15.34 -1.93,34.49 -8.69,49.11 q -0.68,1.46 -0.48,7.09 0.55,16.33 -0.76,29.24 c -0.69,6.72 -2.22,12.48 -3.8,18.94 q -0.12,0.49 -0.05,0.94 a 0.33,0.33 0 0 0 0.55,0.18 q 1.94,-1.9 5.91,-7.07 c 4.9,-6.4 8.97,-10.61 16.04,-18.63 3.32,-3.77 2.73,-6.62 2.75,-11.84 q 0.23,-81.21 -0.13,-153.22 -0.07,-14.09 -0.85,-22.5 -0.43,-4.67 -2.34,-10.82 c -5.43,-17.45 -30.82,-10.14 -42.53,-5.46 q -19.51,7.8 -32.12,25.82 c -11.19,15.98 -14.84,33.89 -13.56,53.17 1.39,20.72 9.45,38.28 26.78,49.71 q 8.03,5.3 18.01,6.57 a 1.67,1.81 12.8 0 1 1.33,2.32 q -0.5,1.54 -2.16,1.71 -4.54,0.44 -9.51,-0.06 c -25.23,-2.56 -47.32,-17.5 -55.55,-41.98 q -8.93,-26.55 0.96,-51.63 c 4.42,-11.23 12.23,-22.54 21.75,-30.98 19.69,-17.46 46.61,-26.65 73.08,-26.64 q 0.24,0 70.72,0.17 a 0.85,0.85 0 0 1 0.85,0.85 v 2.76 a 1.13,1.12 87.2 0 1 -1.01,1.12 q -5.86,0.58 -9.88,2.04 c -5.86,2.13 -9.26,7.71 -10.77,13.98 q -2.06,8.54 -2.06,16.57 -0.06,71.81 0.07,140.21 a 0.44,0.44 0 0 0 0.75,0.3 q 10.05,-10.41 18.77,-22.33 1.58,-2.16 1.53,-4.17 -0.07,-2.62 -2.94,-7.81 -9.31,-16.82 -11.02,-35.48 a 0.85,0.86 1.6 0 1 0.97,-0.92 q 0.93,0.13 1.78,1.23 8.28,10.7 11.82,23.1 a 0.31,0.31 0 0 0 0.6,-0.06 q 0.3,-3.5 -0.26,-7.06 -3.71,-23.31 -4.34,-42.87 a 2.1,2.08 66.7 0 1 0.61,-1.55 l 0.06,-0.05 a 0.48,0.48 0 0 1 0.81,0.26 q 0.92,5.84 1.61,13.41 c 0.99,10.89 2.69,19.9 4.33,31.29 q 1.49,10.37 0.78,21.27 a 0.47,0.48 66.5 0 0 0.84,0.33 q 1.94,-2.36 4,-5.24 10.48,-14.71 21.28,-33.47 2.68,-4.66 4.71,-9.83 0.98,-2.5 -0.09,-4.59 -14,-27.53 -15.13,-56.03 -0.17,-4.41 0.33,-7.96 a 0.69,0.69 0 0 1 1.03,-0.5 q 1.25,0.73 2.12,2.14 9.42,15.38 13.31,34.15 1.81,8.72 2.37,16.22 0.32,4.32 -0.18,7.96 a 0.27,0.27 0 0 0 0.51,0.16 q 6.34,-12.37 10.16,-23.83 0.68,-2.04 -0.38,-5.74 c -3.3,-11.56 -5.58,-21.54 -5.64,-33.28 q -0.07,-13.16 1.07,-19.7 0.54,-3.07 1.37,-4.12 0.31,-0.4 0.51,-0.45 a 1.55,1.38 69.9 0 1 1.68,0.9 q 2.73,6.1 4.12,12.33 3.6,16.23 3.69,31.76 a 0.11101802,0.11101802 0 0 0 0.22,0.03 c 1.82,-5.19 4.33,-12.56 5.75,-19.13 1.24,-5.75 0.51,-14.46 0.98,-18.89 q 1.61,-15.45 10.69,-27.64 0.37,-0.5 0.95,-0.72 a 0.96,0.96 0 0 1 1.29,0.81 q 1.42,15.42 -2.56,28.5 c -1.51,4.96 -4.29,9.48 -6.88,14.12 a 9.4,9.45 66.3 0 0 -0.91,2.32 l -5.47,22.15 a 0.19,0.18 74.7 0 0 0.31,0.18 c 1.47,-1.47 2.04,-2.97 3.56,-4.88 q 9.5,-11.95 22.21,-20.11 c 1.28,-0.83 2.7,-2.09 4.44,-2.36 a 0.76,0.76 0 0 1 0.83,1.02 c -6.15,16.29 -18.82,29.06 -33.36,38.08 -2.06,1.27 -3.37,2.6 -4.26,5 q -3.46,9.29 -5.75,15.9 a 0.19,0.19 0 0 0 0.29,0.21 q 22.54,-17.33 51.13,-22.09 a 1.08,1.08 0 0 1 1.23,1.27 q -0.14,0.71 -1.06,1.59 c -11.12,10.54 -24.65,17.55 -38.73,22.25 q -5.52,1.85 -15.53,4.53 a 2.3,2.3 0 0 0 -1.38,1.04 c -5.1,8.48 -9,19.1 -12.69,25.09 -4.89,7.94 -13.71,22.13 -21.41,32.4 q -11.84,15.8 -12.62,16.94 a 0.34,0.34 0 0 0 0.44,0.49 q 7.72,-4.11 18.33,-8.78 6.7,-2.95 13.62,-4.56 a 4.03,4.01 10.1 0 0 2.49,-1.73 q 3.65,-5.58 8.1,-11.31 11.79,-15.22 29.55,-24.24 2.1,-1.07 3.71,-1.37 a 0.97,0.97 0 0 1 1.06,1.35 q -1.2,2.66 -2.82,5.01 c -3.94,5.73 -8.73,11.71 -14,16.38 q -7.26,6.43 -12.76,10.38 a 0.3,0.3 0 0 0 0.25,0.54 l 13.68,-3.34 a 2.04,1.95 17.2 0 0 0.8,-0.4 q 15.76,-12.99 37.23,-10.13 1.06,0.14 1.53,0.84 a 1.16,1.24 56.5 0 1 -0.4,1.67 q -7.69,4.89 -16.65,8.14 -7.07,2.57 -20.42,2.71 a 5.9,5.88 37.5 0 0 -1.32,0.17 l -19.37,4.73 a 0.39,0.39 0 0 0 0.04,0.76 q 19.14,2.79 36.21,13.61 c 4.95,3.14 8.45,5.39 11.39,8.9 a 0.9,0.9 0 0 1 -0.35,1.41 q -1.05,0.43 -2.53,0.35 -21.86,-1.17 -40.15,-12.84 -6.54,-4.17 -11.59,-8.03 a 1.66,1.67 55.5 0 0 -1.48,-0.27 q -21.94,6.41 -40.67,19.35 -1.41,0.98 -7.58,6.74 -3.95,3.68 -7.14,7.24 -9.54,10.62 -19.27,20.84 c -7.58,7.95 -15.61,17.97 -20.42,23.32 -9.57,10.63 -18.92,23.12 -27.07,34.46 a 0.36,0.36 0 0 0 0.45,0.53 c 11.78,-6.21 23.34,-11.23 36.47,-13.65 a 0.75,0.75 0 0 0 0.62,-0.73 q 0.14,-13.44 0.22,-21.89 0.03,-2.69 1.21,-4.34 c 6.03,-8.43 12.34,-15.4 20.94,-20.46 q 4.77,-2.81 12.7,-4.35 c 14.71,-2.87 27.33,-1.61 43.47,-0.48 q 5.32,0.37 21.18,-0.57 a 2.77,2.76 74 0 1 2.58,1.43 l 0.03,0.07 a 1.23,1.23 0 0 1 -0.9,1.8 q -10.83,1.59 -16.9,1.36 -20.66,-0.75 -31.39,-1.02 a 0.29,0.29 0 0 0 -0.12,0.56 c 11.24,4.92 20.48,13.97 26.41,24.18 q 0.75,1.3 0.65,2.25 a 1,1 0 0 1 -1.39,0.81 q -19.55,-8.52 -33.27,-25.13 c -2.36,-2.86 -10.09,-1.01 -13.33,-0.03 a 1.55,1.55 0 0 0 -1.1,1.51 q 0.22,18.51 -0.08,41.64 -0.3,23.07 -7.56,44.82 c -6.52,19.53 -19.73,37.5 -36.99,49.02 q -21.13,14.09 -46.03,17.47 c -26.8,3.65 -55.51,-0.45 -78.07,-16.25 -26.42,-18.49 -40.05,-47.84 -38.67,-79.85 1.75,-40.46 28.85,-76.76 71.24,-79.63 15.77,-1.07 32.14,3.57 43.38,14.99 q 13.21,13.43 12.93,32.25 -0.09,6.44 -2.18,11.76 c -1.39,3.55 -4.8,11.02 -8.25,12.28 a 0.84,0.84 0 0 1 -1.1,-0.97 q 2.85,-12.95 -1.75,-24.11 c -11.01,-26.79 -44.76,-33.94 -69.12,-22.3 q -21.56,10.31 -31.2,32.51 c -10.89,25.11 -7.23,53.38 7.86,75.89 q 14.59,21.77 39.82,31.23 c 13.25,4.98 25.48,6.1 39.27,5.56 11.85,-0.46 22.25,-3.83 32.87,-9.1 15.36,-7.63 28.38,-24.93 34.11,-40.86 q 6.59,-18.31 8.07,-37.44 a 0.39,0.38 81.1 0 0 -0.53,-0.39 c -13.09,5.23 -26.62,7.63 -41,9.8 q -2.04,0.31 -3.45,2.08 -5.95,7.44 -10.83,16.68 -5.97,11.29 -8.86,16.64 -5.21,9.63 -9.79,22.48 -1.11,3.11 -2.6,5.51 a 1.33,1.31 7.8 0 1 -0.77,0.58 q -2.08,0.59 -3.35,-0.81 a 1.2,1.2 0 0 1 -0.27,-1.1 q 1.44,-5.81 3.91,-11.51 c 4.54,-10.46 10.04,-23.56 17.02,-34.39 q 5.84,-9.04 8.13,-13.22 c 3.56,-6.51 7.94,-11.79 13.29,-19.11 4.74,-6.49 6.9,-13.1 10.04,-21.81 q 1.55,-4.31 2.99,-13.13 c 0.93,-5.79 -0.78,-8.06 -3.65,-12.34 q -14.4,-21.52 -16.41,-47.69 a 0.92,0.91 9.9 0 1 1.29,-0.9 q 1.51,0.69 2.5,2.15 9.47,13.89 11.89,20.2 3.42,8.9 5.76,16.88 a 0.3,0.3 0 0 0 0.45,0.17 q 0.18,-0.11 0.13,-0.35 -0.05,-0.27 -0.05,-0.37 0.35,-10.76 -0.27,-20.05 c -0.96,-14.31 -1.34,-26.04 -2.33,-42.23 q -0.45,-7.24 0.69,-20.62 a 1.04,1.03 0.9 0 1 0.98,-0.94 l 0.26,-0.01 a 0.41,0.41 0 0 1 0.43,0.39 z m 149.28,-171.68 a 0.18,0.18 0 0 0 -0.33,-0.09 q -9.28,13.81 -7.42,30.17 a 0.34,0.34 0 0 0 0.57,0.21 q 1.32,-1.21 2.21,-3.04 c 4.15,-8.59 5.14,-17.94 4.97,-27.25 z m -26.8,45.57 q 1.11,11.6 4.54,22.86 0.27,0.88 0.61,0.85 0.33,-0.03 0.42,-0.95 1.24,-11.71 0.14,-23.31 -1.11,-11.6 -4.54,-22.86 -0.27,-0.88 -0.6,-0.85 -0.33,0.03 -0.43,0.95 -1.24,11.7 -0.14,23.31 z m 27.52,10.41 q 6.51,-6.99 11.36,-15.52 a 0.22,0.22 0 0 0 -0.32,-0.28 q -8.2,5.9 -14.46,12.62 -6.26,6.72 -11.55,15.33 a 0.22,0.22 0 0 0 0.3,0.3 q 8.16,-5.45 14.67,-12.45 z m -37.87,44.92 q -0.61,-19.06 -6.54,-37.05 -2.41,-7.34 -6,-13.22 a 0.4,0.41 28.3 0 0 -0.75,0.23 c 0.29,10.7 2.46,19.14 5.27,30.09 1.8,7.01 4.99,14.26 7.41,20.08 a 0.32,0.32 0 0 0 0.61,-0.13 z m 33.33,-16.4 q -10.69,5.14 -21.27,13.13 a 0.14,0.14 0 0 0 0.12,0.24 q 13.75,-3.84 23.48,-8.52 9.73,-4.69 21.31,-13.03 a 0.14,0.14 0 0 0 -0.11,-0.25 q -12.85,3.29 -23.53,8.43 z m -79.574,44.0727 a 14.05,1.41 69.7 0 0 3.552,13.6665 14.05,1.41 69.7 0 0 6.196,12.6881 14.05,1.41 69.7 0 0 -3.552,-13.6665 14.05,1.41 69.7 0 0 -6.196,-12.6881 z m 61.734,14.2373 q -7.48,6.99 -13.29,15.73 a 0.23,0.23 0 0 0 0.31,0.32 q 9.2,-5.68 16.39,-12.39 7.18,-6.71 13.47,-15.51 a 0.23,0.23 0 0 0 -0.3,-0.33 q -9.11,5.2 -16.58,12.18 z m 25.21,6.34 q -6.73,1.98 -12.07,5.77 -0.44,0.31 -0.67,0.7 a 0.28,0.28 0 0 0 0.25,0.42 q 7.74,-0.33 13.89,-2.13 6.15,-1.81 12.83,-5.72 a 0.28,0.28 0 0 0 -0.01,-0.49 q -0.41,-0.21 -0.94,-0.23 -6.55,-0.3 -13.28,1.68 z m -149.21,23.76 q -1.76,8.54 -1.7,17.82 0,0.18 0.09,0.26 a 0.32,0.32 0 0 0 0.52,-0.15 c 1.58,-5.62 3.42,-10.89 4.72,-17.18 1.3,-6.3 1.71,-11.87 2.49,-17.65 a 0.32,0.32 0 0 0 -0.42,-0.34 q -0.12,0.04 -0.19,0.2 -3.74,8.49 -5.51,17.04 z m 130.49,6.36 c 7.51,3.01 14.05,4.94 21.9,5.58 a 0.25,0.25 0 0 0 0.19,-0.45 c -5.87,-4.77 -12.8,-8.17 -19.76,-10.96 -6.95,-2.79 -14.31,-5.12 -21.85,-5.72 a 0.25,0.25 0 0 0 -0.18,0.45 c 6.12,4.96 12.19,8.09 19.7,11.1 z m -148.4,26.91 q 3.77,9.55 9.79,18.2 a 0.23,0.23 0 0 0 0.42,-0.17 q -1.92,-10.69 -5.54,-19.87 -3.62,-9.19 -9.51,-18.31 a 0.23,0.23 0 0 0 -0.42,0.16 q 1.5,10.43 5.26,19.99 z m 97.47,24.18 q 7.02,5.52 13.03,8.33 a 0.2,0.2 0 0 0 0.25,-0.3 q -4.73,-6.47 -10.77,-11.22 -6.04,-4.75 -13.44,-7.81 a 0.2,0.2 0 0 0 -0.23,0.32 q 4.15,5.17 11.16,10.68 z m -72.63,42.42 q -13.82,4.56 -26.58,11.86 -1.01,0.57 -0.88,0.97 0.14,0.4 1.28,0.26 14.6,-1.73 28.42,-6.29 13.82,-4.56 26.58,-11.86 1,-0.57 0.87,-0.97 -0.13,-0.4 -1.28,-0.26 -14.59,1.73 -28.41,6.29 z"
           id="path34" />
        <path
           fill="#e2cca0"
           d="m 9804.8964,3028.6391 a 12.24,11.89 80.6 0 1 13.729,10.1337 12.24,11.89 80.6 0 1 -9.731,14.0175 12.24,11.89 80.6 0 1 -13.729,-10.1337 12.24,11.89 80.6 0 1 9.731,-14.0175 z m 3.46,4.2447 a 2.48,3.83 64.3 0 0 -4.526,-0.5738 2.48,3.83 64.3 0 0 -2.376,3.8956 2.48,3.83 64.3 0 0 4.527,0.5738 2.48,3.83 64.3 0 0 2.375,-3.8956 z"
           id="path48" />
        <path
           fill="#e2cca0"
           d="m 9848.0314,3035.718 a 11.69,11.93 30.9 0 1 3.905,16.24 11.69,11.93 30.9 0 1 -16.158,4.2334 11.69,11.93 30.9 0 1 -3.904,-16.24 11.69,11.93 30.9 0 1 16.157,-4.2334 z m -2.239,6.2629 a 3.55,2.47 72.4 0 0 -1.281,4.1307 3.55,2.47 72.4 0 0 3.427,2.6369 3.55,2.47 72.4 0 0 1.281,-4.1307 3.55,2.47 72.4 0 0 -3.427,-2.6369 z"
           id="path49" />
        <path
           fill="#e2cca0"
           d="m 9819.9154,3120.3347 a 14.18,14.18 0 0 1 -14.18,14.18 14.18,14.18 0 0 1 -14.18,-14.18 14.18,14.18 0 0 1 14.18,-14.18 14.18,14.18 0 0 1 14.18,14.18 z m -5.276,-0.1405 a 2.82,4.44 39 0 0 -4.986,1.6758 2.82,4.44 39 0 0 -0.602,5.2252 2.82,4.44 39 0 0 4.986,-1.6758 2.82,4.44 39 0 0 0.602,-5.2252 z"
           id="path54" />
      </g>
      <g
         id="g65"
         transform="translate(1362.3728,-1860.3253)">
        <path
           stroke="#776c56"
           d="m 10371.645,3215.3447 h -58.36 a 0.79,0.79 0 0 0 -0.79,0.79 v 0.99 a 0.72,0.72 0 0 0 0.72,0.72 h 36.11 a 0.64,0.65 88.6 0 1 0.65,0.61 q 0.57,9.95 0.41,19.3 c -0.43,25.27 -23.02,44.5 -47.12,45.6 -12.42,0.57 -24.34,-1.43 -34.61,-8.77 q -15.98,-11.42 -23.4,-29.35 -5.77,-13.97 -6.16,-29.45 -0.42,-17 3.71,-29.06 4.79,-13.98 12.25,-22.44 9.34,-10.6 20.12,-15.08 c 15.93,-6.62 36.95,-5.85 51.58,5.35 q 11.1,8.5 17.33,20.02 a 0.56,0.56 0 0 0 0.91,0.11 l 9.84,-10.94 a 0.64,0.65 41.6 0 0 -0.05,-0.92 q -10.53,-9.05 -20.69,-13.17 -1.76,-0.71 -7.95,-2.91 c -18.56,-6.58 -38.2,-6.14 -56.54,0.83 q -8.82,3.35 -15.05,7.96 c -6.18,4.58 -12.89,10.89 -17.38,18.1 q -18.02,28.99 -8.54,63.7 c 5.54,20.29 20.59,36.93 40.64,44.09 10.58,3.77 20.55,6.18 31.42,5.38 q 30.47,-2.27 50.57,-24.75 a 2.55,2.6 40.4 0 1 3.54,-0.32 q 0.51,0.41 1.03,2.15 2.69,8.87 4.44,19.28 a 1.01,1 85.3 0 0 0.99,0.84 h 0.42 a 0.88,0.88 0 0 0 0.88,-0.89 q -0.29,-31.76 0,-40.62 c 0.29,-8.93 -0.16,-23.07 9.25,-26.01 a 0.58,0.58 0 0 0 -0.17,-1.14"
           id="path12"
           style="fill:none;stroke-width:2;stroke-linecap:butt" />
        <path
           stroke="#776c56"
           d="m 10004.135,3144.7047 q -0.49,-0.19 -0.88,-0.18 -21.0796,0.2 -31.1396,0.01 a 0.52,0.52 0 0 0 -0.17,1.01 c 6.51,2.09 9.04,6.65 9.47,13.84 q 0.31,5.35 0.34,15.87 0.09,30.56 -0.15,69.74 c -0.17,28.08 -7.48,61.21 -38.71,69.94 a 1.49,1.51 85.8 0 0 -1.08,1.24 l -0.01,0.07 a 0.74,0.74 0 0 0 0.86,0.83 c 15.71,-2.81 30.1,-11.19 39.07,-24.41 10.99,-16.21 12.53,-37.18 12.54,-56.17 q 0.01,-66.47 0.01,-69.5 c -0.02,-8.81 0.36,-18.58 9.8196,-21.43 a 0.45,0.46 46.9 0 0 0.03,-0.86"
           id="path13"
           style="fill:none;stroke-width:2;stroke-linecap:butt" />
        <path
           stroke="#776c56"
           d="m 10036.335,3214.3747 q 0.03,44.49 0.04,45.12 0.11,7.09 -0.78,13 -1.22,8.02 -8.7,10.38 a 0.73,0.73 0 0 0 -0.3,1.2 q 0.15,0.15 0.42,0.15 19.57,-0.21 31.61,-0.12 a 0.81,0.8 86 0 0 0.8,-0.93 q -0.07,-0.47 -0.72,-0.61 c -9.05,-1.94 -9.53,-11.69 -9.61,-19.32 q -0.04,-4.49 -0.07,-48.88 -0.02,-44.39 0.02,-48.88 c 0.06,-7.63 0.53,-17.38 9.58,-19.33 q 0.65,-0.14 0.72,-0.61 a 0.8,0.81 3.9 0 0 -0.8,-0.93 q -12.04,0.1 -31.61,-0.08 -0.27,0 -0.42,0.15 a 0.73,0.73 0 0 0 0.3,1.2 q 7.48,2.35 8.71,10.37 0.9,5.91 0.79,13 -0.01,0.63 0.02,45.12"
           id="path14"
           style="fill:none;stroke-width:2;stroke-linecap:butt" />
        <path
           stroke="#776c56"
           d="m 10192.725,3263.8247 q -12.52,-15.58 -20.14,-25.93 -3.78,-5.13 -7.66,-10.27 -24.46,-32.36 -48.96,-64.24 c -4.42,-5.74 -8.79,-12.3 -13.07,-17.44 a 2.65,2.64 85.7 0 0 -0.74,-0.64 q -0.94,-0.56 -3.39,-0.58 -14.83,-0.14 -17.7,-0.16 a 0.47,0.47 0 0 0 -0.18,0.91 c 4.09,1.62 7.88,3.56 9.07,8.24 q 1.35,5.28 1.39,15.03 0.31,67.89 0.06,87.25 -0.11,8.72 -1.25,15.34 -1.47,8.48 -9.34,11.31 a 0.76,0.76 0 0 0 -0.28,1.25 q 0.05,0.05 0.22,0.25 a 0.1,0.1 0 0 0 0.08,0.04 q 11.49,-0.21 25.45,-0.13 0.43,0 0.54,-0.34 a 0.97,0.86 17.1 0 0 -0.68,-1.13 c -9.64,-2.83 -11.87,-14.61 -11.98,-23.36 q -0.36,-31.15 -0.1,-70.48 0.13,-18.75 -0.22,-32.03 a 0.43,0.44 24.7 0 1 0.77,-0.29 c 16.96,21.29 41.27,54.44 53.23,69.53 q 6.11,7.7 8.38,10.98 c 6.75,9.75 12.37,16.1 20.97,27.51 q 8.76,11.62 16.03,20.1 c 17.59,20.52 39.9,32.65 67.54,30.27 q 2.6,-0.22 9.43,-2.49 a 0.73,0.73 0 0 0 0.49,-0.69 v -0.35 a 0.68,0.68 0 0 0 -0.83,-0.66 q -24.08,5.43 -43.31,-8.99 -9.46,-7.1 -14.73,-13.22 -7.55,-8.77 -16.08,-19.93 a 2.31,2.24 26.8 0 1 -0.48,-1.39 q -0.14,-58.4 0.16,-98.85 0.07,-9.65 3.48,-16.97 a 5.04,4.94 81.9 0 1 1.14,-1.55 q 2.59,-2.37 6.34,-4.01 a 0.6,0.6 0 0 0 -0.24,-1.14 h -24 a 0.6,0.61 55 0 0 -0.21,1.17 c 3.95,1.41 6.91,3.75 8.5,7.88 2.5,6.55 2.4,13.06 2.41,20.42 q 0.13,88.74 0.13,89.7 a 0.13,0.13 0 0 1 -0.24,0.08"
           id="path15"
           style="fill:none;stroke-width:2;stroke-linecap:butt" />
        <path
           fill="#e2cca0"
           d="m 10371.645,3215.3447 a 0.58,0.58 0 0 1 0.17,1.14 c -9.41,2.94 -8.96,17.08 -9.25,26.01 q -0.29,8.86 0,40.62 a 0.88,0.88 0 0 1 -0.88,0.89 h -0.42 a 1.01,1 85.3 0 1 -0.99,-0.84 q -1.75,-10.41 -4.44,-19.28 -0.52,-1.74 -1.03,-2.15 a 2.55,2.6 40.4 0 0 -3.54,0.32 q -20.1,22.48 -50.57,24.75 c -10.87,0.8 -20.84,-1.61 -31.42,-5.38 -20.05,-7.16 -35.1,-23.8 -40.64,-44.09 q -9.48,-34.71 8.54,-63.7 c 4.49,-7.21 11.2,-13.52 17.38,-18.1 q 6.23,-4.61 15.05,-7.96 c 18.34,-6.97 37.98,-7.41 56.54,-0.83 q 6.19,2.2 7.95,2.91 10.16,4.12 20.69,13.17 a 0.64,0.65 41.6 0 1 0.05,0.92 l -9.84,10.94 a 0.56,0.56 0 0 1 -0.91,-0.11 q -6.23,-11.52 -17.33,-20.02 c -14.63,-11.2 -35.65,-11.97 -51.58,-5.35 q -10.78,4.48 -20.12,15.08 -7.46,8.46 -12.25,22.44 -4.13,12.06 -3.71,29.06 0.39,15.48 6.16,29.45 7.42,17.93 23.4,29.35 c 10.27,7.34 22.19,9.34 34.61,8.77 24.1,-1.1 46.69,-20.33 47.12,-45.6 q 0.16,-9.35 -0.41,-19.3 a 0.64,0.65 88.6 0 0 -0.65,-0.61 h -36.11 a 0.72,0.72 0 0 1 -0.72,-0.72 v -0.99 a 0.79,0.79 0 0 1 0.79,-0.79 z"
           id="path56" />
        <path
           fill="#e2cca0"
           d="m 10004.135,3144.7047 a 0.45,0.46 46.9 0 1 -0.03,0.86 c -9.4596,2.85 -9.8396,12.62 -9.8196,21.43 q 0,3.03 -0.01,69.5 c -0.01,18.99 -1.55,39.96 -12.54,56.17 -8.97,13.22 -23.36,21.6 -39.07,24.41 a 0.74,0.74 0 0 1 -0.86,-0.83 l 0.01,-0.07 a 1.49,1.51 85.8 0 1 1.08,-1.24 c 31.23,-8.73 38.54,-41.86 38.71,-69.94 q 0.24,-39.18 0.15,-69.74 -0.03,-10.52 -0.34,-15.87 c -0.43,-7.19 -2.96,-11.75 -9.47,-13.84 a 0.52,0.52 0 0 1 0.17,-1.01 q 10.06,0.19 31.1396,-0.01 0.39,-0.01 0.88,0.18 z"
           id="path57" />
        <path
           fill="#e2cca0"
           d="m 10049.025,3214.3647 q 0.03,44.39 0.07,48.88 c 0.08,7.63 0.56,17.38 9.61,19.32 q 0.65,0.14 0.72,0.61 a 0.81,0.8 86 0 1 -0.8,0.93 q -12.04,-0.09 -31.61,0.12 -0.27,0 -0.42,-0.15 a 0.73,0.73 0 0 1 0.3,-1.2 q 7.48,-2.36 8.7,-10.38 0.89,-5.91 0.78,-13 -0.01,-0.63 -0.04,-45.12 -0.03,-44.49 -0.02,-45.12 0.11,-7.09 -0.79,-13 -1.23,-8.02 -8.71,-10.37 a 0.73,0.73 0 0 1 -0.3,-1.2 q 0.15,-0.15 0.42,-0.15 19.57,0.18 31.61,0.08 a 0.8,0.81 3.9 0 1 0.8,0.93 q -0.07,0.47 -0.72,0.61 c -9.05,1.95 -9.52,11.7 -9.58,19.33 q -0.04,4.49 -0.02,48.88 z"
           id="path58" />
        <path
           fill="#e2cca0"
           d="m 10192.725,3263.8247 a 0.13,0.13 0 0 0 0.24,-0.08 q 0,-0.96 -0.13,-89.7 c -0.01,-7.36 0.09,-13.87 -2.41,-20.42 -1.59,-4.13 -4.55,-6.47 -8.5,-7.88 a 0.6,0.61 55 0 1 0.21,-1.17 h 24 a 0.6,0.6 0 0 1 0.24,1.14 q -3.75,1.64 -6.34,4.01 a 5.04,4.94 81.9 0 0 -1.14,1.55 q -3.41,7.32 -3.48,16.97 -0.3,40.45 -0.16,98.85 a 2.31,2.24 26.8 0 0 0.48,1.39 q 8.53,11.16 16.08,19.93 5.27,6.12 14.73,13.22 19.23,14.42 43.31,8.99 a 0.68,0.68 0 0 1 0.83,0.66 v 0.35 a 0.73,0.73 0 0 1 -0.49,0.69 q -6.83,2.27 -9.43,2.49 c -27.64,2.38 -49.95,-9.75 -67.54,-30.27 q -7.27,-8.48 -16.03,-20.1 c -8.6,-11.41 -14.22,-17.76 -20.97,-27.51 q -2.27,-3.28 -8.38,-10.98 c -11.96,-15.09 -36.27,-48.24 -53.23,-69.53 a 0.43,0.44 24.7 0 0 -0.77,0.29 q 0.35,13.28 0.22,32.03 -0.26,39.33 0.1,70.48 c 0.11,8.75 2.34,20.53 11.98,23.36 a 0.97,0.86 17.1 0 1 0.68,1.13 q -0.11,0.34 -0.54,0.34 -13.96,-0.08 -25.45,0.13 a 0.1,0.1 0 0 1 -0.08,-0.04 q -0.17,-0.2 -0.22,-0.25 a 0.76,0.76 0 0 1 0.28,-1.25 q 7.87,-2.83 9.34,-11.31 1.14,-6.62 1.25,-15.34 0.25,-19.36 -0.06,-87.25 -0.04,-9.75 -1.39,-15.03 c -1.19,-4.68 -4.98,-6.62 -9.07,-8.24 a 0.47,0.47 0 0 1 0.18,-0.91 q 2.87,0.02 17.7,0.16 2.45,0.02 3.39,0.58 a 2.65,2.64 85.7 0 1 0.74,0.64 c 4.28,5.14 8.65,11.7 13.07,17.44 q 24.5,31.88 48.96,64.24 3.88,5.14 7.66,10.27 7.62,10.35 20.14,25.93 z"
           id="path59" />
      </g>
    </g>
  </g>
</svg>
