<?xml version="1.0" encoding="UTF-8" standalone="no"?>
<svg
   direction="ltr"
   width="2078"
   height="568"
   viewBox="9856 1888 2077.9999 568"
   stroke-linecap="round"
   stroke-linejoin="round"
   data-color-mode="light"
   class="tl-container tl-theme__force-sRGB tl-theme__light"
   version="1.1"
   id="svg64"
   sodipodi:docname="SVG 1.svg"
   inkscape:version="1.4.4 (dcaf3e7, 2026-05-05)"
   xmlns:inkscape="http://www.inkscape.org/namespaces/inkscape"
   xmlns:sodipodi="http://sodipodi.sourceforge.net/DTD/sodipodi-0.dtd"
   xmlns="http://www.w3.org/2000/svg"
   xmlns:svg="http://www.w3.org/2000/svg">
  <sodipodi:namedview
     id="namedview64"
     pagecolor="#ffffff"
     bordercolor="#000000"
     borderopacity="0.25"
     inkscape:showpageshadow="2"
     inkscape:pageopacity="0.0"
     inkscape:pagecheckerboard="0"
     inkscape:deskcolor="#d1d1d1"
     showguides="true"
     inkscape:zoom="0.39209405"
     inkscape:cx="939.82554"
     inkscape:cy="400.41414"
     inkscape:window-width="1470"
     inkscape:window-height="923"
     inkscape:window-x="0"
     inkscape:window-y="33"
     inkscape:window-maximized="0"
     inkscape:current-layer="svg64">
    <sodipodi:guide
       position="992.41147,-301.13157"
       orientation="0,-1"
       id="guide66"
       inkscape:locked="false" />
    <sodipodi:guide
       position="775.02181,-476.37771"
       orientation="0,-1"
       id="guide67"
       inkscape:locked="false" />
  </sodipodi:namedview>
  <defs
     id="defs1" />
  <path
     stroke="#776c56"
     d="m 11054.96,2089.4734 a 0.52,0.52 0 0 0 -0.04,1 q 8.14,2.61 9.05,11.05 0.51,4.71 0.52,5.73 0.1,21.93 0.04,95.09 -0.01,10.76 -0.9,15.66 -1.36,7.52 -8.43,9.78 a 0.64,0.63 36 0 0 0.2,1.24 h 30.8 a 0.61,0.61 0 0 0 0.17,-1.2 q -7.63,-2.15 -8.89,-10.1 -0.7,-4.42 -0.7,-5.72 0,-8.59 0.05,-98.25 c 0,-3.22 -0.46,-11.28 1.37,-14.81 q 3.25,-6.31 10.71,-6.9 10.41,-0.82 20.5,-0.48 c 18.04,0.62 32.09,13.18 34.76,31.2 1.35,9.11 -0.49,19.71 -6.02,27.65 -11.46,16.45 -29.75,17.11 -48.3,16.29 a 1.22,1.22 0 0 0 -1.27,1.1 l -0.01,0.05 a 0.99,0.99 0 0 0 1.04,1.09 q 8.39,-0.49 15.07,3.99 c 11.07,7.42 18.43,19.48 25.85,31.12 10.66,16.74 20.24,30.99 35.25,42.32 q 15.58,11.76 35.14,13.66 13.97,1.35 24.59,-2.87 a 0.64,0.64 0 0 0 0.41,-0.6 v -0.35 a 0.71,0.7 83.3 0 0 -0.87,-0.69 c -32.85,7.84 -53.9,-13.91 -70.79,-38.38 q -11.58,-16.78 -20.27,-27.95 c -5.79,-7.44 -13.65,-15.69 -21.57,-19.17 a 0.35,0.35 0 0 1 0.1,-0.66 q 6.49,-0.82 12.88,-2.77 c 11.98,-3.65 21.75,-8.95 27.61,-19.98 6.1,-11.5 5.92,-25.4 -0.41,-36.77 -6.67,-11.98 -21.69,-19.43 -34.96,-20.22 q -16.3,-0.97 -34.24,-0.27 -12.45,0.48 -26.87,-0.04 -0.71,-0.03 -1.57,0.16"
     id="path4"
     style="fill:none;stroke-width:2;stroke-linecap:butt" />
  <path
     stroke="#776c56"
     d="m 10636.47,2100.7634 q 23.26,31.01 27.03,35.89 c 21.54,27.85 47.2,63.29 66.15,88.09 16.03,20.97 39.11,37.04 66.69,34.63 q 5.4,-0.47 10.71,-2.56 a 0.5,0.5 0 0 0 0.3,-0.59 l -0.08,-0.26 a 0.82,0.81 75.4 0 0 -0.98,-0.58 c -24.54,6.12 -44.68,-9.01 -58.93,-27.08 q -3.43,-4.35 -11.39,-14.59 a 3.15,3.1 22.4 0 1 -0.61,-1.43 q -0.28,-2.02 -0.23,-3.04 c 0.67,-12.41 -0.2,-24.42 -0.05,-36 q 0.32,-22.89 0.18,-55.01 c -0.04,-9.63 -0.15,-25.35 11.66,-27.48 a 0.55,0.55 0 0 0 0.45,-0.54 v -0.31 a 0.54,0.54 0 0 0 -0.54,-0.54 h -26.26 a 0.44,0.44 0 0 0 -0.19,0.83 q 0.36,0.17 2.55,1.05 c 7.96,3.2 9.67,12.91 9.69,20.26 q 0.14,35.9 0.27,70.53 c 0.03,7.61 -0.7,17.05 -0.03,25.84 a 0.43,0.44 4 0 1 -0.52,0.46 q -0.26,-0.05 -0.44,-0.34 c -3.05,-4.78 -6.46,-8.88 -9.9,-13.49 q -30.94,-41.42 -70.42,-93.71 c -11.07,-14.66 -22.46,-27.79 -39.48,-35.64 q -21.95,-10.11 -45.26,-3.37 a 1.76,1.77 88.2 0 0 -1.23,1.3 l -0.04,0.22 a 0.69,0.69 0 0 0 0.83,0.83 q 7.2,-1.61 12,-1.93 c 11.61,-0.79 23.87,3.88 33.16,11.17 7.45,5.86 15.57,14.77 21.55,23.37 a 2.68,2.68 0 0 1 0.48,1.53 q 0,18.96 -0.01,105.58 c 0,8.85 -1.27,20.95 -11.47,23.89 a 0.63,0.63 0 0 0 0.17,1.23 h 26.77 a 0.41,0.41 0 0 0 0.1,-0.8 c -11.52,-2.84 -13.02,-16.24 -12.95,-25.85 q 0.05,-7.27 0.03,-76.92 c 0,-8.48 0.33,-16.45 -0.15,-24.5 a 0.22,0.21 24.9 0 1 0.39,-0.14"
     id="path2"
     style="fill:none;stroke-width:2;stroke-linecap:butt" />
  <path
     stroke="#776c56"
     d="m 10847.35,2229.0834 a 0.51,0.51 0 0 0 0.13,-1 q -7.16,-1.92 -8.56,-9.21 -1.61,-8.39 -0.62,-21.29 0.7,-9.16 5.31,-14.78 c 5.34,-6.52 15.14,-11.26 23.43,-12.65 14.46,-2.43 28.85,-4.44 39.3,-12.92 11.69,-9.5 15.97,-25.33 11.84,-39.63 -5.19,-17.98 -23.33,-27.51 -40.99,-28.16 -20.24,-0.75 -40.35,0.27 -60.76,0.01 a 0.52,0.52 0 0 0 -0.14,1.02 c 8.68,2.3 9.39,11.85 9.42,19.8 q 0.14,31.17 0.06,90.73 -0.01,3.59 -0.33,9.33 c -0.47,8.57 -0.55,14.8 -9,17.94 a 0.42,0.42 0 0 0 0.14,0.81 h 30.77"
     id="path3"
     style="fill:none;stroke-width:2;stroke-linecap:butt" />
  <path
     stroke="#776c56"
     d="m 10433.061,2089.2534 a 0.59,0.59 0 0 0 -0.18,1.15 q 6.27,2.01 7.8,7.76 1.59,5.97 1.59,14.59 0.02,43.47 -0.08,73.5 -0.04,13.84 -1.6,23.99 c -1.6,10.35 -5.48,22.79 -11.78,31.22 q -9.61,12.88 -25.84,17.15 a 0.59,0.59 0 0 0 -0.44,0.61 l 0.01,0.32 a 0.78,0.78 0 0 0 0.89,0.73 q 18.92,-2.73 31.8,-15.55 c 14.91,-14.85 19.01,-35.64 19.3,-56.22 q 0.15,-10.8 0.11,-77 c -0.01,-8.17 -0.02,-18.11 9.069,-21.11 a 0.54,0.54 0 0 0 0.02,-1.01 q -0.56,-0.21 -0.83,-0.19 -2.14,0.14 -29.839,0.06"
     id="path5"
     style="fill:none;stroke-width:2;stroke-linecap:butt" />
  <path
     stroke="#776c56"
     d="m 10609.09,2089.4034 q -14.02,-0.14 -26.71,-0.04 -0.26,0.01 -0.37,0.36 a 0.39,0.39 0 0 0 0.27,0.5 c 11.61,3.16 12.5,15.09 12.63,25.53 q 0.36,31.04 0.22,51.76 c -0.11,16.57 -2.54,36.55 -15.6,48.36 q -6.57,5.95 -12.57,8.52 -12.55,5.39 -27.6,3.09 -9.49,-1.46 -17.35,-7.82 c -7.41,-5.99 -12.01,-12.06 -15.17,-21.5 q -4.21,-12.58 -4.27,-25.92 -0.25,-49.99 0.09,-66.74 0.09,-4.6 1.73,-8.75 c 1.48,-3.78 3.82,-4.88 7.28,-6.45 a 0.49,0.49 0 0 0 -0.1,-0.92 q -0.97,-0.2 -2.42,-0.17 -10.78,0.27 -26.74,-0.01 -1.06,-0.02 -1.37,0.12 a 0.68,0.68 0 0 0 0.09,1.29 q 6.44,1.64 7.97,7.96 1.16,4.8 1.15,10.68 -0.08,42.55 0.07,59.48 0.15,15.86 4.2,27.85 c 6.7,19.78 22.15,30.99 42.96,33.82 18.08,2.46 37.62,-2.78 48.46,-18.11 q 7.87,-11.13 9.96,-24.8 1.48,-9.67 1.5,-16.74 0.21,-55.98 0.3,-61.49 c 0.08,-5.09 2.17,-13.84 7.11,-16.92 q 1.51,-0.95 4.44,-1.93 a 0.52,0.52 0 0 0 -0.16,-1.01"
     id="path6"
     style="fill:none;stroke-width:2;stroke-linecap:butt" />
  <path
     stroke="#776c56"
     d="m 10774.25,2159.2434 q -0.02,46.19 0.01,47.51 c 0.14,7.23 0.02,18.19 -8.24,20.69 q -1.05,0.32 -1.6,0.9 a 0.46,0.46 0 0 0 0.34,0.78 q 9.16,-0.07 15.77,-0.06 6.6,0 15.76,0.06 a 0.46,0.46 0 0 0 0.34,-0.77 q -0.55,-0.58 -1.6,-0.9 c -8.25,-2.51 -8.37,-13.47 -8.22,-20.7 q 0.02,-1.31 0.03,-47.51 0.02,-46.19 -0.01,-47.5 c -0.14,-7.23 -0.02,-18.19 8.24,-20.69 q 1.05,-0.32 1.6,-0.9 a 0.46,0.46 0 0 0 -0.34,-0.78 q -9.16,0.06 -15.77,0.06 -6.6,0 -15.76,-0.07 a 0.46,0.46 0 0 0 -0.34,0.78 q 0.55,0.58 1.6,0.9 c 8.26,2.5 8.37,13.46 8.22,20.69 q -0.02,1.32 -0.03,47.51"
     id="path7"
     style="fill:none;stroke-width:2;stroke-linecap:butt" />
  <path
     stroke="#776c56"
     d="m 10942.27,2165.5634 a 0.24,0.24 0 0 1 0.31,0.23 q -0.02,30.89 -0.08,39.97 c -0.05,8.33 -0.18,19.67 -9.56,22.18 q -0.31,0.09 -0.34,0.48 -0.04,0.54 0.5,0.54 48.3,0.15 97.72,0.07 a 0.21,0.2 7.2 0 0 0.2,-0.15 l 7.15,-25.5 a 0.66,0.69 34.1 0 0 -0.1,-0.58 l -0.06,-0.08 a 0.52,0.52 0 0 0 -0.8,0.16 c -7.39,14.2 -21.78,23.25 -37.8,23.59 q -23.93,0.51 -43.46,0.43 a 1.07,1.07 0 0 1 -1.07,-1.07 v -65.06 a 1.1,1.08 82.8 0 1 0.81,-1.06 q 15.86,-4.22 32.11,-2.53 c 7.04,0.73 14.69,5.19 16.18,12.62 a 1.21,1.21 0 0 0 1.11,0.97 h 0.04 a 0.81,0.82 0.3 0 0 0.86,-0.86 q -0.82,-14.93 -0.2,-29.95 a 0.68,0.68 0 0 0 -0.49,-0.68 l -0.38,-0.1 a 0.83,0.83 0 0 0 -1.05,0.68 c -1.26,8.19 -9.66,12.56 -17.21,13.21 -13.49,1.15 -21.19,1.39 -31.16,4.41 a 0.5,0.5 0 0 1 -0.65,-0.48 v -65.26 a 0.37,0.37 0 0 1 0.37,-0.37 q 22.3,-0.05 37.17,0.04 c 11.76,0.08 22.84,3.55 31.59,11.69 2.45,2.27 3.65,5.03 5.41,7.69 a 0.6,0.6 0 0 0 1.04,0.1 l 0.07,-0.1 a 0.12,0.06 73.2 0 0 0.01,-0.05 l -5.57,-20.39 a 1.41,1.42 82.6 0 0 -1.37,-1.05 h -90.62 a 0.44,0.45 82.5 0 0 -0.43,0.56 q 0.13,0.47 0.74,0.6 c 8.48,1.83 9.12,11.23 9.18,19.05 q 0.21,24.87 0.14,51.99 a 0.82,0.82 0 0 1 -0.47,0.74 q -4.87,2.31 -9.51,6.19 -15.32,12.81 -15.27,32.74 a 0.78,0.78 0 0 0 0.78,0.78 h 0.3 a 1.11,1.11 0 0 0 1.11,-1.07 c 0.52,-15.04 9.21,-26.09 21.12,-34.4 q 1.1,-0.77 1.63,-0.92"
     id="path8"
     style="fill:none;stroke-width:2;stroke-linecap:butt" />
  <path
     stroke="#776c56"
     d="m 10838.41,2186.4734 q 3.61,-6.74 10,-11.63 c 4.5,-3.45 12.85,-5.94 17.74,-7.1 13.83,-3.3 22.54,-4.32 31.35,-13.83 7.83,-8.46 9.93,-17.24 9.3,-28.12 q -0.86,-14.81 -11.12,-24.56 c -9.86,-9.38 -22.51,-10.35 -35.28,-9.82 q -11.12,0.47 -14.25,0.78 c -7.04,0.69 -8.06,6.45 -8.1,12.31 q -0.05,6.3 -0.05,81.87 a 0.22,0.22 0 0 0 0.41,0.1"
     id="path29"
     style="fill:none;stroke-width:2;stroke-linecap:butt" />
  <path
     fill="#e2cca0"
     d="m 10636.47,2100.7634 a 0.22,0.21 24.9 0 0 -0.39,0.14 c 0.48,8.05 0.15,16.02 0.15,24.5 q 0.02,69.65 -0.03,76.92 c -0.07,9.61 1.43,23.01 12.95,25.85 a 0.41,0.41 0 0 1 -0.1,0.8 h -26.77 a 0.63,0.63 0 0 1 -0.17,-1.23 c 10.2,-2.94 11.47,-15.04 11.47,-23.89 q 0.01,-86.62 0.01,-105.58 a 2.68,2.68 0 0 0 -0.48,-1.53 c -5.98,-8.6 -14.1,-17.51 -21.55,-23.37 -9.29,-7.29 -21.55,-11.96 -33.16,-11.17 q -4.8,0.32 -12,1.93 a 0.69,0.69 0 0 1 -0.83,-0.83 l 0.04,-0.22 a 1.76,1.77 88.2 0 1 1.23,-1.3 q 23.31,-6.74 45.26,3.37 c 17.02,7.85 28.41,20.98 39.48,35.64 q 39.48,52.29 70.42,93.71 c 3.44,4.61 6.85,8.71 9.9,13.49 q 0.18,0.29 0.44,0.34 a 0.43,0.44 4 0 0 0.52,-0.46 c -0.67,-8.79 0.06,-18.23 0.03,-25.84 q -0.13,-34.63 -0.27,-70.53 c -0.02,-7.35 -1.73,-17.06 -9.69,-20.26 q -2.19,-0.88 -2.55,-1.05 a 0.44,0.44 0 0 1 0.19,-0.83 h 26.26 a 0.54,0.54 0 0 1 0.54,0.54 v 0.31 a 0.55,0.55 0 0 1 -0.45,0.54 c -11.81,2.13 -11.7,17.85 -11.66,27.48 q 0.14,32.12 -0.18,55.01 c -0.15,11.58 0.72,23.59 0.05,36 q -0.05,1.02 0.23,3.04 a 3.15,3.1 22.4 0 0 0.61,1.43 q 7.96,10.24 11.39,14.59 c 14.25,18.07 34.39,33.2 58.93,27.08 a 0.82,0.81 75.4 0 1 0.98,0.58 l 0.08,0.26 a 0.5,0.5 0 0 1 -0.3,0.59 q -5.31,2.09 -10.71,2.56 c -27.58,2.41 -50.66,-13.66 -66.69,-34.63 -18.95,-24.8 -44.61,-60.24 -66.15,-88.09 q -3.77,-4.88 -27.03,-35.89 z"
     id="path35" />
  <path
     fill="#e2cca0"
     d="m 10847.35,2229.0834 h -30.77 a 0.42,0.42 0 0 1 -0.14,-0.81 c 8.45,-3.14 8.53,-9.37 9,-17.94 q 0.32,-5.74 0.33,-9.33 0.08,-59.56 -0.06,-90.73 c -0.03,-7.95 -0.74,-17.5 -9.42,-19.8 a 0.52,0.52 0 0 1 0.14,-1.02 c 20.41,0.26 40.52,-0.76 60.76,-0.01 17.66,0.65 35.8,10.18 40.99,28.16 4.13,14.3 -0.15,30.13 -11.84,39.63 -10.45,8.48 -24.84,10.49 -39.3,12.92 -8.29,1.39 -18.09,6.13 -23.43,12.65 q -4.61,5.62 -5.31,14.78 -0.99,12.9 0.62,21.29 1.4,7.29 8.56,9.21 a 0.51,0.51 0 0 1 -0.13,1 z m -8.94,-42.61 q 3.61,-6.74 10,-11.63 c 4.5,-3.45 12.85,-5.94 17.74,-7.1 13.83,-3.3 22.54,-4.32 31.35,-13.83 7.83,-8.46 9.93,-17.24 9.3,-28.12 q -0.86,-14.81 -11.12,-24.56 c -9.86,-9.38 -22.51,-10.35 -35.28,-9.82 q -11.12,0.47 -14.25,0.78 c -7.04,0.69 -8.06,6.45 -8.1,12.31 q -0.05,6.3 -0.05,81.87 a 0.22,0.22 0 0 0 0.41,0.1 z"
     id="path38" />
  <path
     fill="#e2cca0"
     d="m 11054.96,2089.4734 q 0.86,-0.19 1.57,-0.16 14.42,0.52 26.87,0.04 17.94,-0.7 34.24,0.27 c 13.27,0.79 28.29,8.24 34.96,20.22 6.33,11.37 6.51,25.27 0.41,36.77 -5.86,11.03 -15.63,16.33 -27.61,19.98 q -6.39,1.95 -12.88,2.77 a 0.35,0.35 0 0 0 -0.1,0.66 c 7.92,3.48 15.78,11.73 21.57,19.17 q 8.69,11.17 20.27,27.95 c 16.89,24.47 37.94,46.22 70.79,38.38 a 0.71,0.7 83.3 0 1 0.87,0.69 v 0.35 a 0.64,0.64 0 0 1 -0.41,0.6 q -10.62,4.22 -24.59,2.87 -19.56,-1.9 -35.14,-13.66 c -15.01,-11.33 -24.59,-25.58 -35.25,-42.32 -7.42,-11.64 -14.78,-23.7 -25.85,-31.12 q -6.68,-4.48 -15.07,-3.99 a 0.99,0.99 0 0 1 -1.04,-1.09 l 0.01,-0.05 a 1.22,1.22 0 0 1 1.27,-1.1 c 18.55,0.82 36.84,0.16 48.3,-16.29 5.53,-7.94 7.37,-18.54 6.02,-27.65 -2.67,-18.02 -16.72,-30.58 -34.76,-31.2 q -10.09,-0.34 -20.5,0.48 -7.46,0.59 -10.71,6.9 c -1.83,3.53 -1.37,11.59 -1.37,14.81 q -0.05,89.66 -0.05,98.25 0,1.3 0.7,5.72 1.26,7.95 8.89,10.1 a 0.61,0.61 0 0 1 -0.17,1.2 h -30.8 a 0.64,0.63 36 0 1 -0.2,-1.24 q 7.07,-2.26 8.43,-9.78 0.89,-4.9 0.9,-15.66 0.06,-73.16 -0.04,-95.09 -0.01,-1.02 -0.52,-5.73 -0.91,-8.44 -9.05,-11.05 a 0.52,0.52 0 0 1 0.04,-1 z"
     id="path39" />
  <path
     fill="#e2cca0"
     d="m 10433.061,2089.2534 q 27.699,0.08 29.839,-0.06 0.27,-0.02 0.83,0.19 a 0.54,0.54 0 0 1 -0.02,1.01 c -9.089,3 -9.079,12.94 -9.069,21.11 q 0.04,66.2 -0.11,77 c -0.29,20.58 -4.39,41.37 -19.3,56.22 q -12.88,12.82 -31.8,15.55 a 0.78,0.78 0 0 1 -0.89,-0.73 l -0.01,-0.32 a 0.59,0.59 0 0 1 0.44,-0.61 q 16.23,-4.27 25.84,-17.15 c 6.3,-8.43 10.18,-20.87 11.78,-31.22 q 1.56,-10.15 1.6,-23.99 0.1,-30.03 0.08,-73.5 0,-8.62 -1.59,-14.59 -1.53,-5.75 -7.8,-7.76 a 0.59,0.59 0 0 1 0.18,-1.15 z"
     id="path40" />
  <path
     fill="#e2cca0"
     d="m 10609.09,2089.4034 a 0.52,0.52 0 0 1 0.16,1.01 q -2.93,0.98 -4.44,1.93 c -4.94,3.08 -7.03,11.83 -7.11,16.92 q -0.09,5.51 -0.3,61.49 -0.02,7.07 -1.5,16.74 -2.09,13.67 -9.96,24.8 c -10.84,15.33 -30.38,20.57 -48.46,18.11 -20.81,-2.83 -36.26,-14.04 -42.96,-33.82 q -4.05,-11.99 -4.2,-27.85 -0.15,-16.93 -0.07,-59.48 0.01,-5.88 -1.15,-10.68 -1.53,-6.32 -7.97,-7.96 a 0.68,0.68 0 0 1 -0.09,-1.29 q 0.31,-0.14 1.37,-0.12 15.96,0.28 26.74,0.01 1.45,-0.03 2.42,0.17 a 0.49,0.49 0 0 1 0.1,0.92 c -3.46,1.57 -5.8,2.67 -7.28,6.45 q -1.64,4.15 -1.73,8.75 -0.34,16.75 -0.09,66.74 0.06,13.34 4.27,25.92 c 3.16,9.44 7.76,15.51 15.17,21.5 q 7.86,6.36 17.35,7.82 15.05,2.3 27.6,-3.09 6,-2.57 12.57,-8.52 c 13.06,-11.81 15.49,-31.79 15.6,-48.36 q 0.14,-20.72 -0.22,-51.76 c -0.13,-10.44 -1.02,-22.37 -12.63,-25.53 a 0.39,0.39 0 0 1 -0.27,-0.5 q 0.11,-0.35 0.37,-0.36 12.69,-0.1 26.71,0.04 z"
     id="path41" />
  <path
     fill="#e2cca0"
     d="m 10780.56,2089.4334 q 6.61,0 15.77,-0.06 a 0.46,0.46 0 0 1 0.34,0.78 q -0.55,0.58 -1.6,0.9 c -8.26,2.5 -8.38,13.46 -8.24,20.69 q 0.03,1.31 0.01,47.5 -0.01,46.2 -0.03,47.51 c -0.15,7.23 -0.03,18.19 8.22,20.7 q 1.05,0.32 1.6,0.9 a 0.46,0.46 0 0 1 -0.34,0.77 q -9.16,-0.06 -15.76,-0.06 -6.61,-0.01 -15.77,0.06 a 0.46,0.46 0 0 1 -0.34,-0.78 q 0.55,-0.58 1.6,-0.9 c 8.26,-2.5 8.38,-13.46 8.24,-20.69 q -0.03,-1.32 -0.01,-47.51 0.01,-46.19 0.03,-47.51 c 0.15,-7.23 0.04,-18.19 -8.22,-20.69 q -1.05,-0.32 -1.6,-0.9 a 0.46,0.46 0 0 1 0.34,-0.78 q 9.16,0.07 15.76,0.07 z"
     id="path42" />
  <path
     fill="#e2cca0"
     d="m 10942.27,2165.5634 q -0.53,0.15 -1.63,0.92 c -11.91,8.31 -20.6,19.36 -21.12,34.4 a 1.11,1.11 0 0 1 -1.11,1.07 h -0.3 a 0.78,0.78 0 0 1 -0.78,-0.78 q -0.05,-19.93 15.27,-32.74 4.64,-3.88 9.51,-6.19 a 0.82,0.82 0 0 0 0.47,-0.74 q 0.07,-27.12 -0.14,-51.99 c -0.06,-7.82 -0.7,-17.22 -9.18,-19.05 q -0.61,-0.13 -0.74,-0.6 a 0.44,0.45 82.5 0 1 0.43,-0.56 h 90.62 a 1.41,1.42 82.6 0 1 1.37,1.05 l 5.57,20.39 a 0.12,0.06 73.2 0 1 -0.01,0.05 l -0.07,0.1 a 0.6,0.6 0 0 1 -1.04,-0.1 c -1.76,-2.66 -2.96,-5.42 -5.41,-7.69 -8.75,-8.14 -19.83,-11.61 -31.59,-11.69 q -14.87,-0.09 -37.17,-0.04 a 0.37,0.37 0 0 0 -0.37,0.37 v 65.26 a 0.5,0.5 0 0 0 0.65,0.48 c 9.97,-3.02 17.67,-3.26 31.16,-4.41 7.55,-0.65 15.95,-5.02 17.21,-13.21 a 0.83,0.83 0 0 1 1.05,-0.68 l 0.38,0.1 a 0.68,0.68 0 0 1 0.49,0.68 q -0.62,15.02 0.2,29.95 a 0.81,0.82 0.3 0 1 -0.86,0.86 h -0.04 a 1.21,1.21 0 0 1 -1.11,-0.97 c -1.49,-7.43 -9.14,-11.89 -16.18,-12.62 q -16.25,-1.69 -32.11,2.53 a 1.1,1.08 82.8 0 0 -0.81,1.06 v 65.06 a 1.07,1.07 0 0 0 1.07,1.07 q 19.53,0.08 43.46,-0.43 c 16.02,-0.34 30.41,-9.39 37.8,-23.59 a 0.52,0.52 0 0 1 0.8,-0.16 l 0.06,0.08 a 0.66,0.69 34.1 0 1 0.1,0.58 l -7.15,25.5 a 0.21,0.2 7.2 0 1 -0.2,0.15 q -49.42,0.08 -97.72,-0.07 -0.54,0 -0.5,-0.54 0.03,-0.39 0.34,-0.48 c 9.38,-2.51 9.51,-13.85 9.56,-22.18 q 0.06,-9.08 0.08,-39.97 a 0.24,0.24 0 0 0 -0.31,-0.23 z"
     id="path43" />
  <path
     stroke="#776c56"
     d="m 10200.202,2156.0283 -1.749,-35.4604 a 0.37728372,0.37365112 0 0 0 -0.396,-0.3554 l -0.239,0.01 a 0.95701123,0.93868564 0.44967527 0 0 -0.902,0.8567 q -1.049,12.1938 -0.635,18.7919 c 0.911,14.7547 1.261,25.4447 2.145,38.4861 q 0.57,8.4664 0.248,18.2724 0,0.091 0.05,0.3372 0.05,0.2187 -0.12,0.319 a 0.27606126,0.27340326 0 0 1 -0.414,-0.1549 q -2.153,-7.2726 -5.3,-15.3835 -2.227,-5.7506 -10.941,-18.4092 -0.911,-1.3305 -2.301,-1.9594 a 0.84645849,0.82944996 5.2540541 0 0 -1.187,0.8202 q 1.85,23.8499 15.101,43.462 c 2.641,3.9006 4.214,5.9693 3.358,11.246 q -1.325,8.0381 -2.751,11.966 c -2.889,7.9378 -4.877,13.9618 -9.239,19.8764 -4.923,6.671 -8.953,11.4829 -12.229,17.4158 q -2.108,3.8094 -7.482,12.048 c -6.423,9.8698 -11.484,21.8084 -15.661,31.3411 q -2.273,5.1946 -3.598,10.4896 a 1.104245,1.093613 0 0 0 0.248,1.0024 q 1.169,1.2759 3.083,0.7382 a 1.2237379,1.1939913 4.7651373 0 0 0.708,-0.5286 q 1.371,-2.1872 2.393,-5.0215 4.214,-11.7107 9.009,-20.487 2.659,-4.8757 8.153,-15.1648 4.49,-8.4208 9.965,-15.2012 1.298,-1.6131 3.175,-1.8956 c 13.233,-1.9776 25.683,-4.1648 37.728,-8.9311 a 0.35555258,0.34955137 76.096261 0 1 0.488,0.3554 q -1.362,17.434 -7.426,34.1207 c -5.273,14.5177 -17.254,30.284 -31.388,37.2375 -9.773,4.8028 -19.343,7.874 -30.247,8.2933 -12.69,0.4921 -23.944,-0.5286 -36.137,-5.0671 q -23.216,-8.6213 -36.642,-28.4613 c -13.886,-20.5143 -17.254,-46.278 -7.233,-69.1619 q 8.871,-20.2318 28.71,-29.6278 c 22.417,-10.608 53.474,-4.0919 63.605,20.323 q 4.233,10.1706 1.61,21.9725 a 0.77297153,0.76552912 0 0 0 1.013,0.884 c 3.174,-1.1483 6.312,-7.956 7.591,-11.1913 q 1.923,-4.8484 2.006,-10.7174 0.258,-17.1515 -11.898,-29.3909 c -10.343,-10.4075 -25.407,-14.6362 -39.918,-13.661 -39.008,2.6155 -63.945,35.6973 -65.556,72.5703 -1.27,29.1721 11.273,55.9201 35.585,72.7708 20.759,14.3993 47.178,18.1358 71.84,14.8094 q 22.913,-3.0804 42.357,-15.9212 c 15.883,-10.4987 28.038,-26.8755 34.038,-44.6741 q 6.681,-19.8217 6.957,-40.8464 0.276,-21.0794 0.07,-37.9484 a 1.4263165,1.4125835 0 0 1 1.012,-1.3761 c 2.981,-0.8931 10.094,-2.5791 12.266,0.027 q 12.625,15.1374 30.615,22.9021 a 0.9202042,0.91134419 0 0 0 1.279,-0.7382 q 0.09,-0.8658 -0.598,-2.0505 c -5.457,-9.3048 -13.959,-17.5525 -24.302,-22.0363 a 0.26685922,0.26428982 0 0 1 0.11,-0.5104 q 9.874,0.2461 28.885,0.9296 5.586,0.2096 15.552,-1.2394 a 1.1318512,1.1209534 0 0 0 0.828,-1.6405 l -0.03,-0.064 a 2.5408075,2.5233862 8.0869962 0 0 -2.374,-1.3032 q -14.594,0.8567 -19.49,0.5195 c -14.852,-1.0298 -26.465,-2.1781 -40.001,0.4374 q -7.297,1.4035 -11.687,3.9644 c -7.913,4.6114 -13.72,10.9635 -19.269,18.6461 q -1.085,1.5037 -1.113,3.9552 -0.07,7.7009 -0.203,19.9493 a 0.69015315,0.68350814 0 0 1 -0.57,0.6653 c -12.082,2.2055 -22.72,6.7804 -33.56,12.4399 a 0.33127351,0.32808391 0 0 1 -0.414,-0.483 c 7.5,-10.3347 16.104,-21.7174 24.91,-31.405 4.426,-4.8757 11.815,-14.0073 18.79,-21.2525 q 8.954,-9.3139 17.733,-18.9924 2.935,-3.2444 6.57,-6.5982 5.678,-5.2493 6.975,-6.1424 17.236,-11.7928 37.425,-17.6345 a 1.5147931,1.5347508 77.317983 0 1 1.362,0.246 q 4.647,3.5178 10.665,7.3181 16.831,10.6354 36.946,11.7017 1.362,0.073 2.328,-0.319 a 0.82818378,0.82020977 0 0 0 0.322,-1.285 c -2.705,-3.1988 -5.926,-5.2493 -10.481,-8.1109 q -15.708,-9.8608 -33.32,-12.4034 a 0.35887964,0.35542423 0 0 1 -0.04,-0.6926 l 17.824,-4.3107 a 5.4237273,5.3641157 8.6318642 0 1 1.215,-0.1549 q 12.285,-0.1276 18.79,-2.4698 8.245,-2.9618 15.322,-7.4183 a 1.0599821,1.1380145 60.106757 0 0 0.368,-1.522 q -0.433,-0.6379 -1.408,-0.7655 -19.757,-2.6064 -34.259,9.2319 a 1.8758924,1.7783756 14.259398 0 1 -0.736,0.3646 l -12.589,3.0439 a 0.27606126,0.27340326 0 0 1 -0.23,-0.4922 q 5.061,-3.5998 11.742,-9.4597 c 4.849,-4.256 9.257,-9.7058 12.883,-14.9278 q 1.491,-2.1417 2.595,-4.5659 a 0.89259807,0.88400386 0 0 0 -0.976,-1.2303 q -1.481,0.2734 -3.414,1.2485 -16.342,8.2204 -27.192,22.091 -4.094,5.222 -7.453,10.3073 a 3.7080456,3.6548621 3.4146146 0 1 -2.292,1.5767 q -6.367,1.4672 -12.533,4.1557 -9.763,4.256 -16.867,8.0016 a 0.31286943,0.30985702 0 0 1 -0.405,-0.4466 q 0.718,-1.0389 11.613,-15.4381 c 7.086,-9.3595 15.202,-22.2915 19.702,-29.5276 3.395,-5.4589 6.984,-15.1374 11.677,-22.8656 a 2.1164697,2.0960916 0 0 1 1.27,-0.9478 q 9.211,-2.4424 14.291,-4.1284 c 12.956,-4.2833 25.406,-10.6718 35.639,-20.2774 q 0.847,-0.802 0.976,-1.4491 a 0.99382054,0.98425173 0 0 0 -1.132,-1.1574 q -26.309,4.338 -47.05,20.1316 a 0.1748388,0.1731554 0 0 1 -0.267,-0.1913 q 2.107,-6.024 5.291,-14.4904 c 0.819,-2.1872 2.024,-3.3993 3.92,-4.5567 13.38,-8.2204 25.039,-19.8582 30.698,-34.704 a 0.69935519,0.69262158 0 0 0 -0.764,-0.9296 c -1.601,0.2461 -2.908,1.3944 -4.085,2.1508 q -11.696,7.4365 -20.438,18.3271 c -1.399,1.7407 -1.923,3.1077 -3.276,4.4474 a 0.17329501,0.16550331 71.624454 0 1 -0.285,-0.1641 l 5.033,-20.1862 a 8.5715684,8.6909251 81.798869 0 1 0.838,-2.1144 c 2.383,-4.2286 4.941,-8.3479 6.331,-12.8681 q 3.662,-11.9204 2.355,-25.9734 a 0.88339603,0.87489042 0 0 0 -1.187,-0.7381 q -0.533,0.2004 -0.874,0.6561 -8.355,11.1093 -9.837,25.1896 c -0.432,4.0372 0.239,11.975 -0.902,17.2153 -1.306,5.9875 -3.616,12.7041 -5.291,17.434 a 0.10215925,0.10117563 0 0 1 -0.202,-0.027 q -0.08,-14.1531 -3.396,-28.9443 -1.279,-5.6776 -3.791,-11.2368 a 1.4143257,1.2683175 68.250082 0 0 -1.546,-0.8202 q -0.184,0.046 -0.469,0.4101 -0.764,0.9569 -1.261,3.7547 -1.049,5.9602 -0.985,17.9535 c 0.06,10.6992 2.154,19.7944 5.19,30.3295 q 0.976,3.372 0.35,5.2311 -3.515,10.444 -9.349,21.7174 a 0.24845513,0.24606293 0 0 1 -0.47,-0.1458 q 0.46,-3.3173 0.166,-7.2543 -0.515,-6.8351 -2.181,-14.782 -3.579,-17.106 -12.248,-31.1225 -0.8,-1.2849 -1.951,-1.9502 a 0.6349409,0.62882749 0 0 0 -0.947,0.4556 q -0.461,3.2353 -0.304,7.2543 1.04,25.9734 13.923,51.0627 0.984,1.9047 0.08,4.183 -1.868,4.7117 -4.334,8.9585 -9.938,17.0969 -19.582,30.5027 -1.895,2.6247 -3.681,4.7755 a 0.4288001,0.4412156 73.67795 0 1 -0.772,-0.3008 q 0.653,-9.9336 -0.718,-19.3843 c -1.509,-10.3802 -3.074,-18.5914 -3.985,-28.5159 q -0.635,-6.8989 -1.481,-12.2211 a 0.44169802,0.43744521 0 0 0 -0.746,-0.237 l -0.05,0.046 a 1.9212228,1.9066525 32.984843 0 0 -0.561,1.4126 q 0.58,17.8259 3.994,39.0693 0.515,3.2444 0.239,6.4341 a 0.2852633,0.2825167 0 0 1 -0.552,0.055 q -3.258,-11.3007 -10.877,-21.0521 -0.782,-1.0025 -1.638,-1.121 a 0.78214013,0.78378951 9.0277096 0 0 -0.893,0.8385 q 1.574,17.0057 10.141,32.3345 2.641,4.7299 2.705,7.1176 0.05,1.8318 -1.408,3.8003 -8.024,10.8632 -17.272,20.3503 a 0.40488985,0.40099144 0 0 1 -0.69,-0.2734 q -0.12,-62.3359 -0.06,-127.7796 0,-7.3181 1.895,-15.1009 c 1.39,-5.7142 4.518,-10.7995 9.911,-12.7406 q 3.699,-1.3306 9.091,-1.8592 a 1.0308418,1.0296061 23.158395 0 0 0.93,-1.0207 v -2.5153 a 0.78217357,0.77464256 0 0 0 -0.782,-0.7746 q -64.856,-0.155 -65.077,-0.155 c -24.358,-0.01 -49.13,8.3662 -67.249,24.2782 -8.76,7.6918 -15.947,17.9991 -20.014,28.2335 q -9.101,22.8565 -0.884,47.0527 c 7.574,22.3097 27.901,35.9252 51.118,38.2582 q 4.573,0.4557 8.751,0.055 1.528,-0.1549 1.988,-1.5584 a 1.5359178,1.6504171 14.469997 0 0 -1.224,-2.1143 q -9.184,-1.1574 -16.573,-5.9876 c -15.947,-10.4166 -23.364,-26.4198 -24.643,-45.3029 -1.178,-17.5707 2.181,-33.8929 12.478,-48.4561 q 11.604,-16.4225 29.557,-23.531 c 10.775,-4.265 34.139,-10.927 39.136,4.976 q 1.758,5.6048 2.153,9.8607 0.718,7.6644 0.782,20.5053 0.332,65.6259 0.12,139.6361 c -0.02,4.7572 0.525,7.3546 -2.53,10.7903 -6.506,7.309 -10.252,11.1458 -14.761,16.9784 q -3.653,4.7116 -5.438,6.4432 a 0.30366739,0.30074358 0 0 1 -0.506,-0.164 q -0.06,-0.4102 0.05,-0.8567 c 1.454,-5.8873 2.862,-11.1366 3.497,-17.2609 q 1.205,-11.7654 0.699,-26.6477 -0.184,-5.1308 0.442,-6.4614 c 6.22,-13.3239 9.993,-30.7761 7.996,-44.7561 a 0.75456744,0.74730224 0 0 0 -1.196,-0.4921 q -0.837,0.6106 -1.38,1.6859 -4.73,9.3413 -7.528,20.4597 a 0.29257567,0.30268601 58.619516 0 1 -0.588,-0.055"
     id="path1"
     style="fill:none;stroke-width:1.83153;stroke-linecap:butt" />
  <path
     stroke="#776c56"
     d="m 10284.751,2089.8596 a 11.15909,10.937073 76.136211 0 0 -8.955,12.7748 11.15909,10.937073 76.136211 0 0 12.634,9.2353 11.15909,10.937073 76.136211 0 0 8.954,-12.7748 11.15909,10.937073 76.136211 0 0 -12.633,-9.2353"
     id="path9"
     style="fill:none;stroke-width:1.83153;stroke-linecap:butt" />
  <path
     stroke="#776c56"
     d="m 10324.444,2096.311 a 10.718192,10.911892 45.116124 0 0 -14.868,3.858 10.718192,10.911892 45.116124 0 0 3.593,14.8003 10.718192,10.911892 45.116124 0 0 14.868,-3.8581 10.718192,10.911892 45.116124 0 0 -3.593,-14.8002"
     id="path10"
     style="fill:none;stroke-width:1.83153;stroke-linecap:butt" />
  <path
     stroke="#776c56"
     d="m 10298.571,2173.4259 a 13.048496,12.922861 0 0 0 -13.048,-12.9229 13.048496,12.922861 0 0 0 -13.049,12.9229 13.048496,12.922861 0 0 0 13.049,12.9229 13.048496,12.922861 0 0 0 13.048,-12.9229"
     id="path11"
     style="fill:none;stroke-width:1.83153;stroke-linecap:butt" />
  <path
     stroke="#776c56"
     d="m 10337.57,1999.5688 a 0.16563676,0.16404195 0 0 0 -0.304,-0.082 q -8.54,12.5857 -6.828,27.4953 a 0.31286943,0.30985702 0 0 0 0.525,0.1914 q 1.214,-1.1027 2.033,-2.7705 c 3.819,-7.8284 4.73,-16.3495 4.574,-24.8341"
     id="path16"
     style="fill:none;stroke-width:1.83153;stroke-linecap:butt" />
  <path
     stroke="#776c56"
     d="m 10312.908,2041.0987 q 1.022,10.5716 4.178,20.8334 0.248,0.8019 0.561,0.7746 0.304,-0.027 0.387,-0.8658 1.141,-10.6718 0.129,-21.2434 -1.022,-10.5716 -4.178,-20.8333 -0.249,-0.802 -0.552,-0.7747 -0.304,0.027 -0.396,0.8658 -1.141,10.6627 -0.129,21.2434"
     id="path17"
     style="fill:none;stroke-width:1.83153;stroke-linecap:butt" />
  <path
     stroke="#776c56"
     d="m 10338.232,2050.5858 q 5.991,-6.3703 10.454,-14.144 a 0.20244492,0.20049572 0 0 0 -0.295,-0.2552 q -7.545,5.3769 -13.306,11.5011 -5.76,6.1243 -10.628,13.9709 a 0.20244492,0.20049572 0 0 0 0.276,0.2735 q 7.509,-4.9669 13.499,-11.3463"
     id="path18"
     style="fill:none;stroke-width:1.83153;stroke-linecap:butt" />
  <path
     stroke="#776c56"
     d="m 10303.384,2091.5234 q -0.561,-17.3702 -6.018,-33.7653 -2.218,-6.6893 -5.521,-12.048 a 0.36698529,0.37476743 39.621557 0 0 -0.69,0.2096 c 0.266,9.7514 2.263,17.4432 4.849,27.4224 1.656,6.3885 4.592,12.9957 6.819,18.2998 a 0.29446534,0.29163014 0 0 0 0.561,-0.1185"
     id="path19"
     style="fill:none;stroke-width:1.83153;stroke-linecap:butt" />
  <path
     stroke="#776c56"
     d="m 10334.054,2076.5774 q -9.837,4.6843 -19.572,11.9659 a 0.12882859,0.12758819 0 0 0 0.11,0.2187 q 12.653,-3.4995 21.607,-7.7646 8.953,-4.2742 19.609,-11.8748 a 0.12882859,0.12758819 0 0 0 -0.101,-0.2279 q -11.825,2.9983 -21.653,7.6827"
     id="path20"
     style="fill:none;stroke-width:1.83153;stroke-linecap:butt" />
  <path
     stroke="#776c56"
     d="m 10260.83,2116.7428 a 12.819436,1.2959647 69.515239 0 0 3.269,12.4548 12.819436,1.2959647 69.515239 0 0 5.701,11.5633 12.819436,1.2959647 69.515239 0 0 -3.268,-12.4549 12.819436,1.2959647 69.515239 0 0 -5.702,-11.5632"
     id="path21"
     style="fill:none;stroke-width:1.83153;stroke-linecap:butt" />
  <path
     stroke="#776c56"
     d="m 10317.638,2129.7178 q -6.883,6.3703 -12.229,14.3355 a 0.21164697,0.20960916 0 0 0 0.285,0.2916 q 8.466,-5.1764 15.082,-11.2915 6.607,-6.1152 12.395,-14.135 a 0.21164697,0.20960916 0 0 0 -0.276,-0.3007 q -8.383,4.7389 -15.257,11.1001"
     id="path22"
     style="fill:none;stroke-width:1.83153;stroke-linecap:butt" />
  <path
     stroke="#776c56"
     d="m 10340.836,2135.4958 q -6.193,1.8044 -11.106,5.2584 -0.405,0.2825 -0.617,0.638 a 0.25765718,0.25517637 0 0 0 0.23,0.3827 q 7.122,-0.3007 12.782,-1.9411 5.659,-1.6496 11.806,-5.2129 a 0.25765718,0.25517637 0 0 0 0,-0.4466 q -0.378,-0.1914 -0.865,-0.2096 -6.028,-0.2734 -12.221,1.5311"
     id="path23"
     style="fill:none;stroke-width:1.83153;stroke-linecap:butt" />
  <path
     stroke="#776c56"
     d="m 10203.533,2157.1493 q -1.62,7.7829 -1.565,16.2401 0,0.1641 0.08,0.237 a 0.29446534,0.29163014 0 0 0 0.479,-0.1367 c 1.454,-5.1218 3.147,-9.9245 4.343,-15.6569 1.196,-5.7415 1.574,-10.8177 2.291,-16.0852 a 0.29446534,0.29163014 0 0 0 -0.386,-0.3099 q -0.111,0.037 -0.175,0.1823 -3.442,7.7373 -5.07,15.5293"
     id="path24"
     style="fill:none;stroke-width:1.83153;stroke-linecap:butt" />
  <path
     stroke="#776c56"
     d="m 10323.61,2162.9454 c 6.911,2.7432 12.929,4.5021 20.153,5.0853 a 0.23005105,0.22783605 0 0 0 0.174,-0.4101 c -5.401,-4.3471 -11.778,-7.4456 -18.183,-9.9883 -6.395,-2.5426 -13.168,-4.6661 -20.106,-5.2129 a 0.23005105,0.22783605 0 0 0 -0.166,0.4101 c 5.632,4.5203 11.217,7.3728 18.128,10.1159"
     id="path25"
     style="fill:none;stroke-width:1.83153;stroke-linecap:butt" />
  <path
     stroke="#776c56"
     d="m 10187.052,2187.4697 q 3.469,8.7034 9.009,16.5865 a 0.21164697,0.20960916 0 0 0 0.386,-0.155 q -1.767,-9.7422 -5.098,-18.1084 -3.331,-8.3752 -8.751,-16.6867 a 0.21164697,0.20960916 0 0 0 -0.386,0.1458 q 1.38,9.5054 4.84,18.2178"
     id="path26"
     style="fill:none;stroke-width:1.83153;stroke-linecap:butt" />
  <path
     stroke="#776c56"
     d="m 10276.744,2209.506 q 6.46,5.0306 11.99,7.5915 a 0.18404084,0.18226884 0 0 0 0.23,-0.2734 q -4.352,-5.8964 -9.91,-10.2253 -5.558,-4.3289 -12.368,-7.1176 a 0.18404084,0.18226884 0 0 0 -0.211,0.2917 q 3.819,4.7116 10.269,9.7331"
     id="path27"
     style="fill:none;stroke-width:1.83153;stroke-linecap:butt" />
  <path
     stroke="#776c56"
     d="m 10209.91,2248.1652 q -12.718,4.1558 -24.459,10.8086 -0.93,0.5194 -0.81,0.884 0.129,0.3645 1.178,0.2369 13.435,-1.5766 26.152,-5.7323 12.717,-4.1558 24.459,-10.8086 0.92,-0.5194 0.801,-0.884 -0.12,-0.3645 -1.178,-0.2369 -13.426,1.5766 -26.143,5.7323"
     id="path28"
     style="fill:none;stroke-width:1.83153;stroke-linecap:butt" />
  <path
     stroke="#776c56"
     d="m 10287.935,2093.728 a 2.2641716,3.5180966 64.82229 0 0 -4.165,-0.5229 2.2641716,3.5180966 64.82229 0 0 -2.186,3.5502 2.2641716,3.5180966 64.82229 0 0 4.165,0.523 2.2641716,3.5180966 64.82229 0 0 2.186,-3.5503"
     id="path30"
     style="fill:none;stroke-width:1.83153;stroke-linecap:butt" />
  <path
     stroke="#776c56"
     d="m 10322.384,2102.0186 a 3.238209,2.2708428 71.930389 0 0 -1.179,3.7645 3.238209,2.2708428 71.930389 0 0 3.153,2.4031 3.238209,2.2708428 71.930389 0 0 1.179,-3.7645 3.238209,2.2708428 71.930389 0 0 -3.153,-2.4031"
     id="path31"
     style="fill:none;stroke-width:1.83153;stroke-linecap:butt" />
  <path
     stroke="#776c56"
     d="m 10293.716,2173.2979 a 2.5849149,4.0621173 39.640396 0 0 -4.588,1.5272 2.5849149,4.0621173 39.640396 0 0 -0.554,4.7619 2.5849149,4.0621173 39.640396 0 0 4.588,-1.5272 2.5849149,4.0621173 39.640396 0 0 0.554,-4.7619"
     id="path32"
     style="fill:none;stroke-width:1.83153;stroke-linecap:butt" />
  <path
     fill="#e2cca0"
     d="m 10200.202,2156.0283 a 0.29257567,0.30268601 58.619516 0 0 0.588,0.055 q 2.798,-11.1184 7.528,-20.4597 0.543,-1.0753 1.38,-1.6859 a 0.75456744,0.74730224 0 0 1 1.196,0.4921 c 1.997,13.98 -1.776,31.4322 -7.996,44.7561 q -0.626,1.3306 -0.442,6.4614 0.506,14.8823 -0.699,26.6477 c -0.635,6.1243 -2.043,11.3736 -3.497,17.2609 q -0.11,0.4465 -0.05,0.8567 a 0.30366739,0.30074358 0 0 0 0.506,0.164 q 1.785,-1.7316 5.438,-6.4432 c 4.509,-5.8326 8.255,-9.6694 14.761,-16.9784 3.055,-3.4357 2.512,-6.0331 2.53,-10.7903 q 0.212,-74.0102 -0.12,-139.6361 -0.06,-12.8409 -0.782,-20.5053 -0.395,-4.2559 -2.153,-9.8607 c -4.997,-15.903 -28.361,-9.241 -39.136,-4.976 q -17.953,7.1085 -29.557,23.531 c -10.297,14.5632 -13.656,30.8854 -12.478,48.4561 1.279,18.8831 8.696,34.8863 24.643,45.3029 q 7.389,4.8302 16.573,5.9876 a 1.5359178,1.6504171 14.469997 0 1 1.224,2.1143 q -0.46,1.4035 -1.988,1.5584 -4.178,0.401 -8.751,-0.055 c -23.217,-2.333 -43.544,-15.9485 -51.118,-38.2582 q -8.217,-24.1962 0.884,-47.0527 c 4.067,-10.2344 11.254,-20.5417 20.014,-28.2335 18.119,-15.912 42.891,-24.2873 67.249,-24.2782 q 0.221,0 65.077,0.155 a 0.78217357,0.77464256 0 0 1 0.782,0.7746 v 2.5153 a 1.0308418,1.0296061 23.158395 0 1 -0.93,1.0207 q -5.392,0.5286 -9.091,1.8592 c -5.393,1.9411 -8.521,7.0264 -9.911,12.7406 q -1.895,7.7828 -1.895,15.1009 -0.06,65.4437 0.06,127.7796 a 0.40488985,0.40099144 0 0 0 0.69,0.2734 q 9.248,-9.4871 17.272,-20.3503 1.454,-1.9685 1.408,-3.8003 -0.06,-2.3877 -2.705,-7.1176 -8.567,-15.3288 -10.141,-32.3345 a 0.78214013,0.78378951 9.0277096 0 1 0.893,-0.8385 q 0.856,0.1185 1.638,1.121 7.619,9.7514 10.877,21.0521 a 0.2852633,0.2825167 0 0 0 0.552,-0.055 q 0.276,-3.1897 -0.239,-6.4341 -3.414,-21.2434 -3.994,-39.0693 a 1.9212228,1.9066525 32.984843 0 1 0.561,-1.4126 l 0.05,-0.046 a 0.44169802,0.43744521 0 0 1 0.746,0.237 q 0.846,5.3222 1.481,12.2211 c 0.911,9.9245 2.476,18.1357 3.985,28.5159 q 1.371,9.4507 0.718,19.3843 a 0.4288001,0.4412156 73.67795 0 0 0.772,0.3008 q 1.786,-2.1508 3.681,-4.7755 9.644,-13.4058 19.582,-30.5027 2.466,-4.2468 4.334,-8.9585 0.902,-2.2783 -0.08,-4.183 -12.883,-25.0893 -13.923,-51.0627 -0.157,-4.019 0.304,-7.2543 a 0.6349409,0.62882749 0 0 1 0.947,-0.4556 q 1.151,0.6653 1.951,1.9502 8.669,14.0165 12.248,31.1225 1.666,7.9469 2.181,14.782 0.294,3.937 -0.166,7.2543 a 0.24845513,0.24606293 0 0 0 0.47,0.1458 q 5.834,-11.2734 9.349,-21.7174 0.626,-1.8591 -0.35,-5.2311 c -3.036,-10.5351 -5.134,-19.6303 -5.19,-30.3295 q -0.06,-11.9933 0.985,-17.9535 0.497,-2.7978 1.261,-3.7547 0.285,-0.3646 0.469,-0.4101 a 1.4143257,1.2683175 68.250082 0 1 1.546,0.8202 q 2.512,5.5592 3.791,11.2368 3.313,14.7912 3.396,28.9443 a 0.10215925,0.10117563 0 0 0 0.202,0.027 c 1.675,-4.7299 3.985,-11.4465 5.291,-17.434 1.141,-5.2403 0.47,-13.1781 0.902,-17.2153 q 1.482,-14.0803 9.837,-25.1896 0.341,-0.4557 0.874,-0.6561 a 0.88339603,0.87489042 0 0 1 1.187,0.7381 q 1.307,14.053 -2.355,25.9734 c -1.39,4.5202 -3.948,8.6395 -6.331,12.8681 a 8.5715684,8.6909251 81.798869 0 0 -0.838,2.1144 l -5.033,20.1862 a 0.17329501,0.16550331 71.624454 0 0 0.285,0.1641 c 1.353,-1.3397 1.877,-2.7067 3.276,-4.4474 q 8.742,-10.8906 20.438,-18.3271 c 1.177,-0.7564 2.484,-1.9047 4.085,-2.1508 a 0.69935519,0.69262158 0 0 1 0.764,0.9296 c -5.659,14.8458 -17.318,26.4836 -30.698,34.704 -1.896,1.1574 -3.101,2.3695 -3.92,4.5567 q -3.184,8.4664 -5.291,14.4904 a 0.1748388,0.1731554 0 0 0 0.267,0.1913 q 20.741,-15.7936 47.05,-20.1316 a 0.99382054,0.98425173 0 0 1 1.132,1.1574 q -0.129,0.6471 -0.976,1.4491 c -10.233,9.6056 -22.683,15.9941 -35.639,20.2774 q -5.08,1.686 -14.291,4.1284 a 2.1164697,2.0960916 0 0 0 -1.27,0.9478 c -4.693,7.7282 -8.282,17.4067 -11.677,22.8656 -4.5,7.2361 -12.616,20.1681 -19.702,29.5276 q -10.895,14.3992 -11.613,15.4381 a 0.31286943,0.30985702 0 0 0 0.405,0.4466 q 7.104,-3.7456 16.867,-8.0016 6.166,-2.6885 12.533,-4.1557 a 3.7080456,3.6548621 3.4146146 0 0 2.292,-1.5767 q 3.359,-5.0853 7.453,-10.3073 10.85,-13.8706 27.192,-22.091 1.933,-0.9751 3.414,-1.2485 a 0.89259807,0.88400386 0 0 1 0.976,1.2303 q -1.104,2.4242 -2.595,4.5659 c -3.626,5.222 -8.034,10.6718 -12.883,14.9278 q -6.681,5.8599 -11.742,9.4597 a 0.27606126,0.27340326 0 0 0 0.23,0.4922 l 12.589,-3.0439 a 1.8758924,1.7783756 14.259398 0 0 0.736,-0.3646 q 14.502,-11.8383 34.259,-9.2319 0.975,0.1276 1.408,0.7655 a 1.0599821,1.1380145 60.106757 0 1 -0.368,1.522 q -7.077,4.4565 -15.322,7.4183 -6.505,2.3422 -18.79,2.4698 a 5.4237273,5.3641157 8.6318642 0 0 -1.215,0.1549 l -17.824,4.3107 a 0.35887964,0.35542423 0 0 0 0.04,0.6926 q 17.612,2.5426 33.32,12.4034 c 4.555,2.8616 7.776,4.9121 10.481,8.1109 a 0.82818378,0.82020977 0 0 1 -0.322,1.285 q -0.966,0.3919 -2.328,0.319 -20.115,-1.0663 -36.946,-11.7017 -6.018,-3.8003 -10.665,-7.3181 a 1.5147931,1.5347508 77.317983 0 0 -1.362,-0.246 q -20.189,5.8417 -37.425,17.6345 -1.297,0.8931 -6.975,6.1424 -3.635,3.3538 -6.57,6.5982 -8.779,9.6785 -17.733,18.9924 c -6.975,7.2452 -14.364,16.3768 -18.79,21.2525 -8.806,9.6876 -17.41,21.0703 -24.91,31.405 a 0.33127351,0.32808391 0 0 0 0.414,0.483 c 10.84,-5.6595 21.478,-10.2344 33.56,-12.4399 a 0.69015315,0.68350814 0 0 0 0.57,-0.6653 q 0.129,-12.2484 0.203,-19.9493 0.03,-2.4515 1.113,-3.9552 c 5.549,-7.6826 11.356,-14.0347 19.269,-18.6461 q 4.39,-2.5609 11.687,-3.9644 c 13.536,-2.6155 25.149,-1.4672 40.001,-0.4374 q 4.896,0.3372 19.49,-0.5195 a 2.5408075,2.5233862 8.0869962 0 1 2.374,1.3032 l 0.03,0.064 a 1.1318512,1.1209534 0 0 1 -0.828,1.6405 q -9.966,1.449 -15.552,1.2394 -19.011,-0.6835 -28.885,-0.9296 a 0.26685922,0.26428982 0 0 0 -0.11,0.5104 c 10.343,4.4838 18.845,12.7315 24.302,22.0363 q 0.69,1.1847 0.598,2.0505 a 0.9202042,0.91134419 0 0 1 -1.279,0.7382 q -17.99,-7.7647 -30.615,-22.9021 c -2.172,-2.6064 -9.285,-0.9204 -12.266,-0.027 a 1.4263165,1.4125835 0 0 0 -1.012,1.3761 q 0.202,16.869 -0.07,37.9484 -0.276,21.0247 -6.957,40.8464 c -6,17.7986 -18.155,34.1754 -34.038,44.6741 q -19.444,12.8408 -42.357,15.9212 c -24.662,3.3264 -51.081,-0.4101 -71.84,-14.8094 -24.312,-16.8507 -36.855,-43.5987 -35.585,-72.7708 1.611,-36.873 26.548,-69.9548 65.556,-72.5703 14.511,-0.9752 29.575,3.2535 39.918,13.661 q 12.156,12.2394 11.898,29.3909 -0.08,5.869 -2.006,10.7174 c -1.279,3.2353 -4.417,10.043 -7.591,11.1913 a 0.77297153,0.76552912 0 0 1 -1.013,-0.884 q 2.623,-11.8019 -1.61,-21.9725 c -10.131,-24.4149 -41.188,-30.931 -63.605,-20.323 q -19.839,9.396 -28.71,29.6278 c -10.021,22.8839 -6.653,48.6476 7.233,69.1619 q 13.426,19.84 36.642,28.4613 c 12.193,4.5385 23.447,5.5592 36.137,5.0671 10.904,-0.4193 20.474,-3.4905 30.247,-8.2933 14.134,-6.9535 26.115,-22.7198 31.388,-37.2375 q 6.064,-16.6867 7.426,-34.1207 a 0.35555258,0.34955137 76.096261 0 0 -0.488,-0.3554 c -12.045,4.7663 -24.495,6.9535 -37.728,8.9311 q -1.877,0.2825 -3.175,1.8956 -5.475,6.7804 -9.965,15.2012 -5.494,10.2891 -8.153,15.1648 -4.795,8.7763 -9.009,20.487 -1.022,2.8343 -2.393,5.0215 a 1.2237379,1.1939913 4.7651373 0 1 -0.708,0.5286 q -1.914,0.5377 -3.083,-0.7382 a 1.104245,1.093613 0 0 1 -0.248,-1.0024 q 1.325,-5.295 3.598,-10.4896 c 4.177,-9.5327 9.238,-21.4713 15.661,-31.3411 q 5.374,-8.2386 7.482,-12.048 c 3.276,-5.9329 7.306,-10.7448 12.229,-17.4158 4.362,-5.9146 6.35,-11.9386 9.239,-19.8764 q 1.426,-3.9279 2.751,-11.966 c 0.856,-5.2767 -0.717,-7.3454 -3.358,-11.246 q -13.251,-19.6121 -15.101,-43.462 a 0.84645849,0.82944996 5.2540541 0 1 1.187,-0.8202 q 1.39,0.6289 2.301,1.9594 8.714,12.6586 10.941,18.4092 3.147,8.1109 5.3,15.3835 a 0.27606126,0.27340326 0 0 0 0.414,0.1549 q 0.166,-0.1003 0.12,-0.319 -0.05,-0.246 -0.05,-0.3372 0.322,-9.806 -0.248,-18.2724 c -0.884,-13.0414 -1.234,-23.7314 -2.145,-38.4861 q -0.414,-6.5981 0.635,-18.7919 a 0.95701123,0.93868564 0.44967527 0 1 0.902,-0.8567 l 0.239,-0.01 a 0.37728372,0.37365112 0 0 1 0.396,0.3554 z m 137.368,-156.4595 a 0.16563676,0.16404195 0 0 0 -0.304,-0.082 q -8.54,12.5857 -6.828,27.4953 a 0.31286943,0.30985702 0 0 0 0.525,0.1914 q 1.214,-1.1027 2.033,-2.7705 c 3.819,-7.8284 4.73,-16.3495 4.574,-24.8341 z m -24.662,41.5299 q 1.022,10.5716 4.178,20.8334 0.248,0.8019 0.561,0.7746 0.304,-0.027 0.387,-0.8658 1.141,-10.6718 0.129,-21.2434 -1.022,-10.5716 -4.178,-20.8333 -0.249,-0.802 -0.552,-0.7747 -0.304,0.027 -0.396,0.8658 -1.141,10.6627 -0.129,21.2434 z m 25.324,9.4871 q 5.991,-6.3703 10.454,-14.144 a 0.20244492,0.20049572 0 0 0 -0.295,-0.2552 q -7.545,5.3769 -13.306,11.5011 -5.76,6.1243 -10.628,13.9709 a 0.20244492,0.20049572 0 0 0 0.276,0.2735 q 7.509,-4.9669 13.499,-11.3463 z m -34.848,40.9376 q -0.561,-17.3702 -6.018,-33.7653 -2.218,-6.6893 -5.521,-12.048 a 0.36698529,0.37476743 39.621557 0 0 -0.69,0.2096 c 0.266,9.7514 2.263,17.4432 4.849,27.4224 1.656,6.3885 4.592,12.9957 6.819,18.2998 a 0.29446534,0.29163014 0 0 0 0.561,-0.1185 z m 30.67,-14.946 q -9.837,4.6843 -19.572,11.9659 a 0.12882859,0.12758819 0 0 0 0.11,0.2187 q 12.653,-3.4995 21.607,-7.7646 8.953,-4.2742 19.609,-11.8748 a 0.12882859,0.12758819 0 0 0 -0.101,-0.2279 q -11.825,2.9983 -21.653,7.6827 z m -73.224,40.1654 a 12.819436,1.2959647 69.515239 0 0 3.269,12.4548 12.819436,1.2959647 69.515239 0 0 5.701,11.5633 12.819436,1.2959647 69.515239 0 0 -3.268,-12.4549 12.819436,1.2959647 69.515239 0 0 -5.702,-11.5632 z m 56.808,12.975 q -6.883,6.3703 -12.229,14.3355 a 0.21164697,0.20960916 0 0 0 0.285,0.2916 q 8.466,-5.1764 15.082,-11.2915 6.607,-6.1152 12.395,-14.135 a 0.21164697,0.20960916 0 0 0 -0.276,-0.3007 q -8.383,4.7389 -15.257,11.1001 z m 23.198,5.778 q -6.193,1.8044 -11.106,5.2584 -0.405,0.2825 -0.617,0.638 a 0.25765718,0.25517637 0 0 0 0.23,0.3827 q 7.122,-0.3007 12.782,-1.9411 5.659,-1.6496 11.806,-5.2129 a 0.25765718,0.25517637 0 0 0 0,-0.4466 q -0.378,-0.1914 -0.865,-0.2096 -6.028,-0.2734 -12.221,1.5311 z m -137.303,21.6535 q -1.62,7.7829 -1.565,16.2401 0,0.1641 0.08,0.237 a 0.29446534,0.29163014 0 0 0 0.479,-0.1367 c 1.454,-5.1218 3.147,-9.9245 4.343,-15.6569 1.196,-5.7415 1.574,-10.8177 2.291,-16.0852 a 0.29446534,0.29163014 0 0 0 -0.386,-0.3099 q -0.111,0.037 -0.175,0.1823 -3.442,7.7373 -5.07,15.5293 z m 120.077,5.7961 c 6.911,2.7432 12.929,4.5021 20.153,5.0853 a 0.23005105,0.22783605 0 0 0 0.174,-0.4101 c -5.401,-4.3471 -11.778,-7.4456 -18.183,-9.9883 -6.395,-2.5426 -13.168,-4.6661 -20.106,-5.2129 a 0.23005105,0.22783605 0 0 0 -0.166,0.4101 c 5.632,4.5203 11.217,7.3728 18.128,10.1159 z m -136.558,24.5243 q 3.469,8.7034 9.009,16.5865 a 0.21164697,0.20960916 0 0 0 0.386,-0.155 q -1.767,-9.7422 -5.098,-18.1084 -3.331,-8.3752 -8.751,-16.6867 a 0.21164697,0.20960916 0 0 0 -0.386,0.1458 q 1.38,9.5054 4.84,18.2178 z m 89.692,22.0363 q 6.46,5.0306 11.99,7.5915 a 0.18404084,0.18226884 0 0 0 0.23,-0.2734 q -4.352,-5.8964 -9.91,-10.2253 -5.558,-4.3289 -12.368,-7.1176 a 0.18404084,0.18226884 0 0 0 -0.211,0.2917 q 3.819,4.7116 10.269,9.7331 z m -66.834,38.6592 q -12.718,4.1558 -24.459,10.8086 -0.93,0.5194 -0.81,0.884 0.129,0.3645 1.178,0.2369 13.435,-1.5766 26.152,-5.7323 12.717,-4.1558 24.459,-10.8086 0.92,-0.5194 0.801,-0.884 -0.12,-0.3645 -1.178,-0.2369 -13.426,1.5766 -26.143,5.7323 z"
     id="path34"
     style="stroke-width:0.915763" />
  <path
     fill="#e2cca0"
     d="m 10284.751,2089.8596 a 11.15909,10.937073 76.136211 0 1 12.633,9.2353 11.15909,10.937073 76.136211 0 1 -8.954,12.7748 11.15909,10.937073 76.136211 0 1 -12.634,-9.2353 11.15909,10.937073 76.136211 0 1 8.955,-12.7748 z m 3.184,3.8684 a 2.2641716,3.5180966 64.82229 0 0 -4.165,-0.5229 2.2641716,3.5180966 64.82229 0 0 -2.186,3.5502 2.2641716,3.5180966 64.82229 0 0 4.165,0.523 2.2641716,3.5180966 64.82229 0 0 2.186,-3.5503 z"
     id="path48"
     style="stroke-width:0.915763" />
  <path
     fill="#e2cca0"
     d="m 10324.444,2096.311 a 10.718192,10.911892 45.116124 0 1 3.593,14.8002 10.718192,10.911892 45.116124 0 1 -14.868,3.8581 10.718192,10.911892 45.116124 0 1 -3.593,-14.8003 10.718192,10.911892 45.116124 0 1 14.868,-3.858 z m -2.06,5.7076 a 3.238209,2.2708428 71.930389 0 0 -1.179,3.7645 3.238209,2.2708428 71.930389 0 0 3.153,2.4031 3.238209,2.2708428 71.930389 0 0 1.179,-3.7645 3.238209,2.2708428 71.930389 0 0 -3.153,-2.4031 z"
     id="path49"
     style="stroke-width:0.915763" />
  <path
     fill="#e2cca0"
     d="m 10298.571,2173.4259 a 13.048496,12.922861 0 0 1 -13.048,12.9229 13.048496,12.922861 0 0 1 -13.049,-12.9229 13.048496,12.922861 0 0 1 13.049,-12.9229 13.048496,12.922861 0 0 1 13.048,12.9229 z m -4.855,-0.128 a 2.5849149,4.0621173 39.640396 0 0 -4.588,1.5272 2.5849149,4.0621173 39.640396 0 0 -0.554,4.7619 2.5849149,4.0621173 39.640396 0 0 4.588,-1.5272 2.5849149,4.0621173 39.640396 0 0 0.554,-4.7619 z"
     id="path54"
     style="stroke-width:0.915763" />
  <path
     stroke="#776c56"
     d="m 11698.426,2159.7403 h -58.36 a 0.79,0.79 0 0 0 -0.79,0.79 v 0.99 a 0.72,0.72 0 0 0 0.72,0.72 h 36.11 a 0.64,0.65 88.6 0 1 0.65,0.61 q 0.57,9.95 0.41,19.3 c -0.43,25.27 -23.02,44.5 -47.12,45.6 -12.42,0.57 -24.34,-1.43 -34.61,-8.77 q -15.98,-11.42 -23.4,-29.35 -5.77,-13.97 -6.16,-29.45 -0.42,-17 3.71,-29.06 4.79,-13.98 12.25,-22.44 9.34,-10.6 20.12,-15.08 c 15.93,-6.62 36.95,-5.85 51.58,5.35 q 11.1,8.5 17.33,20.02 a 0.56,0.56 0 0 0 0.91,0.11 l 9.84,-10.94 a 0.64,0.65 41.6 0 0 -0.05,-0.92 q -10.53,-9.05 -20.69,-13.17 -1.76,-0.71 -7.95,-2.91 c -18.56,-6.58 -38.2,-6.14 -56.54,0.83 q -8.82,3.35 -15.05,7.96 c -6.18,4.58 -12.89,10.89 -17.38,18.1 q -18.02,28.99 -8.54,63.7 c 5.54,20.29 20.59,36.93 40.64,44.09 10.58,3.77 20.55,6.18 31.42,5.38 q 30.47,-2.27 50.57,-24.75 a 2.55,2.6 40.4 0 1 3.54,-0.32 q 0.51,0.41 1.03,2.15 2.69,8.87 4.44,19.28 a 1.01,1 85.3 0 0 0.99,0.84 h 0.42 a 0.88,0.88 0 0 0 0.88,-0.89 q -0.29,-31.76 0,-40.62 c 0.29,-8.93 -0.16,-23.07 9.25,-26.01 a 0.58,0.58 0 0 0 -0.17,-1.14"
     id="path12"
     style="fill:none;stroke-width:2;stroke-linecap:butt" />
  <path
     stroke="#776c56"
     d="m 11330.916,2089.1003 q -0.49,-0.19 -0.88,-0.18 -21.079,0.2 -31.139,0.01 a 0.52,0.52 0 0 0 -0.17,1.01 c 6.51,2.09 9.04,6.65 9.47,13.84 q 0.309,5.35 0.34,15.87 0.09,30.56 -0.15,69.74 c -0.17,28.08 -7.48,61.21 -38.71,69.94 a 1.49,1.51 85.8 0 0 -1.08,1.24 l -0.01,0.07 a 0.74,0.74 0 0 0 0.86,0.83 c 15.71,-2.81 30.1,-11.19 39.07,-24.41 10.99,-16.21 12.53,-37.18 12.54,-56.17 q 0.01,-66.47 0.01,-69.5 c -0.02,-8.81 0.36,-18.58 9.819,-21.43 a 0.45,0.46 46.9 0 0 0.03,-0.86"
     id="path13"
     style="fill:none;stroke-width:2;stroke-linecap:butt" />
  <path
     stroke="#776c56"
     d="m 11363.116,2158.7703 q 0.03,44.49 0.04,45.12 0.11,7.09 -0.78,13 -1.22,8.02 -8.7,10.38 a 0.73,0.73 0 0 0 -0.3,1.2 q 0.15,0.15 0.42,0.15 19.57,-0.21 31.61,-0.12 a 0.81,0.8 86 0 0 0.8,-0.93 q -0.07,-0.47 -0.72,-0.61 c -9.05,-1.94 -9.53,-11.69 -9.61,-19.32 q -0.04,-4.49 -0.07,-48.88 -0.02,-44.39 0.02,-48.88 c 0.06,-7.63 0.53,-17.38 9.58,-19.33 q 0.65,-0.14 0.72,-0.61 a 0.8,0.81 3.9 0 0 -0.8,-0.93 q -12.04,0.1 -31.61,-0.08 -0.27,0 -0.42,0.15 a 0.73,0.73 0 0 0 0.3,1.2 q 7.48,2.35 8.71,10.37 0.9,5.91 0.79,13 -0.01,0.63 0.02,45.12"
     id="path14"
     style="fill:none;stroke-width:2;stroke-linecap:butt" />
  <path
     stroke="#776c56"
     d="m 11519.506,2208.2203 q -12.52,-15.58 -20.14,-25.93 -3.78,-5.13 -7.66,-10.27 -24.46,-32.36 -48.96,-64.24 c -4.42,-5.74 -8.79,-12.3 -13.07,-17.44 a 2.65,2.64 85.7 0 0 -0.74,-0.64 q -0.94,-0.56 -3.39,-0.58 -14.83,-0.14 -17.7,-0.16 a 0.47,0.47 0 0 0 -0.18,0.91 c 4.09,1.62 7.88,3.56 9.07,8.24 q 1.35,5.28 1.39,15.03 0.31,67.89 0.06,87.25 -0.11,8.72 -1.25,15.34 -1.47,8.48 -9.34,11.31 a 0.76,0.76 0 0 0 -0.28,1.25 q 0.05,0.05 0.22,0.25 a 0.1,0.1 0 0 0 0.08,0.04 q 11.49,-0.21 25.45,-0.13 0.43,0 0.54,-0.34 a 0.97,0.86 17.1 0 0 -0.68,-1.13 c -9.64,-2.83 -11.87,-14.61 -11.98,-23.36 q -0.36,-31.15 -0.1,-70.48 0.13,-18.75 -0.22,-32.03 a 0.43,0.44 24.7 0 1 0.77,-0.29 c 16.96,21.29 41.27,54.44 53.23,69.53 q 6.11,7.7 8.38,10.98 c 6.75,9.75 12.37,16.1 20.97,27.51 q 8.76,11.62 16.03,20.1 c 17.59,20.52 39.9,32.65 67.54,30.27 q 2.6,-0.22 9.43,-2.49 a 0.73,0.73 0 0 0 0.49,-0.69 v -0.35 a 0.68,0.68 0 0 0 -0.83,-0.66 q -24.08,5.43 -43.31,-8.99 -9.46,-7.1 -14.73,-13.22 -7.55,-8.77 -16.08,-19.93 a 2.31,2.24 26.8 0 1 -0.48,-1.39 q -0.14,-58.4 0.16,-98.85 0.07,-9.65 3.48,-16.97 a 5.04,4.94 81.9 0 1 1.14,-1.55 q 2.59,-2.37 6.34,-4.01 a 0.6,0.6 0 0 0 -0.24,-1.14 h -24 a 0.6,0.61 55 0 0 -0.21,1.17 c 3.95,1.41 6.91,3.75 8.5,7.88 2.5,6.55 2.4,13.06 2.41,20.42 q 0.13,88.74 0.13,89.7 a 0.13,0.13 0 0 1 -0.24,0.08"
     id="path15"
     style="fill:none;stroke-width:2;stroke-linecap:butt" />
  <path
     fill="#e2cca0"
     d="m 11698.426,2159.7403 a 0.58,0.58 0 0 1 0.17,1.14 c -9.41,2.94 -8.96,17.08 -9.25,26.01 q -0.29,8.86 0,40.62 a 0.88,0.88 0 0 1 -0.88,0.89 h -0.42 a 1.01,1 85.3 0 1 -0.99,-0.84 q -1.75,-10.41 -4.44,-19.28 -0.52,-1.74 -1.03,-2.15 a 2.55,2.6 40.4 0 0 -3.54,0.32 q -20.1,22.48 -50.57,24.75 c -10.87,0.8 -20.84,-1.61 -31.42,-5.38 -20.05,-7.16 -35.1,-23.8 -40.64,-44.09 q -9.48,-34.71 8.54,-63.7 c 4.49,-7.21 11.2,-13.52 17.38,-18.1 q 6.23,-4.61 15.05,-7.96 c 18.34,-6.97 37.98,-7.41 56.54,-0.83 q 6.19,2.2 7.95,2.91 10.16,4.12 20.69,13.17 a 0.64,0.65 41.6 0 1 0.05,0.92 l -9.84,10.94 a 0.56,0.56 0 0 1 -0.91,-0.11 q -6.23,-11.52 -17.33,-20.02 c -14.63,-11.2 -35.65,-11.97 -51.58,-5.35 q -10.78,4.48 -20.12,15.08 -7.46,8.46 -12.25,22.44 -4.13,12.06 -3.71,29.06 0.39,15.48 6.16,29.45 7.42,17.93 23.4,29.35 c 10.27,7.34 22.19,9.34 34.61,8.77 24.1,-1.1 46.69,-20.33 47.12,-45.6 q 0.16,-9.35 -0.41,-19.3 a 0.64,0.65 88.6 0 0 -0.65,-0.61 h -36.11 a 0.72,0.72 0 0 1 -0.72,-0.72 v -0.99 a 0.79,0.79 0 0 1 0.79,-0.79 z"
     id="path56" />
  <path
     fill="#e2cca0"
     d="m 11330.916,2089.1003 a 0.45,0.46 46.9 0 1 -0.03,0.86 c -9.46,2.85 -9.839,12.62 -9.82,21.43 q 0,3.03 -0.01,69.5 c -0.01,18.99 -1.55,39.96 -12.54,56.17 -8.97,13.22 -23.36,21.6 -39.07,24.41 a 0.74,0.74 0 0 1 -0.86,-0.83 l 0.01,-0.07 a 1.49,1.51 85.8 0 1 1.08,-1.24 c 31.23,-8.73 38.54,-41.86 38.71,-69.94 q 0.24,-39.18 0.15,-69.74 -0.03,-10.52 -0.34,-15.87 c -0.43,-7.19 -2.96,-11.75 -9.47,-13.84 a 0.52,0.52 0 0 1 0.17,-1.01 q 10.06,0.19 31.14,-0.01 0.39,-0.01 0.88,0.18 z"
     id="path57" />
  <path
     fill="#e2cca0"
     d="m 11375.806,2158.7603 q 0.03,44.39 0.07,48.88 c 0.08,7.63 0.56,17.38 9.61,19.32 q 0.65,0.14 0.72,0.61 a 0.81,0.8 86 0 1 -0.8,0.93 q -12.04,-0.09 -31.61,0.12 -0.27,0 -0.42,-0.15 a 0.73,0.73 0 0 1 0.3,-1.2 q 7.48,-2.36 8.7,-10.38 0.89,-5.91 0.78,-13 -0.01,-0.63 -0.04,-45.12 -0.03,-44.49 -0.02,-45.12 0.11,-7.09 -0.79,-13 -1.23,-8.02 -8.71,-10.37 a 0.73,0.73 0 0 1 -0.3,-1.2 q 0.15,-0.15 0.42,-0.15 19.57,0.18 31.61,0.08 a 0.8,0.81 3.9 0 1 0.8,0.93 q -0.07,0.47 -0.72,0.61 c -9.05,1.95 -9.52,11.7 -9.58,19.33 q -0.04,4.49 -0.02,48.88 z"
     id="path58" />
  <path
     fill="#e2cca0"
     d="m 11519.506,2208.2203 a 0.13,0.13 0 0 0 0.24,-0.08 q 0,-0.96 -0.13,-89.7 c -0.01,-7.36 0.09,-13.87 -2.41,-20.42 -1.59,-4.13 -4.55,-6.47 -8.5,-7.88 a 0.6,0.61 55 0 1 0.21,-1.17 h 24 a 0.6,0.6 0 0 1 0.24,1.14 q -3.75,1.64 -6.34,4.01 a 5.04,4.94 81.9 0 0 -1.14,1.55 q -3.41,7.32 -3.48,16.97 -0.3,40.45 -0.16,98.85 a 2.31,2.24 26.8 0 0 0.48,1.39 q 8.53,11.16 16.08,19.93 5.27,6.12 14.73,13.22 19.23,14.42 43.31,8.99 a 0.68,0.68 0 0 1 0.83,0.66 v 0.35 a 0.73,0.73 0 0 1 -0.49,0.69 q -6.83,2.27 -9.43,2.49 c -27.64,2.38 -49.95,-9.75 -67.54,-30.27 q -7.27,-8.48 -16.03,-20.1 c -8.6,-11.41 -14.22,-17.76 -20.97,-27.51 q -2.27,-3.28 -8.38,-10.98 c -11.96,-15.09 -36.27,-48.24 -53.23,-69.53 a 0.43,0.44 24.7 0 0 -0.77,0.29 q 0.35,13.28 0.22,32.03 -0.26,39.33 0.1,70.48 c 0.11,8.75 2.34,20.53 11.98,23.36 a 0.97,0.86 17.1 0 1 0.68,1.13 q -0.11,0.34 -0.54,0.34 -13.96,-0.08 -25.45,0.13 a 0.1,0.1 0 0 1 -0.08,-0.04 q -0.17,-0.2 -0.22,-0.25 a 0.76,0.76 0 0 1 0.28,-1.25 q 7.87,-2.83 9.34,-11.31 1.14,-6.62 1.25,-15.34 0.25,-19.36 -0.06,-87.25 -0.04,-9.75 -1.39,-15.03 c -1.19,-4.68 -4.98,-6.62 -9.07,-8.24 a 0.47,0.47 0 0 1 0.18,-0.91 q 2.87,0.02 17.7,0.16 2.45,0.02 3.39,0.58 a 2.65,2.64 85.7 0 1 0.74,0.64 c 4.28,5.14 8.65,11.7 13.07,17.44 q 24.5,31.88 48.96,64.24 3.88,5.14 7.66,10.27 7.62,10.35 20.14,25.93 z"
     id="path59" />
</svg>
