<?xml version="1.0" encoding="UTF-8" standalone="no"?>
<svg
   direction="ltr"
   width="1024"
   height="1024"
   viewBox="9504 11043 1024 1024"
   stroke-linecap="round"
   stroke-linejoin="round"
   data-color-mode="light"
   class="tl-container tl-theme__force-sRGB tl-theme__light"
   style="background-color: transparent;"
   version="1.1"
   id="svg62"
   sodipodi:docname="SVG 2.svg"
   inkscape:version="1.4.4 (dcaf3e7, 2026-05-05)"
   xmlns:inkscape="http://www.inkscape.org/namespaces/inkscape"
   xmlns:sodipodi="http://sodipodi.sourceforge.net/DTD/sodipodi-0.dtd"
   xmlns="http://www.w3.org/2000/svg"
   xmlns:svg="http://www.w3.org/2000/svg">
  <sodipodi:namedview
     id="namedview62"
     pagecolor="#ffffff"
     bordercolor="#000000"
     borderopacity="0.25"
     inkscape:showpageshadow="2"
     inkscape:pageopacity="0.0"
     inkscape:pagecheckerboard="0"
     inkscape:deskcolor="#d1d1d1"
     inkscape:zoom="0.64582929"
     inkscape:cx="409.55095"
     inkscape:cy="507.87415"
     inkscape:window-width="1470"
     inkscape:window-height="923"
     inkscape:window-x="0"
     inkscape:window-y="33"
     inkscape:window-maximized="0"
     inkscape:current-layer="svg62" />
  <defs
     id="defs1" />
  <g
     stroke-width="2"
     fill="none"
     stroke-linecap="butt"
     id="g32"
     transform="translate(9504,11043)">
    <path
       stroke="#766a53"
       d="m 558.45,365.46 q -2.86,-9.5 -9.43,-20.19 a 1,1 0 0 0 -1.85,0.58 c 0.68,11.19 4.44,22.2 10.85,31.46 a 2.19,2.17 44.8 0 1 0.02,2.46 q -6.88,10.2 -15.78,20.33 a 0.22,0.22 0 0 1 -0.39,-0.15 q 0.1,-9.33 0,-101.59 c 0,-6.16 0.33,-13.33 1.62,-19.31 1.84,-8.57 7.25,-11.25 15.27,-11.77 a 0.68,0.68 0 0 0 0.64,-0.68 v -2.94 a 0.66,0.65 0 0 0 -0.66,-0.65 q -18.55,-0.06 -47.5,-0.05 -17.54,0 -25,1.63 c -36.84,8.09 -65.77,41.66 -54,80.76 6.64,22.09 27.49,33.75 50.28,32.9 a 0.16,0.16 0 0 0 0.15,-0.16 v -2.64 a 0.4,0.39 -87.7 0 0 -0.36,-0.4 c -10.89,-1.08 -21.84,-9.59 -26.96,-19.15 -7.45,-13.95 -7.65,-30.57 -3.83,-45.66 5.8,-22.88 25.69,-41.75 50.22,-42.1 9.92,-0.14 14.09,5.19 15.14,14.93 q 0.84,7.83 0.85,11.18 0.03,22.63 -0.02,131.17 a 2.47,2.47 0 0 1 -0.58,1.59 l -17.03,20.13 a 0.22,0.22 0 0 1 -0.38,-0.2 c 3.57,-13.4 3.48,-26.39 2.51,-40.12 a 5.4,5.39 -35 0 1 0.45,-2.55 c 5.68,-12.59 8.62,-23.77 6.98,-37.3 a 0.92,0.91 56.9 0 0 -1.69,-0.36 q -5.36,8.97 -6.87,18.44 a 0.29,0.29 0 0 1 -0.56,0.06 q -0.35,-0.98 -0.42,-2.49 -0.65,-13.28 -0.57,-26.09 a 0.74,0.74 0 0 0 -0.86,-0.74 l -0.11,0.02 a 1.07,1.06 -3.7 0 0 -0.9,1.01 q -0.71,22.22 1.35,44.69 c 0.62,6.8 0.95,14.68 1.09,19.01 a 0.2,0.2 0 0 1 -0.39,0.06 c -2.88,-10.84 -7.39,-21.22 -14.2,-29.78 q -0.73,-0.92 -1.59,-1.18 a 0.69,0.69 0 0 0 -0.89,0.7 c 0.9,13.73 6.35,26.38 14.06,37.74 1.04,1.54 1.85,3.28 1.75,4.97 q -0.61,9.49 -4.82,19.6 c -1.82,4.36 -3.8,7.12 -6.51,10.89 q -11.78,16.36 -20.39,33.86 c -3.23,6.55 -6.28,12.89 -7.73,18.74 a 0.91,0.9 17.1 0 0 0.57,1.07 l 1.45,0.54 a 0.93,0.93 0 0 0 1.19,-0.55 q 8.21,-22.03 21.69,-41.94 c 0.86,-1.26 2.02,-3.05 3.46,-3.16 q 15.16,-1.16 29.37,-5.79 a 0.45,0.45 0 0 1 0.59,0.46 c -1.44,20.05 -8.89,40.52 -25.75,52.16 -16.57,11.43 -40.66,11.32 -58.87,3.77 q -22.75,-9.42 -32.27,-31.95 c -7.81,-18.49 -5.59,-40.64 7.37,-55.95 9.83,-11.59 25.28,-17.8 40.38,-14.39 q 16.87,3.81 23.64,19.61 3.54,8.28 2.02,16.74 a 0.35,0.35 0 0 0 0.54,0.35 c 6.62,-4.47 8.27,-14.14 7.49,-21.62 -1.25,-12.1 -9.98,-22.26 -21,-27.03 -26.82,-11.62 -54.62,4.65 -65.56,29.62 -8.18,18.69 -7.26,41.95 2.47,60.18 q 14.1,26.39 45.06,33.54 c 22.34,5.15 49.59,1.57 68.26,-12.3 q 14.66,-10.89 21.96,-26.8 8.36,-18.22 8.42,-38.18 0.06,-21.56 0.02,-32.14 a 0.86,0.86 0 0 1 0.67,-0.84 l 6.46,-1.55 a 1.21,1.21 0 0 1 1.2,0.39 c 7.11,8.41 14.93,15.53 25.33,19.06 q 0.81,0.28 1.49,0.32 a 0.77,0.77 0 0 0 0.75,-1.1 c -3.69,-7.96 -13.43,-14.89 -21.35,-18.58 a 0.34,0.34 0 0 1 0.15,-0.65 q 8.53,0.06 16.39,0.57 c 7.57,0.48 16.11,1.03 21.74,-1.54 a 1.17,0.99 -24.8 0 0 0.65,-1.4 q -0.22,-0.47 -0.63,-0.4 -8.72,1.52 -17.51,0.93 c -11.42,-0.77 -19.39,-1.85 -28.49,-0.57 -10,1.42 -19.05,6.66 -25.8,14.1 -3.27,3.6 -5.15,5.49 -5.11,10.02 q 0.08,8.67 -0.1,14.19 a 0.86,0.85 85.7 0 1 -0.68,0.8 q -14.03,2.75 -25.73,9.47 a 0.14,0.14 0 0 1 -0.19,-0.2 c 15.84,-22.15 31.39,-38.32 53.54,-62.42 q 13.98,-15.21 36.67,-20.81 a 1.28,1.24 -32.4 0 1 1.06,0.22 q 16.53,12.66 37.35,15.8 2.51,0.38 4.3,0.17 a 0.83,0.83 0 0 0 0.45,-1.45 Q 608.75,383.2 588.9,380.24 a 0.28,0.28 0 0 1 -0.04,-0.55 l 13.61,-4.25 a 1.85,1.77 -50.9 0 1 0.65,-0.08 q 16.67,1.06 30.36,-9.23 a 0.73,0.73 0 0 0 -0.35,-1.31 c -11.59,-1.45 -21.05,1.08 -30.48,7.4 a 12.27,12.18 -70.2 0 1 -3.13,1.49 l -7.38,2.3 a 0.13,0.13 0 0 1 -0.11,-0.23 c 8.68,-6.24 18.35,-15.29 22.33,-25.04 a 0.8,0.8 0 0 0 -0.9,-1.08 q -0.4,0.08 -0.43,0.09 -13.35,6.99 -23.66,18.97 c -2.34,2.73 -4.48,6.63 -6.14,9.25 a 2.58,2.58 0 0 1 -1.54,1.11 c -9.15,2.3 -18.67,5.91 -26.77,11.21 a 0.07,0.07 0 0 1 -0.09,-0.1 q 1.67,-2.6 2.91,-4.21 16.56,-21.38 27.99,-43.44 c 1.77,-3.41 3.29,-7.51 5.04,-9.76 a 1.64,1.61 10.2 0 1 0.79,-0.54 q 10.32,-3.33 17.49,-5.95 14.28,-5.21 24.92,-15.64 a 0.78,0.78 0 0 0 -0.54,-1.34 q -4.05,-0.04 -8.01,1.1 -15.88,4.59 -28.97,14.05 -0.75,0.54 -2.55,2.35 a 0.22,0.22 0 0 1 -0.37,-0.23 l 5.2,-14.1 a 3.24,3.24 0 0 1 1.42,-1.67 c 10.83,-6.16 19.39,-14.83 24.91,-26.22 q 1.1,-2.27 1.59,-4.7 a 0.24,0.19 39 0 0 -0.03,-0.14 l -0.13,-0.22 a 0.57,0.56 60.5 0 0 -0.77,-0.22 q -9.77,5.34 -17,14.16 -2.39,2.92 -6.85,8.99 a 0.07,0.07 0 0 1 -0.12,-0.06 l 5.1,-19.61 a 2.64,2.57 68.1 0 1 0.27,-0.66 c 1.78,-3.3 4.17,-6.61 5.43,-10.07 q 4.15,-11.44 2.99,-23.71 a 0.49,0.49 0 0 0 -0.8,-0.33 q -1.73,1.44 -3.09,3.65 -6.41,10.39 -6.74,22.88 -0.22,8.17 -0.96,11.4 -0.3,1.3 -4.06,15.26 a 0.18,0.18 0 0 1 -0.35,-0.05 q 0.59,-13.54 -2.28,-26.67 -1.03,-4.72 -3.19,-9.44 a 0.87,0.87 0 0 0 -1.6,0.02 q -0.31,0.75 -0.55,2.12 -3.98,22.31 4.14,43.34 a 1.75,1.73 43.2 0 1 0.04,1.09 q -2.87,9.54 -8.06,19.61 a 0.2,0.19 -33.6 0 1 -0.37,-0.07 C 586.66,314.48 582.85,299.31 574.11,285 a 0.98,0.97 39.6 0 0 -1.74,0.16 q -0.11,0.28 -0.08,1.34 0.59,22.23 10.17,42.41 c 0.92,1.96 2.05,4.85 2.72,6.72 a 1.74,1.72 -43.5 0 1 -0.04,1.27 q -2.8,6.49 -6.71,13.04 -7.95,13.34 -16.89,25.58 a 0.29,0.29 0 0 1 -0.53,-0.2 q 1.04,-9.41 -0.71,-19.39 -2.71,-15.42 -3.95,-30.23 -0.07,-0.91 -1.41,-0.84 a 0.53,0.53 0 0 0 -0.5,0.57 c 0.74,11.28 2.33,21.27 4.16,32.92 q 0.71,4.55 0.57,7.03 a 0.37,0.37 0 0 1 -0.72,0.08"
       id="path1" />
    <path
       stroke="#766a53"
       d="m 580.85,338.43 a 9.1,9.1 0 0 0 -9.1,-9.1 9.1,9.1 0 0 0 -9.1,9.1 9.1,9.1 0 0 0 9.1,9.1 9.1,9.1 0 0 0 9.1,-9.1"
       id="path2" />
    <path
       stroke="#766a53"
       d="m 606.3477,339.1494 a 8.88,8.73 -26.2 0 0 -11.822,-3.9125 8.88,8.73 -26.2 0 0 -4.1134,11.7537 8.88,8.73 -26.2 0 0 11.822,3.9125 8.88,8.73 -26.2 0 0 4.1134,-11.7537"
       id="path3" />
    <path
       stroke="#766a53"
       d="m 581.82,399.66 a 10.8,10.8 0 0 0 -10.8,-10.8 10.8,10.8 0 0 0 -10.8,10.8 10.8,10.8 0 0 0 10.8,10.8 10.8,10.8 0 0 0 10.8,-10.8"
       id="path4" />
    <path
       stroke="#766a53"
       d="m 488.84,580.31 h -12.21 a 0.27,0.27 0 0 0 -0.12,0.51 q 4.51,2.36 4.98,7.65 0.35,3.84 0.36,15.37 0.01,20.51 0,37.16 a 0.35,0.34 -63.6 0 1 -0.62,0.21 Q 454.08,605.68 435.87,581.39 C 427.8,570.63 417.8,563.82 403.76,563.72 q -4.65,-0.03 -9.06,2.03 a 0.42,0.42 0 0 0 0.28,0.78 q 11.45,-2.79 21.23,3.19 4.81,2.94 11.71,11.83 a 5.34,5.32 -66.2 0 1 1.11,2.88 q 0.38,4.98 0.38,7.07 -0.05,40.76 -0.1,45.5 c -0.06,5.9 -0.32,10.36 -5.49,13.88 a 0.16,0.16 0 0 0 0.09,0.29 h 12.27 a 0.22,0.22 0 0 0 0.12,-0.41 q -5.22,-3.43 -5.26,-10.28 -0.06,-8.33 0.04,-53.91 a 0.2,0.2 0 0 1 0.36,-0.12 q 11.1,14.67 41.91,55.44 4.73,6.27 8.92,11.31 c 9.51,11.46 23.61,17.77 38.39,14.28 a 0.25124689,0.25124689 0 0 0 -0.05,-0.5 c -2.62,-0.06 -6.98,0.13 -10.12,-0.49 -11.24,-2.23 -20.82,-12.21 -26.59,-21.53 a 2.52,2.51 -61 0 1 -0.38,-1.33 q -0.01,-43.89 0.06,-51.62 c 0.03,-3.54 0.59,-8.24 3.56,-10.28 0.7,-0.48 1.21,-0.48 1.85,-1.01 a 0.23,0.23 0 0 0 -0.15,-0.41"
       id="path5" />
    <path
       stroke="#766a53"
       d="m 732.82,664.32 q -13.89,1.72 -24.26,-7.95 c -11.94,-11.13 -17.88,-25.89 -30.03,-35.75 a 0.29,0.29 0 0 1 0.11,-0.51 q 6.61,-1.84 8.66,-2.79 11.62,-5.43 12.09,-17.4 c 0.53,-13.48 -11.67,-20.27 -23.4,-20.28 q -12.51,-0.01 -26.76,0.23 a 0.2,0.2 0 0 0 -0.09,0.38 q 4.23,1.96 4.31,6.53 0.42,25.87 0.02,54.16 c -0.05,4.04 -0.5,7.05 -3.85,9.2 a 0.26,0.25 -61 0 0 0.13,0.47 h 14.43 a 0.3,0.3 0 0 0 0.14,-0.56 c -3.35,-1.89 -3.9,-4.66 -3.9,-8.56 q -0.02,-52.6 -0.02,-52.66 c 0.09,-4.48 0.57,-7.49 5.35,-7.69 4.49,-0.18 11.06,-0.57 15.27,0.92 q 10.89,3.84 11.52,16.46 c 0.6,12.18 -7.24,19.48 -18.9,20.47 q -3.7,0.31 -8.12,0.25 a 0.17,0.17 0 0 0 -0.17,0.17 v 0.25 a 0.35,0.35 0 0 0 0.37,0.35 q 5.05,-0.23 8.56,2.68 4.67,3.87 8.3,9.47 c 6.3,9.73 11.89,19.71 19.35,25.85 q 10.7,8.79 25.51,8.12 2.92,-0.13 5.52,-1.3 a 0.27,0.27 0 0 0 -0.14,-0.51"
       id="path6" />
    <path
       stroke="#766a53"
       d="m 338.7,580.27 a 0.26,0.26 0 0 0 -0.08,-0.51 H 322.6 a 0.27,0.26 55.4 0 0 -0.09,0.51 c 4.1,1.61 4.56,5.48 4.62,9.76 q 0.14,11.01 -0.01,42.73 -0.02,3.92 -1.6,12.41 -3.06,16.39 -18.38,21.27 a 0.25,0.25 0 0 0 0.04,0.48 q 1.39,0.19 2.9,-0.17 c 18.04,-4.28 23.8,-20.68 23.78,-37.51 q -0.04,-27.45 0.1,-41.98 0.06,-5.49 4.74,-6.99"
       id="path7" />
    <path
       stroke="#766a53"
       d="m 402.35,580.9 c 3.39,0.69 5.11,5.64 5.24,8.12 q 0.32,6.67 0.2,28.77 c -0.07,13.1 -1.47,26.85 -14.68,31.58 q -9.77,3.49 -19.13,-0.68 C 364.15,644.3 360.84,632.23 360.67,622 q -0.18,-10.56 -0.05,-26.74 c 0.03,-3.82 -0.26,-8.23 0.83,-11.55 q 0.75,-2.25 3.67,-3.47 a 0.25,0.25 0 0 0 -0.09,-0.48 h -15.51 a 0.29,0.29 0 0 0 -0.1,0.57 q 4.13,1.51 4.24,6.25 0.21,8.33 0.08,28.71 c -0.11,17.36 3.07,32.91 23.07,36.7 15.43,2.91 28.27,-4.22 31.58,-19.9 q 1.08,-5.1 1.06,-12.84 -0.08,-24.9 0.02,-28 c 0.14,-4.54 0.74,-8.47 4.88,-10.47 a 0.3,0.29 32.1 0 0 -0.13,-0.56 h -11.8 a 0.34179672,0.34179672 0 0 0 -0.07,0.68"
       id="path8" />
    <path
       stroke="#766a53"
       d="m 600.76,613.51 v -31.35 a 0.72,0.72 0 0 1 0.71,-0.72 q 17.53,-0.11 20.29,0.13 c 6.17,0.53 11.99,3.41 14.24,9.68 a 0.33,0.33 0 0 0 0.38,0.21 l 0.27,-0.07 a 0.1,0.09 78.1 0 0 0.07,-0.12 l -2.48,-10.37 a 1.1,1.09 -6.6 0 0 -1.07,-0.84 h -43.03 a 0.31,0.3 55.8 0 0 -0.11,0.59 q 3.67,1.49 3.89,5.68 0.43,8.14 0.19,29.77 a 0.89,0.87 77.1 0 1 -0.47,0.77 c -7.61,4.1 -12.4,10.81 -12.49,19.62 a 0.43,0.43 0 0 0 0.41,0.44 h 0.02 a 0.49,0.49 0 0 0 0.51,-0.44 c 0.77,-8.3 4.88,-12.48 11.51,-17.45 a 0.35,0.35 0 0 1 0.56,0.28 q -0.01,12.44 -0.14,24.18 -0.05,4.85 -4,7 a 0.19,0.19 0 0 0 0.09,0.36 h 46.44 a 0.99,0.99 0 0 0 0.96,-0.75 l 3.17,-12.16 a 0.23,0.23 0 0 0 -0.39,-0.22 c -0.87,0.9 -1.41,2.48 -2.26,3.57 -4.59,5.9 -12.23,8.25 -20.02,8.29 q -8.46,0.04 -14.97,0.09 -2.29,0.02 -2.27,-2.65 0.06,-7.53 -0.03,-30.26 a 1.35,1.35 0 0 1 1.03,-1.31 q 8.29,-1.99 14.71,-0.97 c 4.26,0.68 6.74,2.15 8,6.32 a 0.39,0.39 0 0 0 0.76,-0.11 v -15.53 a 0.33,0.33 0 0 0 -0.65,-0.1 q -2.14,6.75 -9.42,7.15 -8.57,0.48 -13.7,1.84 a 0.57,0.56 82.6 0 1 -0.71,-0.55"
       id="path9" />
    <path
       stroke="#766a53"
       d="m 505.77,615.85 q 0,24.9 0.02,27.15 0.05,5.41 -4.46,7.91 a 0.21,0.21 0 0 0 0.1,0.39 q 4.52,0.02 7.77,0.02 3.26,0 7.78,-0.02 a 0.21,0.21 0 0 0 0.1,-0.39 q -4.51,-2.5 -4.47,-7.92 0.02,-2.24 0.02,-27.14 0,-24.89 -0.02,-27.14 -0.05,-5.42 4.46,-7.92 a 0.21,0.21 0 0 0 -0.1,-0.39 q -4.52,-0.02 -7.78,-0.02 -3.25,0 -7.77,0.03 a 0.21,0.21 0 0 0 -0.1,0.38 q 4.51,2.5 4.47,7.92 -0.03,2.25 -0.02,27.14"
       id="path10" />
    <path
       stroke="#766a53"
       d="m 530.46,580.77 c 4.01,2.33 4.44,5.78 4.46,10.49 q 0.08,25.57 -0.14,51.49 -0.05,5.72 -4.08,8.11 a 0.23,0.23 0 0 0 0.12,0.42 h 14.31 a 0.43,0.43 0 0 0 0.2,-0.81 c -2.41,-1.22 -3.38,-2.84 -3.7,-5.66 q -0.76,-6.54 0.53,-12.77 a 4.47,4.44 -24.6 0 1 0.47,-1.25 q 4.17,-7.49 12.43,-9.1 9.61,-1.88 14.03,-3.34 c 11.16,-3.69 16.47,-15.07 11.83,-25.97 -4.37,-10.28 -16.32,-12.37 -26.67,-12.18 q -13.26,0.25 -23.69,0.19 a 0.2,0.2 0 0 0 -0.1,0.38"
       id="path11" />
    <path
       stroke="#766a53"
       d="m 621.4,712.18 h -28.12 a 0.75,0.75 0 0 0 -0.75,0.75 v 0.27 a 0.48,0.47 90 0 0 0.47,0.48 h 17.62 a 0.36,0.35 0.8 0 1 0.36,0.36 c -0.07,9.79 0.07,18.55 -7.11,25.6 q -5.62,5.53 -12.5,6.96 -17.8,3.72 -28.75,-11.04 c -13.88,-18.73 -7.22,-59.25 21.76,-58.97 10.92,0.11 18.92,5.72 23.4,15.5 a 0.13,0.13 0 0 0 0.22,0.04 l 5.82,-5.81 a 0.24,0.24 0 0 0 0.01,-0.33 q -2.26,-2.49 -5.25,-4.29 c -19.73,-11.9 -47.04,-7.86 -57.13,14.71 -4.76,10.66 -4.46,25.64 1.39,35.83 q 7.71,13.42 24.48,15.97 20.55,3.13 34.48,-12.11 a 0.79,0.78 -36.1 0 1 1.29,0.2 q 2.17,4.74 2.62,10.89 a 0.28,0.27 -2.2 0 0 0.28,0.25 h 0.3 a 0.53,0.53 0 0 0 0.53,-0.51 q 0.55,-14.7 0.63,-26.95 0.04,-5.27 4.07,-7.26 a 0.28,0.28 0 0 0 -0.12,-0.54"
       id="path12" />
    <path
       stroke="#766a53"
       d="m 432.33,677.11 a 0.26,0.26 0 0 0 -0.08,-0.51 h -16.06 a 0.27,0.26 55.4 0 0 -0.09,0.51 c 4.11,1.61 4.57,5.49 4.63,9.78 q 0.14,11.03 -0.01,42.81 -0.02,3.93 -1.6,12.44 -3.07,16.42 -18.42,21.31 a 0.25,0.25 0 0 0 0.04,0.48 q 1.39,0.19 2.91,-0.17 c 18.07,-4.29 23.84,-20.72 23.82,-37.58 q -0.03,-27.51 0.11,-42.06 0.06,-5.51 4.75,-7.01"
       id="path13" />
    <path
       stroke="#766a53"
       d="m 453,747.74 q 3.6,0.01 7.5,0.04 a 0.24,0.23 -32.2 0 0 0.1,-0.45 c -3.62,-1.65 -4.18,-5.69 -4.18,-9.58 q -0.04,-24.05 0.06,-48.5 c 0.02,-4.48 -0.39,-10.84 4.62,-11.99 a 0.30103986,0.30103986 0 0 0 -0.05,-0.6 q -0.53,-0.03 -7.95,-0.04 -7.42,-0.01 -7.95,0.02 a 0.30149627,0.30149627 0 0 0 -0.06,0.6 c 5.01,1.16 4.58,7.52 4.59,12 q 0.03,24.45 -0.07,48.5 c -0.01,3.89 -0.58,7.93 -4.21,9.57 a 0.24,0.23 32.3 0 0 0.11,0.45 q 3.89,-0.02 7.49,-0.02"
       id="path14" />
    <path
       stroke="#766a53"
       d="m 485.87,747.39 q -4.92,-3.42 -4.95,-11.14 -0.01,-1.75 0,-52.8 a 0.2,0.2 0 0 1 0.36,-0.12 q 36.05,48.44 38.15,51.28 9.69,13.16 13.6,17.4 14.67,15.91 36.65,11.86 a 0.14,0.13 85.2 0 0 0.11,-0.14 v -0.25 a 0.43,0.43 0 0 0 -0.49,-0.43 q -14.82,2.06 -25.51,-8.07 -6.79,-6.43 -11.01,-13.48 a 1.78,1.74 -60.7 0 1 -0.24,-0.89 q -0.08,-29.78 0.41,-53.85 c 0.08,-3.81 1.31,-8.48 5.41,-9.59 a 0.29,0.29 0 0 0 -0.08,-0.57 h -12.39 a 0.26,0.25 -33.5 0 0 -0.1,0.49 c 5.13,2.18 5.26,7.96 5.18,12.91 q -0.06,4.14 -0.05,48.1 a 0.26,0.26 0 0 1 -0.47,0.15 L 485.2,677.11 a 1.25,1.23 -18 0 0 -1,-0.5 h -9.9 a 0.24,0.24 0 0 0 -0.1,0.46 q 5.04,2.24 5.04,8.43 0.01,22.05 -0.32,52.27 -0.08,6.46 -4.85,9.63 a 0.31,0.31 0 0 0 0.17,0.57 h 11.45 a 0.32,0.32 0 0 0 0.18,-0.58"
       id="path15" />
    <path
       stroke="#766a53"
       d="m 608.26,265.15 q -1.38,5.31 -1.58,10.85 -0.08,1.98 0.23,2.06 0.3,0.07 1.2,-1.69 2.53,-4.93 3.91,-10.24 1.38,-5.31 1.58,-10.85 0.07,-1.98 -0.23,-2.06 -0.3,-0.08 -1.21,1.69 -2.52,4.93 -3.9,10.24"
       id="path16" />
    <path
       stroke="#766a53"
       d="m 597.17,288.04 q -0.81,-9.42 -3.23,-17.64 a 0.2,0.2 0 0 0 -0.39,0.03 q -1.14,9.02 -0.37,17.95 0.77,8.93 3.43,17.62 a 0.2,0.2 0 0 0 0.39,-0.03 q 0.98,-8.52 0.17,-17.93"
       id="path17" />
    <path
       stroke="#766a53"
       d="m 611.06,294.37 q -5.94,6.59 -9.38,12.3 a 0.26,0.26 0 0 0 0.36,0.36 q 7,-4.34 12.04,-9.94 5.04,-5.6 8.64,-13 a 0.26,0.26 0 0 0 -0.4,-0.32 q -5.32,4.01 -11.26,10.6"
       id="path18" />
    <path
       stroke="#766a53"
       d="m 577.99,311.05 q 2.79,10.31 7.12,18.98 a 0.23,0.23 0 0 0 0.42,-0.11 q -0.53,-10.27 -3.17,-20.05 -2.64,-9.79 -7.34,-18.92 a 0.23,0.23 0 0 0 -0.43,0.11 q 0.62,9.67 3.4,19.99"
       id="path19" />
    <path
       stroke="#766a53"
       d="m 610.89,318.23 q -5.27,2.53 -10.17,5.77 -5.59,3.69 -5.38,4.13 0.26,0.54 6.64,-1.51 5.59,-1.79 10.86,-4.32 5.27,-2.53 10.17,-5.77 5.59,-3.69 5.38,-4.13 -0.26,-0.54 -6.63,1.51 -5.6,1.79 -10.87,4.32"
       id="path20" />
    <path
       stroke="#766a53"
       d="m 549.7701,350.9676 a 11.29,1.18 -110.1 0 0 2.7718,11.0079 11.29,1.18 -110.1 0 0 4.988,10.1969 11.29,1.18 -110.1 0 0 -2.7718,-11.0079 11.29,1.18 -110.1 0 0 -4.988,-10.1969"
       id="path21" />
    <path
       stroke="#766a53"
       d="m 597.17,363.9 q -4.81,4.6 -8.89,9.93 -1.78,2.34 -1.56,2.57 0.25,0.27 2.67,-1.42 5.5,-3.83 10.31,-8.43 4.81,-4.61 8.89,-9.94 1.79,-2.34 1.56,-2.57 -0.25,-0.26 -2.67,1.42 -5.5,3.84 -10.31,8.44"
       id="path22" />
    <path
       stroke="#766a53"
       d="m 627.1265,367.0985 a 10.82,1.72 -15.5 0 0 -10.8862,1.2341 10.82,1.72 -15.5 0 0 -9.9668,4.5489 10.82,1.72 -15.5 0 0 10.8862,-1.2341 10.82,1.72 -15.5 0 0 9.9668,-4.5489"
       id="path23" />
    <path
       stroke="#766a53"
       d="m 507.6016,372.698 a 13.35,1.62 -78.5 0 0 -4.2491,12.759 13.35,1.62 -78.5 0 0 -1.0741,13.405 13.35,1.62 -78.5 0 0 4.2491,-12.759 13.35,1.62 -78.5 0 0 1.0741,-13.405"
       id="path24" />
    <path
       stroke="#766a53"
       d="m 601.99,390.88 q 5.22,2.09 10.71,3.45 6.26,1.55 6.47,1.02 0.18,-0.44 -5.43,-3.62 -4.92,-2.8 -10.14,-4.88 -5.23,-2.09 -10.72,-3.45 -6.26,-1.56 -6.47,-1.02 -0.17,0.43 5.43,3.62 4.92,2.79 10.15,4.88"
       id="path25" />
    <path
       stroke="#766a53"
       d="m 490.35,411.06 q 2.5,6.14 5.94,11.87 1.51,2.51 1.81,2.39 0.34,-0.14 -0.34,-2.99 -1.53,-6.5 -4.03,-12.64 -2.5,-6.15 -5.94,-11.87 -1.51,-2.51 -1.8,-2.39 -0.34,0.13 0.33,2.99 1.54,6.5 4.03,12.64"
       id="path26" />
    <path
       stroke="#766a53"
       d="m 554.5133,421.7792 a 11.91,1.5 -142.8 0 0 8.5798,8.3956 11.91,1.5 -142.8 0 0 10.3936,6.006 11.91,1.5 -142.8 0 0 -8.5798,-8.3956 11.91,1.5 -142.8 0 0 -10.3936,-6.006"
       id="path27" />
    <path
       stroke="#766a53"
       d="m 510.02,460.6 q -6.35,1.95 -12.41,4.75 -6.91,3.2 -6.75,3.73 0.2,0.65 7.71,-0.56 6.6,-1.07 12.95,-3.01 6.35,-1.95 12.41,-4.75 6.91,-3.2 6.75,-3.73 -0.2,-0.65 -7.72,0.56 -6.59,1.07 -12.94,3.01"
       id="path28" />
    <path
       stroke="#766a53"
       d="m 572.7324,332.9974 a 2.72,1.76 -12.8 0 0 -3.0423,-1.1137 2.72,1.76 -12.8 0 0 -2.2625,2.3189 2.72,1.76 -12.8 0 0 3.0423,1.1137 2.72,1.76 -12.8 0 0 2.2625,-2.3189"
       id="path29" />
    <path
       stroke="#766a53"
       d="m 600.9809,341.2495 a 2.11,1.92 -126.3 0 0 -0.2983,2.8372 2.11,1.92 -126.3 0 0 2.7965,0.5638 2.11,1.92 -126.3 0 0 0.2983,-2.8372 2.11,1.92 -126.3 0 0 -2.7965,-0.5638"
       id="path30" />
    <path
       stroke="#766a53"
       d="m 577.2606,399.6344 a 3.36,2.18 -58.2 0 0 -3.6234,1.7068 3.36,2.18 -58.2 0 0 0.0822,4.0044 3.36,2.18 -58.2 0 0 3.6234,-1.7068 3.36,2.18 -58.2 0 0 -0.0822,-4.0044"
       id="path31" />
    <path
       stroke="#766a53"
       d="m 541.94,629.5 c 3.87,-8.09 10.97,-8.91 19.29,-11.08 q 11.13,-2.9 13.48,-12.86 c 2.8,-11.82 -2.98,-21.98 -15.55,-23.7 -4.62,-0.64 -10.92,-0.87 -15.52,0.7 -1.74,0.59 -1.9,2.16 -1.91,3.94 q -0.1,11.44 -0.04,42.95 a 0.13,0.13 0 0 0 0.25,0.05"
       id="path32" />
  </g>
  <path
     fill="#e1c89a"
     d="m 10063.17,11408.38 q 0.14,-2.48 -0.57,-7.03 c -1.83,-11.65 -3.42,-21.64 -4.16,-32.92 a 0.53,0.53 0 0 1 0.5,-0.57 q 1.34,-0.07 1.41,0.84 1.24,14.81 3.95,30.23 1.75,9.98 0.71,19.39 a 0.29,0.29 0 0 0 0.53,0.2 q 8.94,-12.24 16.89,-25.58 3.91,-6.55 6.71,-13.04 a 1.72,1.74 46.5 0 0 0.04,-1.27 c -0.67,-1.87 -1.8,-4.76 -2.72,-6.72 q -9.58,-20.18 -10.17,-42.41 -0.03,-1.06 0.08,-1.34 a 0.98,0.97 39.6 0 1 1.74,-0.16 c 8.74,14.31 12.55,29.48 13.56,46.16 a 0.19,0.2 56.4 0 0 0.37,0.07 q 5.19,-10.07 8.06,-19.61 a 1.75,1.73 43.2 0 0 -0.04,-1.09 q -8.12,-21.03 -4.14,-43.34 0.24,-1.37 0.55,-2.12 a 0.87,0.87 0 0 1 1.6,-0.02 q 2.16,4.72 3.19,9.44 2.87,13.13 2.28,26.67 a 0.18,0.18 0 0 0 0.35,0.05 q 3.76,-13.96 4.06,-15.26 0.74,-3.23 0.96,-11.4 0.33,-12.49 6.74,-22.88 1.36,-2.21 3.09,-3.65 a 0.49,0.49 0 0 1 0.8,0.33 q 1.16,12.27 -2.99,23.71 c -1.26,3.46 -3.65,6.77 -5.43,10.07 a 2.64,2.57 68.1 0 0 -0.27,0.66 l -5.1,19.61 a 0.07,0.07 0 0 0 0.12,0.06 q 4.46,-6.07 6.85,-8.99 7.23,-8.82 17,-14.16 a 0.57,0.56 60.5 0 1 0.77,0.22 l 0.13,0.22 a 0.24,0.19 39 0 1 0.03,0.14 q -0.49,2.43 -1.59,4.7 c -5.52,11.39 -14.08,20.06 -24.91,26.22 a 3.24,3.24 0 0 0 -1.42,1.67 l -5.2,14.1 a 0.22,0.22 0 0 0 0.37,0.23 q 1.8,-1.81 2.55,-2.35 13.09,-9.46 28.97,-14.05 3.96,-1.14 8.01,-1.1 a 0.78,0.78 0 0 1 0.54,1.34 q -10.64,10.43 -24.92,15.64 -7.17,2.62 -17.49,5.95 a 1.64,1.61 10.2 0 0 -0.79,0.54 c -1.75,2.25 -3.27,6.35 -5.04,9.76 q -11.43,22.06 -27.99,43.44 -1.24,1.61 -2.91,4.21 a 0.07,0.07 0 0 0 0.09,0.1 c 8.1,-5.3 17.62,-8.91 26.77,-11.21 a 2.58,2.58 0 0 0 1.54,-1.11 c 1.66,-2.62 3.8,-6.52 6.14,-9.25 q 10.31,-11.98 23.66,-18.97 0.03,-0.01 0.43,-0.09 a 0.8,0.8 0 0 1 0.9,1.08 c -3.98,9.75 -13.65,18.8 -22.33,25.04 a 0.13,0.13 0 0 0 0.11,0.23 l 7.38,-2.3 a 12.18,12.27 19.8 0 0 3.13,-1.49 c 9.43,-6.32 18.89,-8.85 30.48,-7.4 a 0.73,0.73 0 0 1 0.35,1.31 q -13.69,10.29 -30.36,9.23 a 1.77,1.85 39.1 0 0 -0.65,0.08 l -13.61,4.25 a 0.28,0.28 0 0 0 0.04,0.55 q 19.85,2.96 35.62,16.65 a 0.83,0.83 0 0 1 -0.45,1.45 q -1.79,0.21 -4.3,-0.17 -20.82,-3.14 -37.35,-15.8 a 1.24,1.28 57.6 0 0 -1.06,-0.22 q -22.69,5.6 -36.67,20.81 c -22.15,24.1 -37.7,40.27 -53.54,62.42 a 0.14,0.14 0 0 0 0.19,0.2 q 11.7,-6.72 25.73,-9.47 a 0.86,0.85 85.7 0 0 0.68,-0.8 q 0.18,-5.52 0.1,-14.19 c -0.04,-4.53 1.84,-6.42 5.11,-10.02 6.75,-7.44 15.8,-12.68 25.8,-14.1 9.1,-1.28 17.07,-0.2 28.49,0.57 q 8.79,0.59 17.51,-0.93 0.41,-0.07 0.63,0.4 a 0.99,1.17 65.2 0 1 -0.65,1.4 c -5.63,2.57 -14.17,2.02 -21.74,1.54 q -7.86,-0.51 -16.39,-0.57 a 0.34,0.34 0 0 0 -0.15,0.65 c 7.92,3.69 17.66,10.62 21.35,18.58 a 0.77,0.77 0 0 1 -0.75,1.1 q -0.68,-0.04 -1.49,-0.32 c -10.4,-3.53 -18.22,-10.65 -25.33,-19.06 a 1.21,1.21 0 0 0 -1.2,-0.39 l -6.46,1.55 a 0.86,0.86 0 0 0 -0.67,0.84 q 0.04,10.58 -0.02,32.14 -0.06,19.96 -8.42,38.18 -7.3,15.91 -21.96,26.8 c -18.67,13.87 -45.92,17.45 -68.26,12.3 q -30.96,-7.15 -45.06,-33.54 c -9.73,-18.23 -10.65,-41.49 -2.47,-60.18 10.94,-24.97 38.74,-41.24 65.56,-29.62 11.02,4.77 19.75,14.93 21,27.03 0.78,7.48 -0.87,17.15 -7.49,21.62 a 0.35,0.35 0 0 1 -0.54,-0.35 q 1.52,-8.46 -2.02,-16.74 -6.77,-15.8 -23.64,-19.61 c -15.1,-3.41 -30.55,2.8 -40.38,14.39 -12.96,15.31 -15.18,37.46 -7.37,55.95 q 9.52,22.53 32.27,31.95 c 18.21,7.55 42.3,7.66 58.87,-3.77 16.86,-11.64 24.31,-32.11 25.75,-52.16 a 0.45,0.45 0 0 0 -0.59,-0.46 q -14.21,4.63 -29.37,5.79 c -1.44,0.11 -2.6,1.9 -3.46,3.16 q -13.48,19.91 -21.69,41.94 a 0.93,0.93 0 0 1 -1.19,0.55 l -1.45,-0.54 a 0.91,0.9 17.1 0 1 -0.57,-1.07 c 1.45,-5.85 4.5,-12.19 7.73,-18.74 q 8.61,-17.5 20.39,-33.86 c 2.71,-3.77 4.69,-6.53 6.51,-10.89 q 4.21,-10.11 4.82,-19.6 c 0.1,-1.69 -0.71,-3.43 -1.75,-4.97 -7.71,-11.36 -13.16,-24.01 -14.06,-37.74 a 0.69,0.69 0 0 1 0.89,-0.7 q 0.86,0.26 1.59,1.18 c 6.81,8.56 11.32,18.94 14.2,29.78 a 0.2,0.2 0 0 0 0.39,-0.06 c -0.14,-4.33 -0.47,-12.21 -1.09,-19.01 q -2.06,-22.47 -1.35,-44.69 a 1.06,1.07 86.3 0 1 0.9,-1.01 l 0.11,-0.02 a 0.74,0.74 0 0 1 0.86,0.74 q -0.08,12.81 0.57,26.09 0.07,1.51 0.42,2.49 a 0.29,0.29 0 0 0 0.56,-0.06 q 1.51,-9.47 6.87,-18.44 a 0.92,0.91 56.9 0 1 1.69,0.36 c 1.64,13.53 -1.3,24.71 -6.98,37.3 a 5.39,5.4 55 0 0 -0.45,2.55 c 0.97,13.73 1.06,26.72 -2.51,40.12 a 0.22,0.22 0 0 0 0.38,0.2 l 17.03,-20.13 a 2.47,2.47 0 0 0 0.58,-1.59 q 0.05,-108.54 0.02,-131.17 -0.01,-3.35 -0.85,-11.18 c -1.05,-9.74 -5.22,-15.07 -15.14,-14.93 -24.53,0.35 -44.42,19.22 -50.22,42.1 -3.82,15.09 -3.62,31.71 3.83,45.66 5.12,9.56 16.07,18.07 26.96,19.15 a 0.39,0.4 2.3 0 1 0.36,0.4 v 2.64 a 0.16,0.16 0 0 1 -0.15,0.16 c -22.79,0.85 -43.64,-10.81 -50.28,-32.9 -11.77,-39.1 17.16,-72.67 54,-80.76 q 7.46,-1.63 25,-1.63 28.95,-0.01 47.5,0.05 a 0.66,0.65 0 0 1 0.66,0.65 v 2.94 a 0.68,0.68 0 0 1 -0.64,0.68 c -8.02,0.52 -13.43,3.2 -15.27,11.77 -1.29,5.98 -1.62,13.15 -1.62,19.31 q 0.1,92.26 0,101.59 a 0.22,0.22 0 0 0 0.39,0.15 q 8.9,-10.13 15.78,-20.33 a 2.19,2.17 44.8 0 0 -0.02,-2.46 c -6.41,-9.26 -10.17,-20.27 -10.85,-31.46 a 1,1 0 0 1 1.85,-0.58 q 6.57,10.69 9.43,20.19 a 0.37,0.37 0 0 0 0.72,-0.08 z m 49.09,-100.23 q -1.38,5.31 -1.58,10.85 -0.08,1.98 0.23,2.06 0.3,0.07 1.2,-1.69 2.53,-4.93 3.91,-10.24 1.38,-5.31 1.58,-10.85 0.07,-1.98 -0.23,-2.06 -0.3,-0.08 -1.21,1.69 -2.52,4.93 -3.9,10.24 z m -11.09,22.89 q -0.81,-9.42 -3.23,-17.64 a 0.2,0.2 0 0 0 -0.39,0.03 q -1.14,9.02 -0.37,17.95 0.77,8.93 3.43,17.62 a 0.2,0.2 0 0 0 0.39,-0.03 q 0.98,-8.52 0.17,-17.93 z m 13.89,6.33 q -5.94,6.59 -9.38,12.3 a 0.26,0.26 0 0 0 0.36,0.36 q 7,-4.34 12.04,-9.94 5.04,-5.6 8.64,-13 a 0.26,0.26 0 0 0 -0.4,-0.32 q -5.32,4.01 -11.26,10.6 z m -33.07,16.68 q 2.79,10.31 7.12,18.98 a 0.23,0.23 0 0 0 0.42,-0.11 q -0.53,-10.27 -3.17,-20.05 -2.64,-9.79 -7.34,-18.92 a 0.23,0.23 0 0 0 -0.43,0.11 q 0.62,9.67 3.4,19.99 z m 32.9,7.18 q -5.27,2.53 -10.17,5.77 -5.59,3.69 -5.38,4.13 0.26,0.54 6.64,-1.51 5.59,-1.79 10.86,-4.32 5.27,-2.53 10.17,-5.77 5.59,-3.69 5.38,-4.13 -0.26,-0.54 -6.63,1.51 -5.6,1.79 -10.87,4.32 z m -61.12,32.738 a 11.29,1.18 69.9 0 0 2.772,11.008 11.29,1.18 69.9 0 0 4.988,10.196 11.29,1.18 69.9 0 0 -2.772,-11.007 11.29,1.18 69.9 0 0 -4.988,-10.197 z m 47.4,12.932 q -4.81,4.6 -8.89,9.93 -1.78,2.34 -1.56,2.57 0.25,0.27 2.67,-1.42 5.5,-3.83 10.31,-8.43 4.81,-4.61 8.89,-9.94 1.79,-2.34 1.56,-2.57 -0.25,-0.26 -2.67,1.42 -5.5,3.84 -10.31,8.44 z m 29.957,3.199 a 1.72,10.82 74.5 0 0 -10.887,1.234 1.72,10.82 74.5 0 0 -9.967,4.548 1.72,10.82 74.5 0 0 10.887,-1.234 1.72,10.82 74.5 0 0 9.967,-4.548 z m -119.525,5.599 a 1.62,13.35 11.5 0 0 -4.249,12.759 1.62,13.35 11.5 0 0 -1.075,13.405 1.62,13.35 11.5 0 0 4.25,-12.759 1.62,13.35 11.5 0 0 1.074,-13.405 z m 94.388,18.182 q 5.22,2.09 10.71,3.45 6.26,1.55 6.47,1.02 0.18,-0.44 -5.43,-3.62 -4.92,-2.8 -10.14,-4.88 -5.23,-2.09 -10.72,-3.45 -6.26,-1.56 -6.47,-1.02 -0.17,0.43 5.43,3.62 4.92,2.79 10.15,4.88 z m -111.64,20.18 q 2.5,6.14 5.94,11.87 1.51,2.51 1.81,2.39 0.34,-0.14 -0.34,-2.99 -1.53,-6.5 -4.03,-12.64 -2.5,-6.15 -5.94,-11.87 -1.51,-2.51 -1.8,-2.39 -0.34,0.13 0.33,2.99 1.54,6.5 4.03,12.64 z m 64.163,10.719 a 11.91,1.5 37.2 0 0 8.58,8.396 11.91,1.5 37.2 0 0 10.394,6.006 11.91,1.5 37.2 0 0 -8.58,-8.396 11.91,1.5 37.2 0 0 -10.394,-6.006 z m -44.493,38.821 q -6.35,1.95 -12.41,4.75 -6.91,3.2 -6.75,3.73 0.2,0.65 7.71,-0.56 6.6,-1.07 12.95,-3.01 6.35,-1.95 12.41,-4.75 6.91,-3.2 6.75,-3.73 -0.2,-0.65 -7.72,0.56 -6.59,1.07 -12.94,3.01 z"
     id="path34" />
  <path
     fill="#e1c89a"
     d="m 10084.85,11381.43 a 9.1,9.1 0 0 1 -9.1,9.1 9.1,9.1 0 0 1 -9.1,-9.1 9.1,9.1 0 0 1 9.1,-9.1 9.1,9.1 0 0 1 9.1,9.1 z m -8.118,-5.433 a 1.76,2.72 77.2 0 0 -3.042,-1.113 1.76,2.72 77.2 0 0 -2.262,2.319 1.76,2.72 77.2 0 0 3.042,1.113 1.76,2.72 77.2 0 0 2.262,-2.319 z"
     id="path40" />
  <path
     fill="#e1c89a"
     d="m 10110.348,11382.149 a 8.73,8.88 63.8 0 1 -4.114,11.754 8.73,8.88 63.8 0 1 -11.822,-3.912 8.73,8.88 63.8 0 1 4.114,-11.754 8.73,8.88 63.8 0 1 11.822,3.912 z m -5.367,2.101 a 2.11,1.92 53.7 0 0 -0.298,2.837 2.11,1.92 53.7 0 0 2.796,0.563 2.11,1.92 53.7 0 0 0.298,-2.837 2.11,1.92 53.7 0 0 -2.796,-0.563 z"
     id="path41" />
  <path
     fill="#e1c89a"
     d="m 10085.82,11442.66 a 10.8,10.8 0 0 1 -10.8,10.8 10.8,10.8 0 0 1 -10.8,-10.8 10.8,10.8 0 0 1 10.8,-10.8 10.8,10.8 0 0 1 10.8,10.8 z m -4.559,-0.03 a 2.18,3.36 31.8 0 0 -3.624,1.707 2.18,3.36 31.8 0 0 0.08,4.005 2.18,3.36 31.8 0 0 3.624,-1.707 2.18,3.36 31.8 0 0 -0.08,-4.005 z"
     id="path45" />
  <path
     fill="#e1c89a"
     d="m 9992.99,11623.72 c -0.64,0.53 -1.15,0.53 -1.85,1.01 -2.97,2.04 -3.53,6.74 -3.56,10.28 q -0.07,7.73 -0.06,51.62 a 2.51,2.52 29 0 0 0.38,1.33 c 5.77,9.32 15.35,19.3 26.59,21.53 3.14,0.62 7.5,0.43 10.12,0.49 a 0.25124689,0.25124689 0 0 1 0.05,0.5 c -14.78,3.49 -28.88,-2.82 -38.39,-14.28 q -4.19,-5.04 -8.92,-11.31 -30.81,-40.77 -41.91,-55.44 a 0.2,0.2 0 0 0 -0.36,0.12 q -0.1,45.58 -0.04,53.91 0.04,6.85 5.26,10.28 a 0.22,0.22 0 0 1 -0.12,0.41 h -12.27 a 0.16,0.16 0 0 1 -0.09,-0.29 c 5.17,-3.52 5.43,-7.98 5.49,-13.88 q 0.05,-4.74 0.1,-45.5 0,-2.09 -0.38,-7.07 a 5.32,5.34 23.8 0 0 -1.11,-2.88 q -6.9,-8.89 -11.71,-11.83 -9.78,-5.98 -21.23,-3.19 a 0.42,0.42 0 0 1 -0.28,-0.78 q 4.41,-2.06 9.06,-2.03 c 14.04,0.1 24.04,6.91 32.11,17.67 q 18.21,24.29 45.36,59.82 a 0.34,0.35 26.4 0 0 0.62,-0.21 q 0.01,-16.65 0,-37.16 -0.01,-11.53 -0.36,-15.37 -0.47,-5.29 -4.98,-7.65 a 0.27,0.27 0 0 1 0.12,-0.51 h 12.21 a 0.23,0.23 0 0 1 0.15,0.41 z"
     id="path48" />
  <path
     fill="#e1c89a"
     d="m 10236.82,11707.32 a 0.27,0.27 0 0 1 0.14,0.51 q -2.6,1.17 -5.52,1.3 -14.81,0.67 -25.51,-8.12 c -7.46,-6.14 -13.05,-16.12 -19.35,-25.85 q -3.63,-5.6 -8.3,-9.47 -3.51,-2.91 -8.56,-2.68 a 0.35,0.35 0 0 1 -0.37,-0.35 v -0.25 a 0.17,0.17 0 0 1 0.17,-0.17 q 4.42,0.06 8.12,-0.25 c 11.66,-0.99 19.5,-8.29 18.9,-20.47 q -0.63,-12.62 -11.52,-16.46 c -4.21,-1.49 -10.78,-1.1 -15.27,-0.92 -4.78,0.2 -5.26,3.21 -5.35,7.69 q 0,0.06 0.02,52.66 c 0,3.9 0.55,6.67 3.9,8.56 a 0.3,0.3 0 0 1 -0.14,0.56 h -14.43 a 0.25,0.26 29 0 1 -0.13,-0.47 c 3.35,-2.15 3.8,-5.16 3.85,-9.2 q 0.4,-28.29 -0.02,-54.16 -0.08,-4.57 -4.31,-6.53 a 0.2,0.2 0 0 1 0.09,-0.38 q 14.25,-0.24 26.76,-0.23 c 11.73,0.01 23.93,6.8 23.4,20.28 q -0.47,11.97 -12.09,17.4 -2.05,0.95 -8.66,2.79 a 0.29,0.29 0 0 0 -0.11,0.51 c 12.15,9.86 18.09,24.62 30.03,35.75 q 10.37,9.67 24.26,7.95 z"
     id="path49" />
  <path
     fill="#e1c89a"
     d="m 9842.7,11623.27 q -4.68,1.5 -4.74,6.99 -0.14,14.53 -0.1,41.98 c 0.02,16.83 -5.74,33.23 -23.78,37.51 q -1.51,0.36 -2.9,0.17 a 0.25,0.25 0 0 1 -0.04,-0.48 q 15.32,-4.88 18.38,-21.27 1.58,-8.49 1.6,-12.41 0.15,-31.72 0.01,-42.73 c -0.06,-4.28 -0.52,-8.15 -4.62,-9.76 a 0.27,0.26 55.4 0 1 0.09,-0.51 h 16.02 a 0.26,0.26 0 0 1 0.08,0.51 z"
     id="path50" />
  <path
     fill="#e1c89a"
     d="m 9906.35,11623.9 a 0.34179672,0.34179672 0 0 1 0.07,-0.68 h 11.8 a 0.3,0.29 32.1 0 1 0.13,0.56 c -4.14,2 -4.74,5.93 -4.88,10.47 q -0.1,3.1 -0.02,28 0.02,7.74 -1.06,12.84 c -3.31,15.68 -16.15,22.81 -31.58,19.9 -20,-3.79 -23.18,-19.34 -23.07,-36.7 q 0.13,-20.38 -0.08,-28.71 -0.11,-4.74 -4.24,-6.25 a 0.29,0.29 0 0 1 0.1,-0.57 h 15.51 a 0.25,0.25 0 0 1 0.09,0.48 q -2.92,1.22 -3.67,3.47 c -1.09,3.32 -0.8,7.73 -0.83,11.55 q -0.13,16.18 0.05,26.74 c 0.17,10.23 3.48,22.3 13.31,26.69 q 9.36,4.17 19.13,0.68 c 13.21,-4.73 14.61,-18.48 14.68,-31.58 q 0.12,-22.1 -0.2,-28.77 c -0.13,-2.48 -1.85,-7.43 -5.24,-8.12 z"
     id="path51" />
  <path
     fill="#e1c89a"
     d="m 10105.47,11657.06 q 5.13,-1.36 13.7,-1.84 7.28,-0.4 9.42,-7.15 a 0.33,0.33 0 0 1 0.65,0.1 v 15.53 a 0.39,0.39 0 0 1 -0.76,0.11 c -1.26,-4.17 -3.74,-5.64 -8,-6.32 q -6.42,-1.02 -14.71,0.97 a 1.35,1.35 0 0 0 -1.03,1.31 q 0.09,22.73 0.03,30.26 -0.02,2.67 2.27,2.65 6.51,-0.05 14.97,-0.09 c 7.79,-0.04 15.43,-2.39 20.02,-8.29 0.85,-1.09 1.39,-2.67 2.26,-3.57 a 0.23,0.23 0 0 1 0.39,0.22 l -3.17,12.16 a 0.99,0.99 0 0 1 -0.96,0.75 h -46.44 a 0.19,0.19 0 0 1 -0.09,-0.36 q 3.95,-2.15 4,-7 0.13,-11.74 0.14,-24.18 a 0.35,0.35 0 0 0 -0.56,-0.28 c -6.63,4.97 -10.74,9.15 -11.51,17.45 a 0.49,0.49 0 0 1 -0.51,0.44 h -0.02 a 0.43,0.43 0 0 1 -0.41,-0.44 c 0.09,-8.81 4.88,-15.52 12.49,-19.62 a 0.89,0.87 77.1 0 0 0.47,-0.77 q 0.24,-21.63 -0.19,-29.77 -0.22,-4.19 -3.89,-5.68 a 0.31,0.3 55.8 0 1 0.11,-0.59 h 43.03 a 1.09,1.1 83.4 0 1 1.07,0.84 l 2.48,10.37 a 0.1,0.09 78.1 0 1 -0.07,0.12 l -0.27,0.07 a 0.33,0.33 0 0 1 -0.38,-0.21 c -2.25,-6.27 -8.07,-9.15 -14.24,-9.68 q -2.76,-0.24 -20.29,-0.13 a 0.72,0.72 0 0 0 -0.71,0.72 v 31.35 a 0.57,0.56 82.6 0 0 0.71,0.55 z"
     id="path52" />
  <path
     fill="#e1c89a"
     d="m 10013.19,11623.38 q 3.26,0 7.78,0.02 a 0.21,0.21 0 0 1 0.1,0.39 q -4.51,2.5 -4.46,7.92 0.02,2.25 0.02,27.14 0,24.9 -0.02,27.14 -0.04,5.42 4.47,7.92 a 0.21,0.21 0 0 1 -0.1,0.39 q -4.52,0.02 -7.78,0.02 -3.25,0 -7.77,-0.02 a 0.21,0.21 0 0 1 -0.1,-0.39 q 4.51,-2.5 4.46,-7.91 -0.02,-2.25 -0.02,-27.15 -0.01,-24.89 0.02,-27.14 0.04,-5.42 -4.47,-7.92 a 0.21,0.21 0 0 1 0.1,-0.38 q 4.52,-0.03 7.77,-0.03 z"
     id="path53" />
  <path
     fill="#e1c89a"
     d="m 10034.46,11623.77 a 0.2,0.2 0 0 1 0.1,-0.38 q 10.43,0.06 23.69,-0.19 c 10.35,-0.19 22.3,1.9 26.67,12.18 4.64,10.9 -0.67,22.28 -11.83,25.97 q -4.42,1.46 -14.03,3.34 -8.26,1.61 -12.43,9.1 a 4.44,4.47 65.4 0 0 -0.47,1.25 q -1.29,6.23 -0.53,12.77 c 0.32,2.82 1.29,4.44 3.7,5.66 a 0.43,0.43 0 0 1 -0.2,0.81 h -14.31 a 0.23,0.23 0 0 1 -0.12,-0.42 q 4.03,-2.39 4.08,-8.11 0.22,-25.92 0.14,-51.49 c -0.02,-4.71 -0.45,-8.16 -4.46,-10.49 z m 11.48,48.73 c 3.87,-8.09 10.97,-8.91 19.29,-11.08 q 11.13,-2.9 13.48,-12.86 c 2.8,-11.82 -2.98,-21.98 -15.55,-23.7 -4.62,-0.64 -10.92,-0.87 -15.52,0.7 -1.74,0.59 -1.9,2.16 -1.91,3.94 q -0.1,11.44 -0.04,42.95 a 0.13,0.13 0 0 0 0.25,0.05 z"
     id="path54" />
  <path
     fill="#e1c89a"
     d="m 10125.4,11755.18 a 0.28,0.28 0 0 1 0.12,0.54 q -4.03,1.99 -4.07,7.26 -0.08,12.25 -0.63,26.95 a 0.53,0.53 0 0 1 -0.53,0.51 h -0.3 a 0.27,0.28 87.8 0 1 -0.28,-0.25 q -0.45,-6.15 -2.62,-10.89 a 0.78,0.79 53.9 0 0 -1.29,-0.2 q -13.93,15.24 -34.48,12.11 -16.77,-2.55 -24.48,-15.97 c -5.85,-10.19 -6.15,-25.17 -1.39,-35.83 10.09,-22.57 37.4,-26.61 57.13,-14.71 q 2.99,1.8 5.25,4.29 a 0.24,0.24 0 0 1 -0.01,0.33 l -5.82,5.81 a 0.13,0.13 0 0 1 -0.22,-0.04 c -4.48,-9.78 -12.48,-15.39 -23.4,-15.5 -28.98,-0.28 -35.64,40.24 -21.76,58.97 q 10.95,14.76 28.75,11.04 6.88,-1.43 12.5,-6.96 c 7.18,-7.05 7.04,-15.81 7.11,-25.6 a 0.36,0.35 0.8 0 0 -0.36,-0.36 H 10097 a 0.47,0.48 0 0 1 -0.47,-0.48 v -0.27 a 0.75,0.75 0 0 1 0.75,-0.75 z"
     id="path56" />
  <path
     fill="#e1c89a"
     d="m 9936.33,11720.11 q -4.69,1.5 -4.75,7.01 -0.14,14.55 -0.11,42.06 c 0.02,16.86 -5.75,33.29 -23.82,37.58 q -1.52,0.36 -2.91,0.17 a 0.25,0.25 0 0 1 -0.04,-0.48 q 15.35,-4.89 18.42,-21.31 1.58,-8.51 1.6,-12.44 0.15,-31.78 0.01,-42.81 c -0.06,-4.29 -0.52,-8.17 -4.63,-9.78 a 0.27,0.26 55.4 0 1 0.09,-0.51 h 16.06 a 0.26,0.26 0 0 1 0.08,0.51 z"
     id="path57" />
  <path
     fill="#e1c89a"
     d="m 9957.1,11719.62 q 7.42,0.01 7.95,0.04 a 0.30103986,0.30103986 0 0 1 0.05,0.6 c -5.01,1.15 -4.6,7.51 -4.62,11.99 q -0.1,24.45 -0.06,48.5 c 0,3.89 0.56,7.93 4.18,9.58 a 0.23,0.24 57.8 0 1 -0.1,0.45 q -3.9,-0.03 -7.5,-0.04 -3.6,0 -7.49,0.02 a 0.24,0.23 32.3 0 1 -0.11,-0.45 c 3.63,-1.64 4.2,-5.68 4.21,-9.57 q 0.1,-24.05 0.07,-48.5 c -0.01,-4.48 0.42,-10.84 -4.59,-12 a 0.30149627,0.30149627 0 0 1 0.06,-0.6 q 0.53,-0.03 7.95,-0.02 z"
     id="path58" />
  <path
     fill="#e1c89a"
     d="m 9989.69,11790.97 h -11.45 a 0.31,0.31 0 0 1 -0.17,-0.57 q 4.77,-3.17 4.85,-9.63 0.33,-30.22 0.32,-52.27 0,-6.19 -5.04,-8.43 a 0.24,0.24 0 0 1 0.1,-0.46 h 9.9 a 1.23,1.25 72 0 1 1,0.5 l 45.25,61.14 a 0.26,0.26 0 0 0 0.47,-0.15 q -0.01,-43.96 0.05,-48.1 c 0.08,-4.95 -0.05,-10.73 -5.18,-12.91 a 0.25,0.26 56.5 0 1 0.1,-0.49 h 12.39 a 0.29,0.29 0 0 1 0.08,0.57 c -4.1,1.11 -5.33,5.78 -5.41,9.59 q -0.49,24.07 -0.41,53.85 a 1.74,1.78 29.3 0 0 0.24,0.89 q 4.22,7.05 11.01,13.48 10.69,10.13 25.51,8.07 a 0.43,0.43 0 0 1 0.49,0.43 v 0.25 a 0.14,0.13 85.2 0 1 -0.11,0.14 q -21.98,4.05 -36.65,-11.86 -3.91,-4.24 -13.6,-17.4 -2.1,-2.84 -38.15,-51.28 a 0.2,0.2 0 0 0 -0.36,0.12 q -0.01,51.05 0,52.8 0.03,7.72 4.95,11.14 a 0.32,0.32 0 0 1 -0.18,0.58 z"
     id="path59" />
</svg>
