<?xml version="1.0" encoding="UTF-8"?>
<svg xmlns="http://www.w3.org/2000/svg" viewBox="20218 1888 250 308" stroke-linecap="round" stroke-linejoin="round">
  <path fill="#e7cfa2" d="m 20347.112,2083.969 a 13.01,13.01 0 0 1 -13.01,13.01 h -0.7 a 13.01,13.01 0 0 1 -13.01,-13.01 v -79.92 a 13.01,13.01 0 0 1 13.01,-13.01 h 0.7 a 13.01,13.01 0 0 1 13.01,13.01 z m -5.44,-79.76 a 7.83,7.83 0 0 0 -7.83,-7.83 h -0.32 a 7.83,7.83 0 0 0 -7.83,7.83 v 79.76 a 7.83,7.83 0 0 0 7.83,7.83 h 0.32 a 7.83,7.83 0 0 0 7.83,-7.83 z" />
  <path fill="#e7cfa2" d="m 20366.802,2062.469 -0.25,-28.22 q 0.67,-18.97 0.3,-28.25 -0.34,-8.63 6.61,-13.1 c 4.37,-2.81 10.26,-2.48 14.58,0.56 q 5.86,4.14 5.79,12.55 -0.12,13.47 0.01,70.98 0.02,9.15 -1.15,11.88 c -4.53,10.62 -20.15,11.02 -24.78,-0.19 q -0.98,-2.39 -1.03,-7.97 -0.08,-9.13 -0.08,-18.24 z m 21.63,-58.32 a 7.78,7.78 0 0 0 -7.78,-7.78 h -0.44 a 7.78,7.78 0 0 0 -7.78,7.78 v 79.9 a 7.78,7.78 0 0 0 7.78,7.78 h 0.44 a 7.78,7.78 0 0 0 7.78,-7.78 z" />
</svg>