<?xml version="1.0" encoding="UTF-8"?>
<svg xmlns="http://www.w3.org/2000/svg" viewBox="19968 1888 250 308" stroke-linecap="round" stroke-linejoin="round">
  <path fill="#e7cfa2" d="m 20098.082,1999.389 c 8.72,6.32 14.62,13.66 14.47,24.88 -0.17,13.3 -11.19,20.82 -20.66,28.01 q -2.91,2.21 -6.56,6 -10.31,10.72 -16.24,24.37 a 0.43,0.43 0 0 1 -0.55,0.23 h -0.01 a 0.46,0.46 0 0 1 -0.28,-0.56 c 3.3,-10.6 10.12,-18.96 17.64,-27.23 a 1.92,1.88 66.6 0 0 0.49,-1.28 q 0.09,-27.76 0,-38.79 c -0.05,-5.5 -2.95,-6.85 -7.93,-5.87 -9.83,1.94 -14.4,12.56 -12.98,21.37 0.92,5.69 4.33,8.26 9.13,10.48 a 0.26,0.26 0 0 1 -0.1,0.5 c -10.4,0.68 -16.64,-8.03 -15,-17.84 1.26,-7.55 7.61,-13.19 14.82,-15.68 q 3.7,-1.28 9.57,-1.28 6.6,0 13.69,0.38 a 0.57,0.57 0 0 1 0.17,1.1 c -4.51,1.68 -4,4.96 -3.97,9.7 q 0.08,13.64 0.08,28.77 a 0.3,0.3 0 0 0 0.49,0.23 q 11.56,-9.34 11.91,-24.4 0.27,-12.35 -10.37,-18.6 -38.37,-22.53 -39.72,-23.37 c -7.99,-4.97 -17.16,-0.72 -17.15,9.01 q 0.02,14.26 -0.13,76.51 -0.06,20.12 0.28,33.49 c 0.15,6.22 5.37,10.22 11.69,9.7 q 1.96,-0.16 6.53,-2.79 c 25.55,-14.73 39.65,-23.39 58,-33.95 9.94,-5.71 20.89,-12.92 32.64,-19.51 5.43,-3.03 8.29,-9.23 4.32,-14.67 q -1.42,-1.95 -6.54,-4.97 -21.01,-12.38 -21.81,-12.92 -4.43,-3.01 -5.23,-3.68 a 4.3,4.37 7.5 0 1 -0.95,-1.26 l -2.81,-5.7 a 0.35,0.35 0 0 1 0.48,-0.46 q 11.18,6.19 35.72,21.02 c 9.16,5.53 11.36,15.44 4.26,23.75 q -1.51,1.78 -6.35,4.71 -13.58,8.25 -25.38,14.86 -3.23,1.81 -6.58,4.23 -33.93,19.36 -53.5,31.18 -3.99,2.41 -6.04,3.43 c -9.78,4.9 -19.86,1.05 -23.24,-9.36 q -0.87,-2.71 -0.71,-7.8 0.04,-1.22 0.01,-102.55 -0.01,-6.64 0.98,-9.45 c 2.49,-7.11 9.59,-11.96 17.18,-10.34 q 3.91,0.83 7.65,3.03 14.31,8.41 33.2,19.87 3.49,2.11 5.39,3.5 z" />
  <path fill="#e7cfa2" d="m 20093.912,2054.119 c -0.07,11.01 0.19,21.28 -8.37,29.1 -12.08,11.02 -36.84,6.09 -39.7,-12.22 -2.13,-13.69 8.92,-26.37 23.07,-20.39 5.15,2.17 7.96,9.25 3.73,13.99 a 0.33,0.33 0 0 1 -0.58,-0.25 q 0.42,-6.16 -4.98,-9.33 c -5.47,-3.2 -13.64,-0.63 -17.26,4.73 q -2.54,3.77 -2.46,8.51 c 0.23,12.95 12.05,21.31 24.55,18.54 q 11,-2.44 13.33,-13.61 1.44,-6.88 1.6,-13.28 a 3.01,2.98 71.1 0 1 1.07,-2.21 l 4.9,-4.1 a 0.67,0.67 0 0 1 1.1,0.52 z" />
</svg>