<?xml version="1.0" encoding="UTF-8"?>
<svg xmlns="http://www.w3.org/2000/svg" viewBox="20468 1888 250 308" stroke-linecap="round" stroke-linejoin="round">
  <path fill="#e7cfa2" d="m 20576.232,2001.569 26.29,22.27 q 9.86,8.01 19.55,16.15 1.75,1.47 2.29,2.68 a 2.65,2.65 0 0 1 -0.54,2.97 q -3.12,3.1 -7.26,6.36 c -9.59,7.54 -21.01,17.91 -29.92,25.08 q -6.71,5.4 -19.05,15.94 -0.68,0.58 -2.9,1.9 a 1.7,1.69 33.8 0 1 -1.12,0.22 q -2.12,-0.33 -2.11,-3.06 0.2,-77.96 -0.06,-95.57 c -0.05,-3.25 1.44,-5.86 4.68,-3.28 q 5.17,4.1 10.15,8.34 z m -8.46,-0.17 a 0.67,0.67 0 0 0 -1.1,0.51 v 83.68 a 0.67,0.67 0 0 0 1.1,0.51 l 49.83,-41.84 a 0.67,0.67 0 0 0 0,-1.02 z" />
  <path fill="#e7cfa2" d="m 20605.552,2084.909 0.09,-15.03 a 2.53,2.67 87.1 0 1 2.39,-2.51 h 0.08 a 2.3,2.31 87.2 0 1 2.54,2.3 l -0.05,15.9 a 0.53,0.53 0 0 0 0.87,0.4 l 49.78,-41.62 a 0.76,0.76 0 0 0 0,-1.16 l -49.9,-41.58 a 0.54,0.54 0 0 0 -0.89,0.43 q 0.32,8.27 0.04,16.2 -0.1,2.68 -3.22,1.97 -1.74,-0.86 -1.78,-2.71 -0.26,-10.95 0.12,-23.16 a 1.96,1.73 0.6 0 1 1.94,-1.68 q 1.39,0 2.85,1.24 7.81,6.64 56,46.76 1.51,1.25 2.1,2.6 a 1.2,1.24 43.3 0 1 0.01,0.96 q -0.5,1.29 -2.11,2.63 -45.24,37.87 -56.05,46.94 -1.48,1.25 -2.63,1.31 a 1.97,1.98 87.9 0 1 -2.09,-1.93 q -0.07,-3.96 -0.09,-8.26 z" />
</svg>