<?xml version="1.0" encoding="UTF-8"?>
<svg xmlns="http://www.w3.org/2000/svg" viewBox="20718 1888 250 308" stroke-linecap="round" stroke-linejoin="round">
  <path fill="#e7cfa2" d="m 20816.492,2043.719 q 0,0.18 0.07,0.24 28.32,23.95 50.36,42.05 a 0.43,0.43 0 0 0 0.7,-0.33 l 0.11,-16.71 a 1.83,1.83 0 0 1 2.36,-1.74 l 0.19,0.06 a 3.2,3.2 0 0 1 2.42,3.1 l -0.04,22.28 a 2.27,2.27 0 0 1 -2.7,2.23 q -0.98,-0.19 -2.52,-1.48 -8.67,-7.31 -56.43,-47.06 -1.51,-1.25 -1.51,-2.64 0,-1.4 1.51,-2.65 47.76,-39.74 56.43,-47.05 1.54,-1.29 2.52,-1.48 a 2.27,2.27 0 0 1 2.7,2.23 l 0.04,22.28 a 3.2,3.2 0 0 1 -2.42,3.1 l -0.19,0.06 a 1.83,1.83 0 0 1 -2.36,-1.74 l -0.11,-16.71 a 0.43,0.43 0 0 0 -0.7,-0.33 q -22.04,18.1 -50.36,42.05 -0.07,0.05 -0.07,0.24 z" />
  <path fill="#e7cfa2" d="m 20912.392,2094.389 -57.9,-48.63 a 2.69,2.69 0 0 1 0,-4.12 l 57.9,-48.63 a 2.69,2.69 0 0 1 4.42,2.06 v 97.26 a 2.69,2.69 0 0 1 -4.42,2.06 z m -1.9,-8.2 a 0.74,0.74 0 0 0 1.22,-0.57 l 0.14,-83.68 a 0.74,0.74 0 0 0 -1.21,-0.57 l -49.76,41.76 a 0.74,0.74 0 0 0 0,1.13 z" />
</svg>